<?xml version="1.0" encoding="utf-8"?>
<!-- Generator: Adobe Illustrator 23.0.2, SVG Export Plug-In . SVG Version: 6.00 Build 0)  -->
<svg version="1.1" xmlns="http://www.w3.org/2000/svg" xmlns:xlink="http://www.w3.org/1999/xlink" x="0px" y="0px"
	 viewBox="0 0 1009.1 169.5" style="enable-background:new 0 0 1009.1 169.5;" xml:space="preserve">
<style type="text/css">
	.st0{fill:#27236F;}
	.st1{fill:#878787;}
	.st2{fill:#FFFFFF;}
	.st3{fill:#00A984;}
	.st4{fill:#009BD6;}
	.st5{fill:#E63312;}
	.st6{fill:#FFD618;}
	.st7{fill:#FFD500;}
	.st8{fill:#825A43;}
	.st9{fill:#432512;}
	.st10{fill:#FFE57F;}
	.st11{fill:#8B5317;}
	.st12{fill:#A06F38;}
	.st13{fill:#D18A12;}
	.st14{fill:#99621B;}
	.st15{fill:#7D4E18;}
	.st16{fill:#E49800;}
	.st17{fill:#693C26;}
	.st18{fill:#FFE68D;}
</style>
<g id="Layer_1">
</g>
<g id="Layer_4">
	<g>
		<polygon points="165.5,137.3 169.2,137.3 169.2,147.5 181.5,147.5 181.5,137.3 185.2,137.3 185.2,161.7 181.5,161.7 181.5,150.6 
			169.2,150.6 169.2,161.7 165.5,161.7 165.5,137.3 		"/>
		<polygon points="190.4,137.3 194.1,137.3 194.1,148.1 205.1,137.3 210,137.3 197.9,148.9 210.9,161.7 205.5,161.7 194.1,149.8 
			194.1,161.7 190.4,161.7 190.4,137.3 		"/>
		<path d="M233.1,151.6c0,6.8-3.6,10.5-10,10.5c-6.3,0-10-3.7-10-10.5v-14.3h3.7v13.8c0,4.7,1.5,7.9,6.3,7.9c4.8,0,6.3-3.2,6.3-7.9
			v-13.8h3.7V151.6L233.1,151.6z"/>
		<path d="M258.3,141c-1.9-0.7-2.9-1-4.8-1c-2.1,0-4.5,0.7-4.5,3.3c0,4.7,11,3.6,11,11.6c0,5.2-4.2,7.3-9.4,7.3
			c-1.8,0-3.6-0.5-5.2-1l0.4-3.2c1.2,0.5,3.5,1.2,5.3,1.2c2.1,0,5-1.1,5-4c0-5.4-11.1-3.9-11.1-11.5c0-4.3,3.6-6.6,8.2-6.6
			c1.7,0,3.7,0.3,5.5,0.9L258.3,141L258.3,141z"/>
		<path d="M275,146.9c-1.3-0.5-2.7-0.8-3.7-0.8c-3.9,0-6.1,3.3-6.1,6.7c0,3.2,1.8,6.7,6.3,6.7c1.2,0,2.6-0.4,3.7-1l0.3,2.9
			c-1.4,0.6-3.1,0.7-4.4,0.7c-5.7,0-9.5-4.2-9.5-9.3c0-5.4,3.8-9.3,9.5-9.3c1.4,0,3.2,0.3,4.2,0.7L275,146.9L275,146.9z"/>
		<path d="M277.8,135.5h3.4v10.9h0.1c1.3-1.9,3.4-3,6-3c4.9,0,7.1,2.9,7.1,7.6v10.6h-3.5v-9.2c0-4.2-1-6.2-4-6.4
			c-3.9,0-5.7,3-5.7,7.3v8.2h-3.4V135.5L277.8,135.5z"/>
		<path d="M297.4,152.8c0,5.1,3.9,9.3,9.6,9.3c5.6,0,9.5-4.2,9.5-9.3c0-5.4-3.8-9.3-9.5-9.3C301.2,143.5,297.4,147.4,297.4,152.8
			L297.4,152.8z M301.1,152.8c0-3.4,2.2-6.7,5.9-6.7c3.7,0,5.9,3.3,5.9,6.7c0,3.2-1.8,6.7-5.9,6.7
			C302.9,159.5,301.1,156,301.1,152.8L301.1,152.8z"/>
		<path d="M318.2,152.8c0,5.1,3.9,9.3,9.6,9.3c5.7,0,9.6-4.2,9.6-9.3c0-5.4-3.8-9.3-9.6-9.3C322,143.5,318.2,147.4,318.2,152.8
			L318.2,152.8z M321.9,152.8c0-3.4,2.2-6.7,5.9-6.7c3.7,0,5.9,3.3,5.9,6.7c0,3.2-1.8,6.7-5.9,6.7
			C323.7,159.5,321.9,156,321.9,152.8L321.9,152.8z"/>
		<polygon points="340.8,135.5 344.2,135.5 344.2,161.7 340.8,161.7 340.8,135.5 		"/>
		<path d="M356.2,152.8c0,5.1,3.9,9.3,9.6,9.3c5.6,0,9.5-4.2,9.5-9.3c0-5.4-3.8-9.3-9.5-9.3C360.1,143.5,356.2,147.4,356.2,152.8
			L356.2,152.8z M359.9,152.8c0-3.4,2.2-6.7,5.9-6.7c3.7,0,5.8,3.3,5.8,6.7c0,3.2-1.8,6.7-5.8,6.7
			C361.7,159.5,359.9,156,359.9,152.8L359.9,152.8z"/>
		<path d="M380.6,146.6h-4.4v-2.7h4.4v-1.6c0-4.3,1.2-7.2,6.3-7.2c0.9,0,1.6,0.1,2.3,0.2L389,138c-0.4-0.1-1.1-0.2-1.6-0.2
			c-3,0-3.4,1.8-3.4,4.2v1.9h5v2.7h-5v15.1h-3.5V146.6L380.6,146.6z"/>
		<path d="M399.7,161.7h3.7V152h3.6c4.7,0,9.1-1.9,9.1-7.3c0-5.6-4.4-7.3-9.6-7.3h-6.8V161.7L399.7,161.7z M403.4,140.4h3.1
			c2.3,0,5.7,1.1,5.7,4.2c0,3.2-2.9,4.3-5.1,4.3h-3.7V140.4L403.4,140.4z"/>
		<path d="M418.4,143.9h3.2v2.8h0.1c1-1.9,2.9-3.2,4.9-3.2c1.1,0,1.6,0.1,2.3,0.3v2.9c-0.6-0.3-1.3-0.3-1.9-0.3
			c-3.1,0-5.1,2.8-5.1,7.3v8.1h-3.5V143.9L418.4,143.9z"/>
		<path d="M429.8,152.8c0,5.1,3.9,9.3,9.6,9.3c5.6,0,9.5-4.2,9.5-9.3c0-5.4-3.8-9.3-9.5-9.3C433.6,143.5,429.8,147.4,429.8,152.8
			L429.8,152.8z M433.5,152.8c0-3.4,2.2-6.7,5.9-6.7c3.7,0,5.9,3.3,5.9,6.7c0,3.2-1.8,6.7-5.9,6.7
			C435.3,159.5,433.5,156,433.5,152.8L433.5,152.8z"/>
		<path d="M454.2,146.6h-4.4v-2.7h4.4v-1.6c0-4.3,1.2-7.2,6.3-7.2c0.9,0,1.6,0.1,2.3,0.2l-0.1,2.6c-0.4-0.1-1-0.2-1.7-0.2
			c-3,0-3.3,1.8-3.3,4.2v1.9h5v2.7h-5v15.1h-3.5V146.6L454.2,146.6z"/>
		<path d="M479,157.7c-0.9,0.7-3.5,1.8-5.8,1.8c-3.3,0-6.2-2.4-6.2-5.9h13.4c0-5.7-2-10.1-8.3-10.1c-5.3,0-8.8,3.7-8.8,9
			c0,5.8,3,9.6,9.7,9.6c3.1,0,4.6-0.7,5.9-1.2V157.7L479,157.7z M467,151.1c0.3-2.3,1.6-5,5-5c3,0,4.7,2.2,4.7,5H467L467,151.1z"/>
		<path d="M482,158.2c1.4,0.8,3.3,1.3,4.3,1.3c1.6,0,3.6-0.6,3.6-2.6c0-3.3-8.1-3-8.1-8c0-3.7,2.9-5.5,6.6-5.5
			c1.6,0,2.9,0.3,4.3,0.7l-0.3,2.9c-0.8-0.4-2.9-0.9-3.7-0.9c-1.8,0-3.3,0.7-3.3,2.2c0,3.6,8.1,2.6,8.1,8.3c0,3.8-3.2,5.5-6.5,5.5
			c-1.8,0-3.6-0.2-5.2-1L482,158.2L482,158.2z"/>
		<path d="M494.7,158.2c1.4,0.8,3.3,1.3,4.3,1.3c1.6,0,3.5-0.6,3.5-2.6c0-3.3-8.1-3-8.1-8c0-3.7,2.9-5.5,6.6-5.5
			c1.6,0,2.9,0.3,4.3,0.7L505,147c-0.8-0.4-2.8-0.9-3.6-0.9c-1.8,0-3.3,0.7-3.3,2.2c0,3.6,8.1,2.6,8.1,8.3c0,3.8-3.2,5.5-6.5,5.5
			c-1.8,0-3.6-0.2-5.2-1L494.7,158.2L494.7,158.2z"/>
		<path d="M512.9,139.9H509v-3.7h3.9V139.9L512.9,139.9z M509.2,143.9h3.5v17.8h-3.5V143.9L509.2,143.9z"/>
		<path d="M516.1,152.8c0,5.1,3.9,9.3,9.6,9.3c5.7,0,9.5-4.2,9.5-9.3c0-5.4-3.8-9.3-9.5-9.3C519.9,143.5,516.1,147.4,516.1,152.8
			L516.1,152.8z M519.8,152.8c0-3.4,2.2-6.7,5.9-6.7c3.7,0,5.9,3.3,5.9,6.7c0,3.2-1.8,6.7-5.9,6.7
			C521.6,159.5,519.8,156,519.8,152.8L519.8,152.8z"/>
		<path d="M538.2,143.9h3.4v2.8h0.1c1-2,3.5-3.3,6.2-3.3c4.9,0,7,2.9,7,7.6v10.6h-3.5v-9.2c0-4.2-0.9-6.2-4-6.4
			c-3.9,0-5.7,3-5.7,7.3v8.2h-3.4V143.9L538.2,143.9z"/>
		<path d="M560.1,147.9c1.4-1.1,3.5-1.8,5.5-1.8c3.5,0,4.6,1.6,4.6,4.7c-1.4-0.1-2.3-0.1-3.7-0.1c-3.6,0-8.7,1.4-8.7,5.9
			c0,3.9,2.8,5.5,6.9,5.5c3.2,0,5-1.6,5.8-2.7h0.1v2.3h3.2c0-0.5-0.1-1.5-0.1-3.5v-7.3c0-4.9-2.1-7.4-7.5-7.4
			c-2.4,0-4.5,0.7-6.2,1.7L560.1,147.9L560.1,147.9z M570.2,154.8c0,2.7-1.8,4.7-5.2,4.7c-1.6,0-3.5-1-3.5-2.9
			c0-3.2,4.7-3.4,6.5-3.4c0.7,0,1.5,0.1,2.2,0.1V154.8L570.2,154.8z"/>
		<polygon points="578.3,135.5 581.7,135.5 581.7,161.7 578.3,161.7 578.3,135.5 		"/>
		<path d="M596.1,147.9c1.4-1.1,3.5-1.8,5.5-1.8c3.5,0,4.6,1.6,4.6,4.7c-1.4-0.1-2.3-0.1-3.7-0.1c-3.6,0-8.7,1.4-8.7,5.9
			c0,3.9,2.8,5.5,6.9,5.5c3.2,0,5-1.6,5.8-2.7h0.1v2.3h3.2c-0.1-0.5-0.1-1.5-0.1-3.5v-7.3c0-4.9-2.2-7.4-7.5-7.4
			c-2.4,0-4.5,0.7-6.2,1.7L596.1,147.9L596.1,147.9z M606.2,154.8c0,2.7-1.8,4.7-5.2,4.7c-1.6,0-3.5-1-3.5-2.9
			c0-3.2,4.7-3.4,6.5-3.4c0.7,0,1.4,0.1,2.2,0.1V154.8L606.2,154.8z"/>
		<path d="M613.8,143.9h3.4v2.8h0.1c1-2,3.5-3.3,6.2-3.3c4.9,0,7,2.9,7,7.6v10.6H627v-9.2c0-4.2-1-6.2-4-6.4c-3.9,0-5.7,3-5.7,7.3
			v8.2h-3.5V143.9L613.8,143.9z"/>
		<path d="M648,161.7h3.3v-26.2h-3.5v10.8h0c-1.1-1.6-3-2.9-6.2-2.9c-5.5,0-8.1,4.2-8.1,9c0,4.8,2.4,9.6,8.1,9.6
			c3.3,0,5.5-1.6,6.4-2.9h0.1V161.7L648,161.7z M637.1,152.7c-0.1-3.2,1.4-6.6,5.2-6.6c3.7,0,5.5,3.4,5.5,6.7c0,3-1.6,6.6-5.5,6.6
			C638.6,159.5,637,155.5,637.1,152.7L637.1,152.7z"/>
		<path d="M682.2,141.4c-1.6-0.9-3.4-1.4-5.3-1.4c-6,0-9.9,4-9.9,9.5c0,5.7,4.3,9.5,9.7,9.5c1.9,0,4.3-0.5,5.6-1.2l0.2,3.4
			c-1.9,0.8-4.3,0.9-5.8,0.9c-8.1,0-13.6-5-13.6-12.7c0-7.5,5.8-12.5,13.6-12.5c2,0,3.9,0.3,5.8,1L682.2,141.4L682.2,141.4z"/>
		<path d="M683.7,152.8c0,5.1,3.9,9.3,9.6,9.3c5.6,0,9.6-4.2,9.6-9.3c0-5.4-3.8-9.3-9.6-9.3C687.5,143.5,683.7,147.4,683.7,152.8
			L683.7,152.8z M687.4,152.8c0-3.4,2.2-6.7,5.9-6.7c3.7,0,5.9,3.3,5.9,6.7c0,3.2-1.8,6.7-5.9,6.7
			C689.2,159.5,687.4,156,687.4,152.8L687.4,152.8z"/>
		<path d="M705.8,143.9h3.4v2.8h0.1c1-2,3.5-3.3,6.2-3.3c4.9,0,7,2.9,7,7.6v10.6h-3.5v-9.2c0-4.2-0.9-6.2-4-6.4
			c-3.9,0-5.7,3-5.7,7.3v8.2h-3.5V143.9L705.8,143.9z"/>
		<path d="M736.6,146.6h-4.9v9.7c0,2.1,1.3,3.2,2.9,3.2c1.1,0,1.9-0.3,2.4-0.6v2.8c-0.8,0.2-1.9,0.5-2.9,0.5c-3.6,0-5.8-1.6-5.8-5.2
			v-10.4h-4.2v-2.7h4.2v-4.1l3.5-1v5.2h4.9V146.6L736.6,146.6z"/>
		<path d="M743.4,139.9h-3.9v-3.7h3.9V139.9L743.4,139.9z M739.8,143.9h3.4v17.8h-3.4V143.9L739.8,143.9z"/>
		<path d="M747.9,143.9h3.4v2.8h0.1c1-2,3.5-3.3,6.1-3.3c4.9,0,7.1,2.9,7.1,7.6v10.6H761v-9.2c0-4.2-0.9-6.2-3.9-6.4
			c-4,0-5.7,3-5.7,7.3v8.2h-3.5V143.9L747.9,143.9z"/>
		<path d="M785.3,161.7H782v-2.8h-0.1c-1,2-3.5,3.2-6.1,3.2c-4.9,0-7-2.9-7-7.7v-10.6h3.5v9.2c0,4.2,0.9,6.2,4,6.4
			c4,0,5.7-3,5.7-7.3v-8.3h3.5V161.7L785.3,161.7z"/>
		<path d="M793.7,139.9h-3.9v-3.7h3.9V139.9L793.7,139.9z M790,143.9h3.5v17.8H790V143.9L790,143.9z"/>
		<path d="M798.1,143.9h3.4v2.8h0.1c1-2,3.5-3.3,6.1-3.3c4.9,0,7,2.9,7,7.6v10.6h-3.4v-9.2c0-4.2-1-6.2-4-6.4c-3.9,0-5.7,3-5.7,7.3
			v8.2h-3.5V143.9L798.1,143.9z"/>
		<path d="M835.6,143.9h-3.2v2.7h-0.1c-1-1.9-2.9-3.1-6.2-3.1c-5.7,0-8.4,4.9-8.4,9.5c0,4.6,2.7,8.8,8,8.8c2.4,0,4.8-0.9,6.3-2.8
			h0.1v1.7c0,3.8-2.2,6.1-5.8,6.1c-2.5,0-4.1-0.5-6.8-1.6l-0.4,3c3,1,4.8,1.2,6.8,1.2c6.7,0,9.7-3.1,9.7-8.5V143.9L835.6,143.9z
			 M826.7,159c-3.2,0-5.2-2.9-5.2-6.3c0-3,1.7-6.6,5.2-6.6c3.7,0,5.5,3.2,5.5,6.9C832.2,156.3,829.9,159,826.7,159L826.7,159z"/>
		<polygon points="849,137.3 863.4,137.3 863.4,140.4 852.7,140.4 852.7,147.5 862.4,147.5 862.4,150.6 852.7,150.6 852.7,158.6 
			863.4,158.6 863.4,161.7 849,161.7 849,137.3 		"/>
		<path d="M880.6,161.7h3.3v-26.2h-3.5v10.8h-0.1c-1.1-1.6-2.9-2.9-6.2-2.9c-5.5,0-8.1,4.2-8.1,9c0,4.8,2.4,9.6,8.1,9.6
			c3.3,0,5.5-1.6,6.4-2.9h0.1V161.7L880.6,161.7z M869.7,152.7c-0.1-3.2,1.4-6.6,5.2-6.6c3.8,0,5.5,3.4,5.5,6.7c0,3-1.6,6.6-5.5,6.6
			C871.2,159.5,869.6,155.5,869.7,152.7L869.7,152.7z"/>
		<path d="M904.7,161.7h-3.3v-2.8h-0.1c-1,2-3.5,3.2-6.2,3.2c-4.8,0-7-2.9-7-7.7v-10.6h3.5v9.2c0,4.2,1,6.2,4,6.4
			c3.9,0,5.7-3,5.7-7.3v-8.3h3.4V161.7L904.7,161.7z"/>
		<path d="M920.9,146.9c-1.3-0.5-2.6-0.8-3.7-0.8c-3.9,0-6,3.3-6,6.7c0,3.2,1.8,6.7,6.3,6.7c1.2,0,2.6-0.4,3.7-1l0.3,2.9
			c-1.4,0.6-3.1,0.7-4.4,0.7c-5.7,0-9.6-4.2-9.6-9.3c0-5.4,3.8-9.3,9.6-9.3c1.4,0,3.2,0.3,4.2,0.7L920.9,146.9L920.9,146.9z"/>
		<path d="M924.7,147.9c1.4-1.1,3.5-1.8,5.4-1.8c3.5,0,4.7,1.6,4.7,4.7c-1.4-0.1-2.3-0.1-3.7-0.1c-3.6,0-8.7,1.4-8.7,5.9
			c0,3.9,2.8,5.5,6.9,5.5c3.2,0,5-1.6,5.8-2.7h0.1v2.3h3.3c-0.1-0.5-0.2-1.5-0.2-3.5v-7.3c0-4.9-2.1-7.4-7.5-7.4
			c-2.4,0-4.5,0.7-6.2,1.7L924.7,147.9L924.7,147.9z M934.8,154.8c0,2.7-1.8,4.7-5.2,4.7c-1.6,0-3.5-1-3.5-2.9
			c0-3.2,4.6-3.4,6.5-3.4c0.7,0,1.5,0.1,2.2,0.1V154.8L934.8,154.8z"/>
		<path d="M952.4,146.6h-4.9v9.7c0,2.1,1.3,3.2,2.9,3.2c1,0,1.8-0.3,2.4-0.6v2.8c-0.8,0.2-1.9,0.5-3,0.5c-3.6,0-5.8-1.6-5.8-5.2
			v-10.4h-4.2v-2.7h4.2v-4.1l3.5-1v5.2h4.9V146.6L952.4,146.6z"/>
		<path d="M959.3,139.9h-3.9v-3.7h3.9V139.9L959.3,139.9z M955.6,143.9h3.5v17.8h-3.5V143.9L955.6,143.9z"/>
		<path d="M962.5,152.8c0,5.1,3.9,9.3,9.6,9.3c5.6,0,9.5-4.2,9.5-9.3c0-5.4-3.8-9.3-9.5-9.3C966.3,143.5,962.5,147.4,962.5,152.8
			L962.5,152.8z M966.1,152.8c0-3.4,2.2-6.7,5.9-6.7c3.7,0,5.9,3.3,5.9,6.7c0,3.2-1.8,6.7-5.9,6.7
			C967.9,159.5,966.1,156,966.1,152.8L966.1,152.8z"/>
		<path d="M984.6,143.9h3.3v2.8h0.1c1-2,3.5-3.3,6.2-3.3c4.9,0,7,2.9,7,7.6v10.6h-3.5v-9.2c0-4.2-0.9-6.2-4-6.4c-4,0-5.7,3-5.7,7.3
			v8.2h-3.5V143.9L984.6,143.9z"/>
		<path d="M172.6,121.3h17v-4h-17V121.3L172.6,121.3z M172.6,115.3h17v-3.7h-17V115.3L172.6,115.3z M170.1,125.5
			c0.2-1,0.2-2,0.2-3.8v-8.2c0-2.1-0.1-2.8-0.1-4c1.2,0.1,2.2,0.2,4,0.2H188c1.8,0,2.7,0,4-0.2c-0.1,1.2-0.1,1.9-0.1,4v8.2
			c0,1.8,0.1,2.8,0.2,3.8h-2.5v-2.2h-16.9v2.2H170.1L170.1,125.5z M179.7,95.8c-4.4,0.4-6.5,0.5-11.1,0.5c-0.3-0.9-0.5-1.5-1-2.2
			c1.6,0,2.5,0,3.1,0c6.2,0,13-0.6,18.4-1.7c1.5-0.3,2.4-0.6,3-0.8l1.7,2.2c-0.7,0.1-0.7,0.1-1.5,0.2c-2.5,0.5-8.2,1.3-10.4,1.5v4
			h10.8c1.9,0,3.2-0.1,4.1-0.2v2.5c-1.1-0.1-2.4-0.2-4.2-0.2H184c3.1,3,8.7,5.9,14,7.3c-0.6,0.8-0.9,1.3-1.3,2.3c-3-1-5.4-2.1-8-3.6
			c-2.9-1.7-4.7-3.2-6.8-5.4c0.1,1.1,0.2,1.7,0.2,2.2v1.6c0,1.2,0,1.9,0.2,2.6h-2.6c0.1-0.7,0.2-1.5,0.2-2.7v-1.5
			c0-0.6,0.1-1.3,0.2-2.2c-1.8,2.1-3.4,3.6-6.1,5.3c-2.5,1.6-4.9,2.8-7.9,3.9c-0.5-1-0.5-1-1.4-2.1c5.3-1.6,10.3-4.5,13.2-7.6h-8.6
			c-1.7,0-2.9,0.1-4,0.2v-2.5c1.1,0.1,2.3,0.2,4.1,0.2h10.6V95.8L179.7,95.8z"/>
		<path d="M277.1,103.2v-4.8h-6.7v4.8H277.1L277.1,103.2z M277.9,115.4V111h-2.7v0h-7v4.5H277.9L277.9,115.4z M277,109
			c1,0,2.1,0,2.8-0.1c-1.1-1-1.8-2-3.1-3.7h-6.2c-1,1.8-1.6,2.7-2.6,3.9c0.5,0,0.9,0,1.8,0H277L277,109z M268.2,121.4
			c0,0.5,0.2,0.7,0.8,0.9c0.7,0.1,2.5,0.2,5.2,0.2c4.6,0,6.2-0.1,6.9-0.5c0.6-0.4,0.8-1.3,0.9-4.6c0.9,0.5,1.4,0.7,2.4,0.9
			c-0.2,3-0.5,4.2-1.1,5c-0.6,0.7-1.4,1-3.1,1.2c-1.2,0.1-3.6,0.2-5.7,0.2c-3.4,0-5.8-0.1-6.7-0.4c-1.2-0.3-1.7-0.9-1.7-2.5v-10
			c0-0.4,0-0.6,0-0.9c-1.1,1-2.4,1.9-4.5,3.1c-0.5-0.8-0.9-1.2-1.6-1.9c2.7-1.2,4.3-2.3,5.9-3.8c1-1,1.6-1.7,2.5-3.2h-3.3
			c-1.5,0-2.9,0.1-3.8,0.2V103c0.9,0.1,2.3,0.2,3.8,0.2h3.2v-4.8H266c-1.3,0-2.5,0.1-3.5,0.2v-2.4c1,0.1,2,0.2,3.5,0.2h2.1V95
			c0-1.2-0.1-2.2-0.2-2.9h2.6c-0.2,0.7-0.2,1.7-0.2,2.9v1.4h6.7V95c0-1.2-0.1-2.2-0.2-2.9h2.6c-0.1,0.7-0.2,1.7-0.2,2.9v1.4h2.7
			c1.4,0,2.7-0.1,3.6-0.2v2.4c-1.1-0.1-2.3-0.2-3.5-0.2h-2.7v4.8h3.8c1.9,0,3-0.1,3.8-0.2v2.4c-1-0.1-2.3-0.2-3.8-0.2h-3.9
			c2.2,2.9,4.7,4.7,8.8,6.2c-0.6,0.7-0.8,1-1.3,2.2c-2.9-1.5-4.6-2.6-6.4-4.3c-0.1,0.8-0.1,1.6-0.1,2.8v2.7c0,1.2,0,2,0.1,2.8
			c-0.9-0.1-1.7-0.1-3.2-0.1h-8.8V121.4L268.2,121.4z M256.1,92.4c2.4,1.6,3.9,2.8,5.8,4.8l-1.5,1.9c-2-2.2-3.3-3.3-5.8-5
			L256.1,92.4L256.1,92.4z M260.5,113.9c-1.3,4-2.2,6.3-4.4,10.4c-0.2,0.3-0.2,0.4-0.3,0.6l-2.2-1.9c0.5-0.5,1-1.3,1.6-2.4
			c1.4-2.6,2.4-4.9,3.2-8.1L260.5,113.9L260.5,113.9z M254.4,101.3c2.4,1.5,3.9,2.6,6.2,4.5l-1.5,2c-2-2.1-3.6-3.3-6.1-4.9
			L254.4,101.3L254.4,101.3z"/>
		<path d="M360.3,103.3c1.3,4.8,3.2,8.6,6,12c2.7,3.1,5.8,5.4,10.1,7.2c-0.7,0.9-1,1.3-1.6,2.5c-8.3-4.4-13-9.8-15.6-18.3
			c-1,5.4-3.4,9.9-7.2,13.3c-2.3,2.1-4.4,3.4-8,5c-0.5-1-0.8-1.4-1.6-2.3c4.6-1.9,7.3-3.7,9.8-6.5c2.9-3.3,4.4-7.3,5.2-12.9h-10.1
			c-1.9,0-3,0.1-4.1,0.3v-2.9c1,0.2,2.2,0.3,4.2,0.3h10.2c0.1-1.8,0.2-2.9,0.2-4.4c0-1.7-0.1-3-0.3-4h3c-0.2,1.2-0.2,2-0.2,3.9
			c-0.1,1.9-0.1,3-0.2,4.6h11.2c1.9,0,3.1-0.1,4.1-0.3v2.9c-1.2-0.2-2.2-0.3-4.1-0.3H360.3L360.3,103.3z"/>
		<path d="M451.6,98.6c-1.4-1.1-1.8-1.4-2.9-2.3c-1.5,1-2.3,1.4-4.4,2.3c-0.5-0.7-0.7-1-1.2-1.5c1.9-0.7,2.5-0.9,4.1-1.8
			c-1-0.7-1.6-1-3.1-1.8l1.1-1.2c1.6,0.9,2.1,1.1,3.5,2c1.1-0.8,1.5-1.2,2.6-2.4l1.5,1.2c-1.3,1.1-1.7,1.5-2.7,2.2
			c1.1,0.8,1.4,0.9,2.7,1.8L451.6,98.6L451.6,98.6z M451.8,105.3c-1.4-1.1-1.8-1.4-3-2.3c-1.7,1-2.5,1.4-4.6,2.3
			c-0.4-0.7-0.6-0.9-1.2-1.5c2-0.6,2.8-1,4.2-1.8c-0.9-0.6-1.5-0.9-2.9-1.6l1.2-1.2c1.5,0.8,2,1.1,3.2,1.8c1.2-0.8,1.6-1.1,2.7-2.3
			l1.5,1.2c-1.3,1.1-1.7,1.5-2.6,2.1c1.1,0.7,1.5,1,2.8,2L451.8,105.3L451.8,105.3z M449.5,122.7c0,2.2-0.9,2.8-3.9,2.8
			c-0.9,0-1.9,0-2.9-0.1c-0.1-0.8-0.2-1.4-0.6-2.2c1.7,0.2,2.8,0.3,3.6,0.3c1.3,0,1.5-0.2,1.5-1.1v-3.5h-10.8c-2,0-3.2,0.1-4.2,0.2
			v-2.4c1,0.1,2.1,0.2,4.2,0.2h10.8c0-0.8,0-1.4-0.1-2.1h1.3c2.4-0.7,3.9-1.3,6-2.4h-13.5c-1.7,0-2.7,0-3.5,0.2v-2.2
			c0.9,0.2,1.7,0.2,3.5,0.2h13.6c1.3,0,2.1,0,2.7-0.1l1.4,1.6c-0.5,0.3-0.8,0.4-2.7,1.5c-1.7,1-3.8,1.8-6.5,2.7v0.7h10.6
			c2.2,0,3.2-0.1,4.3-0.2v2.4c-1.1-0.2-2.2-0.2-4.3-0.2h-10.6V122.7L449.5,122.7z M434.9,96.3c-0.1-0.9-0.1-1.4-0.2-2.1
			c3.1-0.6,5.3-1.4,6.7-2.3l1.3,1.8c-0.1,0.1-0.1,0.1-0.8,0.3c-1.7,0.7-2.8,1-4.9,1.5l0.1,1.9h2.9c1.2,0,1.7,0,2.3-0.1v2
			c-0.6-0.1-1.3-0.1-2.3-0.1h-2.8l0.1,2.5h2.6c1.2,0,1.7,0,2.3-0.1v1.9c-0.6-0.1-1.2-0.1-2.3-0.1h-2.6l0.2,2.5h21.6l0.1-2.3h-2.7
			c-1,0-1.6,0-2.2,0.1v-1.9c0.5,0.1,1.1,0.1,2.2,0.1h2.8l0.1-2.5h-3c-0.9,0-1.7,0-2.2,0.1v-2c0.4,0.1,1.1,0.1,2.2,0.1h3.1l0.2-2.7
			h-3.3c-1.1,0-1.6,0-2.2,0.1v-2.1c0.6,0.1,1.2,0.2,2.3,0.2h3c1.1,0,1.8,0,2.5-0.1c-0.1,1-0.2,1.6-0.2,2.8l-0.6,10.2
			c1.4,0,2.1,0,3.1-0.2c-0.1,0.8-0.1,1.5-0.1,2.8v1.3c0,0.9,0,1.4,0.2,2.3H462v-4.3h-27.5v4.3h-2.4c0.1-0.9,0.2-1.6,0.2-2.4v-1.2
			c0-1.2,0-2-0.1-2.8c1,0.1,2,0.2,3.2,0.2L434.9,96.3L434.9,96.3z"/>
		<path d="M538.1,111.5c3,0,6-0.2,9.1-0.4c-0.6-0.5-0.8-0.6-1.7-1.2l1.4-1.1h-8.8V111.5L538.1,111.5z M538.1,107h9.8v-2.6h-9.8V107
			L538.1,107z M538.1,102.6h9.8v-2.4h-9.8V102.6L538.1,102.6z M533.1,124.5c-1.8-2-2.8-2.9-5.1-4.4l1.6-1.5c2.1,1.4,3.3,2.4,5.2,4.1
			L533.1,124.5L533.1,124.5z M527,104.4v2.6h9v-2.6H527L527,104.4z M527,100.2v2.4h9v-2.4H527L527,100.2z M543.3,113.2
			c-4.3,0.3-14.8,0.6-18.8,0.6c-0.6,0-1.7,0.1-2.1,0.1l-0.5-2.4c1.2,0.2,1.9,0.2,4.8,0.2c3.2,0,3.4,0,9.1-0.2v-2.7h-8.6
			c-1.2,0-1.9,0-2.7,0.1c0.1-0.8,0.1-1.2,0.1-2.3v-5.9c0-1.1,0-1.6-0.1-2.3c0.9,0.1,1.5,0.1,2.7,0.1h8.6v-2h-11.2
			c-1.5,0-2.4,0-3.4,0.1v-2.3c1,0.2,2.1,0.2,3.6,0.2h11c0-1-0.1-1.9-0.2-2.7h2.6c-0.2,0.8-0.2,1.7-0.2,2.7h11.8
			c1.4,0,2.5-0.1,3.7-0.2v2.3c-1-0.1-2-0.1-3.5-0.1h-12v2h9.3c1.3,0,2,0,2.8-0.1c-0.1,0.7-0.1,1.1-0.1,2.3v5.9c0,1.2,0,1.6,0.1,2.3
			c-0.8-0.1-1.5-0.1-2.8-0.1h-0.3c2.1,1.3,3.7,2.7,5.9,4.8l-1.6,1.6c-1-1.1-1.3-1.4-2.3-2.4c-1.8,0.2-3,0.2-3.5,0.2v3h4.8
			c1.5,0,2.4,0,3.3-0.2v2.4c-1-0.2-1.9-0.2-3.3-0.2h-4.8v4.4c0,2.1-0.8,2.7-3.8,2.7c-0.6,0-1.9,0-3-0.1c-0.1-1-0.3-1.6-0.7-2.4
			c1.6,0.3,2.8,0.4,3.9,0.4c1,0,1.3-0.2,1.3-0.9V118h-19.1c-1.3,0-2,0-3.1,0.2v-2.4c0.9,0.2,1.6,0.2,3.1,0.2h19V113.2L543.3,113.2z"
			/>
		<path d="M629.6,104.1c0.8-1.4,1.3-2.4,1.9-4.2h-10.3c0.9,1.8,1.2,2.4,1.7,4.2H629.6L629.6,104.1z M615.3,106.1c-1.8,0-2.8,0-4,0.2
			v-2.3c1,0.1,2,0.2,4,0.2h5.4c-0.5-1.5-1.1-2.7-2-4.2h-4.7c-1.9,0-3.1,0.1-4.2,0.2v-2.4c1.1,0.2,2.2,0.2,4.1,0.2h2.6
			c-0.8-1.3-1.6-2.4-3.1-3.9l2.1-1c1.7,2,2.3,3,3.3,4.9h3.1v-2.9c0-1.3-0.1-2.3-0.2-3.1h2.5c-0.1,0.7-0.2,1.6-0.2,3.1V98h3.9v-2.9
			c0-1.4-0.1-2.4-0.2-3.1h2.5c-0.1,0.8-0.2,1.8-0.2,3.1V98h3.6c1.6-2.3,2.2-3.3,2.9-5.1l2.3,1c-1.1,1.9-1.4,2.4-2.8,4.2h2.2
			c1.9,0,3.1-0.1,4.2-0.2v2.4c-1.1-0.1-2.3-0.2-4.2-0.2H634c-0.9,2-1.3,3-2,4.2h5.3c1.9,0,2.9,0,4-0.2v2.3c-1.2-0.1-2.2-0.2-4-0.2
			h-10.1v2.7h7.8c1.9,0,3,0,4-0.2v2.3c-1.1-0.1-2.2-0.2-4-0.2h-7.8v2.9h11.2c2.1,0,3.2-0.1,4.2-0.2v2.4c-1.3-0.2-2.6-0.2-4.2-0.2
			h-9.7c3.2,3,8.4,5.3,14.7,6.4c-0.6,0.8-1,1.3-1.4,2.3c-4.8-1.5-6.5-2.1-9.1-3.5c-2.2-1.2-4-2.6-5.9-4.5c0.1,1.7,0.1,2.3,0.1,3.1
			v2.5c0,1.6,0.1,2.7,0.2,3.8h-2.7c0.2-1.2,0.2-2.3,0.2-3.9v-2.4c0-0.9,0-1.7,0.1-3.1c-3.6,3.8-7.2,5.8-13.9,8
			c-0.5-1-0.8-1.5-1.5-2.2c6.1-1.4,10.1-3.3,13.8-6.6h-9.1c-1.7,0-2.9,0.1-4.2,0.2v-2.4c1,0.2,2.1,0.2,4.2,0.2H625v-2.9h-7.3
			c-1.8,0-2.9,0-4,0.2v-2.3c1,0.1,2.2,0.2,4,0.2h7.3v-2.7H615.3L615.3,106.1z"/>
		<path d="M713.5,111.7v4.7h7.1v-4.7H713.5L713.5,111.7z M720.5,105.6h-7.1v4.2h7.1V105.6L720.5,105.6z M720.5,99.6h-7.1v4.1h7.1
			V99.6L720.5,99.6z M722.7,116.4h5.4c1.9,0,2.8-0.1,3.6-0.2v2.4c-1-0.1-2.2-0.2-3.6-0.2h-14c-1.2,0-1.9,0-3,0.2
			c0.2-1.1,0.2-2.1,0.2-3.8V105c0-1.1,0.1-2.3,0.1-3.3c-1.1,1.6-2.1,2.8-3.3,4c-0.6-0.9-0.7-1-1.6-1.6c2.6-2.4,3.8-3.8,5.2-6.3
			c1.4-2.2,2.3-4.5,2.5-5.9l2.4,0.6c-0.2,0.4-0.2,0.4-0.8,1.9c-0.3,0.9-1,2.3-1.6,3.3h6.3c1.2-2,2.1-3.9,2.5-5.5l2.4,0.6
			c-0.2,0.3-0.4,0.6-1.1,2c-0.5,1-1,2-1.6,2.9h5c1.6,0,2.6,0,3.5-0.2v2.3c-1-0.1-1.9-0.1-3.3-0.1h-5.2v4.1h3.8c1.9,0,2.8,0,3.6-0.1
			v2.2c-1-0.1-1.9-0.2-3.6-0.2h-3.8v4.2h3.8c1.9,0,2.8,0,3.6-0.1v2.2c-1-0.1-1.9-0.2-3.6-0.2h-3.8V116.4L722.7,116.4z M701.5,92.7
			c2.4,2.3,4.1,4.1,6,6.6l-1.9,1.7c-2.1-3-3.2-4.3-5.8-6.7L701.5,92.7L701.5,92.7z M698.9,106.4c0.9,0.1,1.5,0.2,2.9,0.2h1.9
			c1.1,0,1.9-0.1,2.8-0.2c-0.2,1.1-0.2,2.1-0.2,3.9v7.2c0.9,1.9,1.6,2.8,3.3,3.5c1.9,0.8,4.1,1.1,8.5,1.1c6.7,0,11.2-0.2,14.8-0.8
			c-0.5,1.2-0.7,1.6-0.9,2.8c-3.5,0.2-8.2,0.2-12.1,0.2c-6.6,0-8.8-0.2-11-1.3c-1.5-0.7-2.7-1.8-3.9-3.5c-1.7,1.7-2.5,2.4-4.5,4
			c-0.4,0.2-0.6,0.5-1.4,1.1l-1.2-2.4c1.6-0.7,3.8-2.4,5.9-4.5v-8.9h-2.5c-1.2,0-1.8,0-2.7,0.2V106.4L698.9,106.4z"/>
		<path d="M806.3,97.3c1.2,2.1,2.2,3.4,4.3,5c2.1-1.6,3.2-2.9,4.3-5H806.3L806.3,97.3z M816.6,112.1c-2.5,1.9-3.4,2.6-5.2,3.6
			c-2.7,1.5-5.4,2.5-9.5,3.6c-0.4-1-0.7-1.5-1.3-2c3.7-0.7,6.8-1.7,9.6-3.3c2-1.1,3.5-2.3,4.3-3.3L816.6,112.1L816.6,112.1z
			 M812.9,108.9c-0.4,0.3-0.4,0.3-1.2,0.9c-1,0.7-3.3,1.9-5.1,2.6c-1.6,0.7-2.8,1-5,1.6c-0.4-0.8-0.6-1.2-1.3-2
			c4.8-0.9,8.8-2.6,10.7-4.6L812.9,108.9L812.9,108.9z M820.8,115.6c-0.5,0.4-0.7,0.6-1.5,1.2c-2.3,1.9-5.2,3.8-8.2,5.2
			c-2.8,1.3-5.8,2.3-10.3,3.3c-0.4-0.9-0.7-1.5-1.2-2.1c5.8-1,10.3-2.6,14.2-5c2.5-1.5,3.9-2.7,4.9-4L820.8,115.6L820.8,115.6z
			 M820.9,97.5c-1.2-0.1-2.1-0.2-3.6-0.2c-1.5,2.7-2.7,4.3-5,6.2c2.9,1.7,5.7,2.7,9.9,3.5c-0.5,0.7-0.8,1.3-1.1,2.2
			c-4.9-1.3-7.5-2.4-10.5-4.5c-3,2-5.4,3.1-9.6,4.3c-0.4-0.9-0.7-1.3-1.2-1.9c3.9-0.9,6.3-1.9,9.1-3.6c-1.8-1.6-2.8-2.8-3.9-4.9
			c-1.4,1.9-2.1,2.8-3.8,4.3c-0.2-0.5-0.8-0.9-1.7-1.4c2-1.7,3.2-3,4.5-5c1.1-1.7,1.7-3.2,2.3-5.1l2.4,0.6c-0.8,1.5-0.9,1.7-1.6,3.1
			h10.1c1.9,0,2.9-0.1,3.8-0.2V97.5L820.9,97.5z M799.1,98.2c-0.1,1-0.2,1.7-0.2,3.2V116c0,1.9,0,2.7,0.2,3.8h-2.6
			c0.1-1.2,0.2-2,0.2-3.8v-14.6c0-1.5-0.1-2.2-0.2-3.2H799.1L799.1,98.2z M791.4,109.4c0-1.9,0.1-3.7,0.1-5.5
			c-0.9,2.1-1.7,3.5-3.4,5.5c-0.6-0.9-1-1.5-1.5-2c3.8-4.2,7-10.7,7.8-15.7l2.5,0.7c-0.2,0.5-0.3,0.7-0.6,1.5
			c-0.7,2.3-1.4,4.1-2.7,6.7v20.2c0,2.2,0,3.3,0.2,4.6h-2.6c0.1-1.3,0.2-2.5,0.2-4.6V109.4L791.4,109.4z"/>
		<path d="M896.9,98.6c-1.3-1.1-1.7-1.4-2.9-2.3c-1.5,1-2.4,1.4-4.4,2.3c-0.5-0.7-0.7-1-1.2-1.5c1.9-0.7,2.5-0.9,4-1.8
			c-1-0.7-1.6-1-3.1-1.8l1.2-1.2c1.6,0.9,2.1,1.1,3.5,2c1.1-0.8,1.5-1.2,2.6-2.4l1.5,1.2c-1.3,1.1-1.7,1.5-2.7,2.2
			c1.1,0.8,1.4,0.9,2.7,1.8L896.9,98.6L896.9,98.6z M897,105.3c-1.4-1.1-1.9-1.4-3-2.3c-1.7,1-2.5,1.4-4.6,2.3
			c-0.4-0.7-0.6-0.9-1.2-1.5c2-0.6,2.8-1,4.2-1.8c-0.9-0.6-1.4-0.9-2.9-1.6l1.2-1.2c1.5,0.8,2,1.1,3.2,1.8c1.1-0.8,1.6-1.1,2.6-2.3
			l1.5,1.2c-1.3,1.1-1.8,1.5-2.6,2.1c1.1,0.7,1.5,1,2.8,2L897,105.3L897,105.3z M894.7,122.7c0,2.2-0.8,2.8-3.9,2.8
			c-0.9,0-1.9,0-2.9-0.1c-0.1-0.8-0.3-1.4-0.6-2.2c1.7,0.2,2.8,0.3,3.7,0.3c1.3,0,1.5-0.2,1.5-1.1v-3.5h-10.8
			c-2.1,0-3.1,0.1-4.2,0.2v-2.4c1.1,0.1,2.1,0.2,4.2,0.2h10.8c0-0.8,0-1.4-0.1-2.1h1.4c2.4-0.7,3.9-1.3,6-2.4h-13.4
			c-1.8,0-2.7,0-3.5,0.2v-2.2c0.9,0.2,1.7,0.2,3.4,0.2h13.6c1.3,0,2.1,0,2.6-0.1l1.5,1.6c-0.5,0.3-0.8,0.4-2.8,1.5
			c-1.7,1-3.8,1.8-6.5,2.7v0.7h10.7c2.1,0,3.2-0.1,4.2-0.2v2.4c-1.1-0.2-2.2-0.2-4.3-0.2h-10.6V122.7L894.7,122.7z M880.2,96.3
			c0-0.9-0.1-1.4-0.2-2.1c3.2-0.6,5.3-1.4,6.7-2.3l1.3,1.8c-0.1,0.1-0.1,0.1-0.8,0.3c-1.7,0.7-2.8,1-4.9,1.5l0.1,1.9h2.9
			c1.2,0,1.7,0,2.3-0.1v2c-0.5-0.1-1.4-0.1-2.3-0.1h-2.8l0.2,2.5h2.6c1.2,0,1.7,0,2.3-0.1v1.9c-0.7-0.1-1.3-0.1-2.3-0.1h-2.6
			l0.1,2.5h21.6l0.1-2.3h-2.7c-1,0-1.6,0-2.3,0.1v-1.9c0.5,0.1,1.2,0.1,2.3,0.1h2.8l0.2-2.5h-3c-1,0-1.7,0-2.3,0.1v-2
			c0.5,0.1,1.2,0.1,2.3,0.1h3l0.2-2.7h-3.3c-1.1,0-1.6,0-2.2,0.1v-2.1c0.6,0.1,1.2,0.2,2.3,0.2h3c1.1,0,1.8,0,2.5-0.1
			c-0.1,1-0.2,1.6-0.2,2.8l-0.6,10.2c1.4,0,2.1,0,3.1-0.2c-0.1,0.8-0.1,1.5-0.1,2.8v1.3c0,0.9,0,1.4,0.2,2.3h-2.4v-4.3h-27.5v4.3
			h-2.4c0.1-0.9,0.2-1.6,0.2-2.4v-1.2c0-1.2-0.1-2-0.2-2.8c1.1,0.1,2.1,0.2,3.3,0.2L880.2,96.3L880.2,96.3z"/>
		<path d="M981.2,101.9c0.9,0.1,1.5,0.1,2.8,0.1h8.5c1.3,0,1.9,0,2.8-0.1v2.3c-1-0.1-1.7-0.2-2.8-0.2H984c-1.1,0-1.9,0-2.8,0.2
			V101.9L981.2,101.9z M986.6,94.6c0-1.1-0.1-2-0.2-2.8h2.8c-0.1,0.7-0.2,1.5-0.2,2.8V96h6.3c1.3,0,2.6-0.1,3.6-0.2
			c-0.1,0.8-0.1,1.1-0.1,2.4v2.4c0,1.1,0,1.7,0.2,2.5h-2.4v-5.1h-16.4v5h-2.3c0.1-1,0.1-1.3,0.1-2.5v-2.4c0-1.1,0-1.3-0.1-2.3
			c1.3,0.1,2.4,0.2,3.9,0.2h4.9V94.6L986.6,94.6z M981.5,110c-1.4,0-2.3,0-3.4,0.2v-2.5c1,0.2,2,0.2,3.4,0.2h14
			c1.5,0,2.6-0.1,3.5-0.2v2.5c-1.1-0.1-2.1-0.2-3.5-0.2h-3.7v11.7c0,0.8,0.4,0.9,2.7,0.9c2.6,0,2.6,0,2.9-5.8
			c0.9,0.6,1.2,0.7,2.2,0.9c-0.6,6.5-1,7.1-5.2,7.1c-1.7,0-2.7-0.1-3.4-0.3c-1.2-0.3-1.5-0.8-1.5-2.1V110h-3.9
			c-0.3,5.2-1,7.6-2.7,10.1c-1.6,2.2-3.9,3.7-7.9,5.3c-0.5-0.8-1.1-1.4-1.6-2c4.7-1.6,6.7-2.9,8.2-5.4c1.2-1.9,1.6-3.8,1.8-8H981.5
			L981.5,110z M967.2,95.8c0-1-0.1-1.9-0.1-2.8c0.6,0.1,1.4,0.1,2.5,0.1h5.1c1.2,0,1.7,0,2.2-0.1l1.1,1.3c-0.1,0.2-0.3,0.7-0.5,1.2
			c-1.4,3.5-2.4,5.8-3.8,8.5c1.8,2.2,2.5,3.2,3.1,4.8c0.5,1.4,0.8,2.9,0.8,4.5c0,2.1-0.6,3.2-2,3.6c-0.7,0.2-1.7,0.3-2.9,0.3
			c-0.3,0-0.6,0-1.3,0c-0.1-1-0.3-1.6-0.6-2.4c0.9,0.2,1.6,0.3,2.4,0.3c1.7,0,2.1-0.3,2.1-2c0-1.7-0.4-3.4-1.3-5
			c-0.5-1-1.3-2-2.8-3.7c1.8-3.3,2.9-5.8,4.1-9.1h-5.8v26.8c0,1.5,0.1,2.4,0.2,3.4H967c0.1-1,0.2-2.1,0.2-3.4V95.8L967.2,95.8z"/>
		<g>
			<path class="st0" d="M1009.1,1.2l-4.5,13.5h-45.2c-6.2,0-12,1.8-17.4,5.2c-5.4,3.4-9.5,7.9-12.4,13.4l68.8,0.1l-4.5,13.5
				l-68.5-0.1c-0.2,6,1.5,10.6,5,13.8c3.2,3.1,7.6,4.7,13.1,4.7l44.3,0.1l-4.5,13.4h-48.1c-10.6,0-19.6-2.1-26.8-6.2
				c-8.7-4.9-13-11.9-13-20.9c0-3.3,0.7-6.9,1.9-10.7c5.4-16.4,17.6-27.9,36.7-34.5c9.9-3.5,19-5.2,27.5-5.2L1009.1,1.2L1009.1,1.2z
				"/>
			<path class="st1" d="M357.7,2c0.6-0.4,1.5-0.7,2-0.7l25.5,0c0.6,0,0.6,0.3,0,0.6l-54.5,34.3c-0.6,0.4-0.8,1-0.5,1.3L360,77.8
				c0.3,0.4,0.1,0.7-0.5,0.7l-26.7,0c-0.6,0-1.2-0.3-1.5-0.7l-23-33.3c-0.3-0.4-0.5-0.7-0.6-0.7c-0.1,0-0.3,0.5-0.5,1l-11.9,32.6
				c-0.2,0.6-0.8,1-1.4,1l-23.2,0c-0.6,0-0.9-0.4-0.7-1l27.4-75.1c0.2-0.6,0.8-1,1.4-1l23.2,0c0.5,0,0.9,0.5,0.6,1l-11.1,30.5
				c-0.2,0.6-0.3,1-0.2,1c0.1,0,0.6-0.3,1.1-0.7L357.7,2L357.7,2z"/>
			<path class="st0" d="M594.5,1.2l-4.4,13.7l-50.4-0.1c-3.5,0-6.9,0.4-10,1.2c-6.1,1.5-9.7,4-10.9,7.6c-0.3,0.7-0.4,1.4-0.4,2.1
				c0,2.8,2.1,4.9,6.2,6.2c2.9,0.9,6.2,1.4,9.9,1.4l13.5,0c7.5,0,14.3,1.1,20.2,3.2c8.4,2.9,12.6,7.4,12.6,13.5c0,1.6-0.3,3.2-0.7,5
				c-3.1,9.2-12,15.8-26.6,19.9c-7.4,2.2-14.5,3.8-21.1,4h-60.1l4.5-14l51.3,0.1c3.5,0,6.8-0.4,10.1-1.2c6-1.5,9.6-4,10.8-7.6
				c0.3-0.7,0.4-1.4,0.4-2.1c0-2.8-2.1-4.9-6.3-6.2c-2.9-0.9-6.1-1.4-9.6-1.4l-14.1,0c-7.4,0-14.1-1.1-20.1-3.2
				c-8.5-3-12.6-7.5-12.6-13.4c0-1.6,0.2-3.2,0.8-5c3-9.2,11.8-15.9,26.3-20c7.5-2.1,14.6-3.5,21.4-3.7H594.5L594.5,1.2z"/>
			<path class="st0" d="M618.3,41.8l25.7,0c2.9,0,6.2-0.6,9.8-1.8c6.5-2.2,10.6-5.9,12.3-11.2c0.6-1.4,0.9-2.7,0.9-4
				c0-3.4-1.6-5.9-4.9-7.7c-2.7-1.6-6.1-2.4-10-2.4l-24.8,0L618.3,41.8L618.3,41.8z M606.2,78.8h-28.1l25.4-77.6h58.8
				c8.5,0,16.1,1.5,22.8,4.1c8.9,3.5,13.4,8.8,13.4,15.8c0,2.1-0.4,4.1-1.1,6.3c-3.7,11.4-13.6,19.4-30,24.2
				c-8.7,2.5-16.5,3.8-23.5,3.8l-29.8,0L606.2,78.8L606.2,78.8z"/>
			<path class="st0" d="M911.4,1.2L907,14.6h-45.2c-4,0-8.4,1.1-13.3,3.2c-9.3,4.2-15.7,11.4-19,21.6c-1,3.2-1.5,6.2-1.6,9.1
				c0,5,1.5,9,4.6,12.1c3.1,3,7.5,4.6,13.3,4.6l44.3,0l-4.5,13.5h-48.1c-10.6,0-19.5-2.2-26.8-6.3c-8.6-4.9-13-11.9-13-20.9
				c0-3.3,0.6-6.9,1.9-10.7c5.4-16.4,17.6-27.8,36.7-34.5c9.8-3.5,19-5.1,27.5-5.1H911.4L911.4,1.2z"/>
			<path class="st0" d="M757.6,1.2c-8.3,0-17.3,1.2-26.9,4.7C712.1,12.5,700.2,24,695,40.4l-12.3,38.4h27.4l7.3-23.2l4.3-13.5
				c2.7-8.5,7-15.2,12.9-20.2c5.9-5,12.8-7.5,20.7-7.5l20.6,0L769,34.5c-48.8,4-58.9,44.3-58.9,44.3c22.2-28.7,53.4-26,53.4-26
				l-8,26h27.5l24.9-77.6C807.7,1.2,757.9,1.2,757.6,1.2L757.6,1.2z"/>
			<path class="st1" d="M485.5,1.1l-21.6,0c-0.6,0-1.2,0.5-1.4,1l-1,2.8L448.9,40l-1.4,4c-3.4,9.4-6.3,18.9-28.2,18.9
				c-21.9,0-20.9-9.6-17.4-18.9l1.4-4l12.7-34.7l1-2.8c0.2-0.6-0.1-1-0.6-1l-21.6,0c-0.5,0-1.2,0.5-1.4,1l-1,2.8l-12.7,34.7
				l-2.5,6.9c-6.8,18.5-0.6,32.5,34.8,32.6c35.4,0,51.3-13.9,58.1-32.5l2.5-6.9l12.7-35.1l1.1-2.8C486.4,1.6,486.1,1.1,485.5,1.1
				L485.5,1.1z"/>
			<path class="st1" d="M283.7,1.2l-23.7,0c-0.5,0-1.2,0.5-1.4,1L250,25.7c-30.4,2.9-46.2,21.6-53.4,33.8l4.2-11.5l16.7-45.8
				c0.2-0.6-0.1-1-0.6-1l-23.7,0c-0.6,0-1.2,0.4-1.4,1l-27.4,75.1c-0.3,0.6,0.1,1,0.6,1l23.7,0c0.6,0,1.2-0.4,1.4-1l3.6-9.7
				c17.3-20,39-23.4,49.7-23.7l-12.2,33.4c-0.2,0.6,0.1,1,0.7,1l23.7,0c0.6,0,1.2-0.4,1.4-1l27.4-75.1
				C284.5,1.7,284.3,1.2,283.7,1.2L283.7,1.2z"/>
		</g>
		<path class="st2" d="M27.6,131.4c0,0,5.3-3.9,5.8-6.3c0.5-2.4-3.2-10.8-7.5-14.7c-4.3-3.9-12.3-4.1-14.2,0
			c-1.9,4.1-2.2,6.2-6.7,10.8c-4.4,4.6-6.1,5.1-3.2,9.2c2.9,4,19.6,20.7,41,27.2c4.1,1.2,13.8,4.8,29.1,4.8
			c15.3,0,36.2-4.2,55.7-18.7c2.7-2.1,15.5-12.2,16-16.7c0.4-3.6-4.1-6.3-6.8-11.1c-2.7-4.7-3.4-12.6-14.5-8.4
			c-0.9,0.3-3,1.5-4.1,3.3c-1.1,1.8-4,5.8-6.2,8.1c-2.1,2.3-1.8,5.1-0.2,7c0.9,1.1,5.5,4.8,5.5,4.8c-13.8,9.1-24.9,14.6-45.2,15
			C70.2,145.7,49,146.9,27.6,131.4L27.6,131.4z"/>
		<path class="st3" d="M13.4,72.6c0,0-0.2,28.4,21.5,50.2c17.7,17.7,37.1,21,37.1,21V48H13.4V72.6L13.4,72.6z"/>
		<path class="st4" d="M130.7,72.6c0,0,0.3,28.4-21.5,50.2c-17.6,17.7-37.1,21-37.1,21V48h58.6V72.6L130.7,72.6z"/>
		<polygon class="st5" points="130.7,48 13.4,48 13.4,0.7 130.7,0.7 130.7,48 		"/>
		<path class="st6" d="M112.3,113.8h-32c0,0-0.7,7.3-7.9,7.1c-8-0.2-7.9-7.1-7.9-7.1H33.1V56.6h79.2V113.8L112.3,113.8z"/>
		<path class="st2" d="M42.5,54c0,0,3.2,2.4,7.7,1.7c4.5-0.7,13.2-5.2,18.1-2.6c5,2.6,4.2,1.9,4.2,1.9s5.2-5.3,13.2-3.3
			c8,2,7.9,4.3,12,3.8c4.2-0.5,5-1.8,5-1.8v49.4c0,0-2.9,3.2-9.3,1.9c-6.3-1.3-11.1-6-21.1,0.6c0,0-5.6-4-11.5-3c-6,1-12,5.7-19,1.9
			L42,55L42.5,54L42.5,54z"/>
		<path class="st7" d="M112.5,38.8c1.4,0,2.3,0.4,3.1,1l-0.1,0.2c-0.9,0.3-1.6,1.2-2.3,1.1c-0.6-0.2-0.5-0.3-0.9-0.6
			C112.2,39.8,112.3,39.3,112.5,38.8L112.5,38.8z"/>
		<path class="st7" d="M22.7,33.3c1.9,0.3,3.4,2.6,4.3,3.9v0.1h-0.6c-1.9-0.6-3.7-0.6-4.4-2.5C22.2,34.1,22.4,33.8,22.7,33.3
			L22.7,33.3z"/>
		<path class="st7" d="M41.7,12.3L41,12.2c-0.3,1.1,0.5,2.3,1.5,2.7c0.3,0,0.6,0.1,0.9,0.1c0.2-0.4,0.5-0.7,0.7-1.1
			c0.1-0.2,0.1-0.4-0.5-0.3C43.7,13.5,42.9,12.7,41.7,12.3L41.7,12.3z"/>
		<polygon class="st8" points="72.6,105.6 71.8,105.6 71.8,55 72.6,55 72.6,105.6 		"/>
		<path class="st9" d="M12.9,0v67.7c0,29.7,14,48.6,25.7,59.1c13.9,12.6,31.1,17.8,33.5,17.8c2.9,0,17.3-5.3,26.1-11.6
			c15.9-11.4,32.7-32.3,33.2-65.2V0H12.9L12.9,0z M130.3,67.6c0,27.9-14.1,48.8-28.6,60.7C90,138,77.3,142.2,73.1,142.9L73,121.3
			c-0.5,0-0.9-0.1-1.3-0.2l0,21.7c-11.1-0.8-57.6-21.6-57.6-75.2c0,0,0-17.9,0-19.1h57.5v7.1c0.3,0.6,0.8,0.7,1.3,0.3v-7.4h57.4
			C130.3,49.8,130.3,67.6,130.3,67.6L130.3,67.6z M130.2,47.3h-116v-46h116V47.3L130.2,47.3z"/>
		<path class="st9" d="M15.3,109.7c-1.5,0.7-2.3,2.2-2.4,4.3c-0.4,7.9,13.6,20.1,31.2,27c9,3.6,18.2,5.3,27.9,5.3
			c10.3,0,21.9-2.6,28-5.2c16.3-6.9,32.9-19.5,32.4-28.7c-0.1-2-0.8-3.3-2.2-4c-3.3-1.6-9.1,1.5-10.1,2.1c-5.4,3.7-8.2,7.9-7.8,11.5
			c0.2,2,1.3,3.4,2.9,3.6c2.1,0.3,4.6-1.3,5.7-3.7c1.3-2.8,3.2-4.8,4.1-5.6c0.6,0.7,2.6,3,3,3.6c-2.4,3.2-6,6.6-10.5,9.8
			c-0.6-0.5-3.7-2.9-5-4.3c-1.5-1.6-1.6-3.9-0.4-6.4c-0.7,0.8-1.4,1.5-2,2.2c-0.3,1.9,0.2,3.6,1.5,5c1.2,1.3,3.9,3.4,4.9,4.2
			c-4.9,3.4-10.7,6.7-17,9.4c-6,2.5-17.3,5.1-27.5,5.1c-9.5,0-18.5-1.7-27.3-5.2c-5.9-2.3-11.4-5.3-16-8.4c1-0.9,3.4-3.1,4.6-4.3
			c1.1-1.1,1.4-2.7,1.3-4.4c-0.6-0.6-1.2-1.2-1.7-1.9c0.8,2.2,0.7,4.2-0.5,5.4c-1.2,1.3-3.9,3.7-4.7,4.5c-4-2.8-7.3-5.8-9.6-8.6
			c0.5-0.6,3.4-4.4,4.3-5.5c0.8,1.4,2.5,4.5,3.4,6.9c1,2.8,2.8,3.5,4.1,3.3c1.5-0.3,2.5-1.7,2.5-3.5c-0.1-3.2-2.2-8.1-8-12.1
			C23.3,110.7,18.4,108.1,15.3,109.7L15.3,109.7z M125.1,114.7l-0.5,0.4c-0.1,0.1-3.1,2.4-4.9,6.5c-0.8,1.8-2.8,3.2-4.4,2.9
			c-1.3-0.2-1.7-1.5-1.8-2.5c-0.4-3.1,2.3-6.9,7.2-10.3c1.1-0.8,6.3-3.3,8.8-2c0.9,0.5,1.4,1.4,1.5,2.9v0.3c0,1.8-0.8,3.9-2.3,6.1
			C128,118.1,125.1,114.7,125.1,114.7L125.1,114.7z M30.8,123.3c0,1.3-0.7,2-1.4,2.2c-0.8,0.1-2-0.4-2.7-2.4
			c-1.2-3.4-3.9-7.8-3.9-7.9l-0.5-0.8c0,0-4.4,5.6-5.2,6.7c-1.8-2.4-2.8-4.7-2.8-6.6v-0.3c0.1-1.7,0.7-2.8,1.7-3.3
			c2.3-1.1,6.6,0.8,7.5,1.4C28.7,116,30.7,120.4,30.8,123.3L30.8,123.3z M144.1,124.7c-0.4-1.3-1-2.1-2.2-3.4
			c-0.9-1.1-2.2-2.6-4-5.2c-1.4-1.9-2.1-3.6-2.8-5.1c-1.3-2.7-2.2-4.7-5.4-5.2c-3.8-0.6-7,0.7-9.7,2.7c-0.9,1.4-1.8,2.8-2.7,4.1
			c3.2-3.4,7.2-6.4,12.1-5.6c2.6,0.5,3.3,1.9,4.5,4.5c0.7,1.5,1.5,3.3,2.9,5.3c1.9,2.6,3.2,4.2,4.1,5.3c1.1,1.3,1.6,1.9,1.9,3
			c0.5,1.6,0.2,3.7-4.6,8.6c-13.1,13.1-29,21.9-47.2,26.1c-6.6,1.5-19,2-19.2,2c-0.1,0-12.5-0.5-19.1-2
			c-26.8-6.1-40.9-20.3-45.6-24.9L7,134.5c-4.4-4.4-6.1-6.2-5.6-8.1c0.3-0.9,0.9-1.5,2-2.5c1.3-1.2,3-2.8,5.2-5.9
			c1.4-2,2.3-3.8,3-5.3c1.2-2.6,2-4.2,4.5-4.6c4-0.7,6.7,0.7,9.1,2.8c-0.6-0.9-1.2-1.9-1.8-2.9c-2.1-1.2-4.5-1.8-7.5-1.2
			c-3.2,0.5-4.2,2.6-5.5,5.3c-0.7,1.5-1.5,3.2-2.8,5.1c-2.1,3-3.8,4.6-5,5.7c-1.2,1.1-2,1.9-2.3,3.1c-0.8,2.7,1.4,4.9,5.9,9.4
			l0.2,0.2c4.7,4.7,19.1,19.1,46.2,25.3c6.7,1.5,18.9,2,19.4,2.1c0.6,0,12.7-0.5,19.4-2.1c18.4-4.2,34.5-13.1,47.9-26.4
			C143.5,130.2,144.9,127.4,144.1,124.7L144.1,124.7z"/>
		<path d="M14.6,127.2l2.1-1.1c0,0,0.5-0.2-0.9-0.2c-0.2-1.4-1.2-2.9-3.8-2.6c-2.6,0.3-1.6,3.1-1.5,4.2c0.1,1.1,0.1,4.3-1.8,4.2
			c-1.8-0.1-1.6-3.3-1.5-4.1c-0.8,0.4-2.3,1.4-2.5,1.5l0.3,0.1c0.3,0,0.8-0.1,0.8,0.1c0,0.1,1,3.1,3,2.9c2-0.1,3.2-1.1,3.2-3.6
			c-0.1-2.4-0.9-4.6,0.6-4.9C14.2,123.5,15,125.8,14.6,127.2L14.6,127.2z"/>
		<path d="M20,129l-1.1-0.8c0,0-7.3,4.9-8.1,5.4c-0.2,0.1-0.7,0.1-1,0l-0.2,0.1l1.8,1.6l0.2-0.1c-0.1-0.1-0.5-0.5-0.1-0.8
			c0.1-0.1,1.3-0.9,2.7-1.8l2.2,1.9l-1.4,3.3l-0.9-0.1l-0.1,0.2c0.6,0.5,1.9,1.7,2.1,1.8l0.1-0.2c-0.2-0.2-0.3-0.5,0.3-1.9
			C17,136.2,20,129,20,129L20,129z M14.7,132.1c1.8-1.2,3.6-2.4,3.6-2.4l-1.6,4L14.7,132.1L14.7,132.1z"/>
		<path d="M61.6,147.7l-1.1-0.1c0,0-4.3,8-4.7,8.8c-0.1,0.2-0.6,0.4-0.9,0.5c-0.3,0-0.2,0.2-0.1,0.2l2.4,0.5l0.1-0.2
			c-0.1-0.1-0.7-0.2-0.5-0.7c0.1-0.2,0.8-1.4,1.5-2.9l3.3,0.3l0.7,3.3c0,0.3-0.7,0.5-0.7,0.5c0,0-0.2,0.2,0.1,0.2
			c0.7,0.1,2.6,0.1,2.7,0.1v-0.2c-0.3,0-0.6,0.1-0.8-1.3C63.3,155.2,61.6,147.7,61.6,147.7L61.6,147.7z M58.7,153.2
			c0.9-1.9,2.1-3.9,2.1-3.9l0.8,4.1L58.7,153.2L58.7,153.2z"/>
		<path d="M16.7,139.9l1.8,1.3l0.1-0.2c-0.1-0.2-0.6-0.5,0.4-1.7c0.9-1.1,4.7-6.3,4.7-6.3s3.2,1.9,1.6,4.5c-1.3,2.2-4.1,0.7-4.9,0
			c-0.5-0.5-0.5,0.2-0.5,0.2s1.1,1,2,1.3c1,0.3,3.5,0.8,4.7-1.1c1.2-1.9-0.2-3.9-2.2-5.1c-2-1.1-2.1-1.3-2.1-1.3v0.3
			c0.3,0.2,0.4,0.5,0.1,0.9c-0.2,0.3-4.7,6.5-5,6.9C17.2,139.9,16.7,139.6,16.7,139.9L16.7,139.9z"/>
		<path d="M28.7,136c0,0,0.6,0.5,0,1.4c-0.6,0.9-4.3,6.6-4.3,6.6s-0.4,0.5-1.1,0.2l-0.1,0.2c0.5,0.3,1.6,1,2,1.3
			c0.3,0.2,0.1-0.2,0.1-0.2s-0.4-0.4,0-1c0.4-0.6,4.1-6.5,4.5-7c0.4-0.5,0.7-0.4,0.9-0.3l0.1-0.2l-2.3-1.4L28.7,136"/>
		<path d="M31.8,137.9c0,0,4.9,2.6,5.4,2.7l-0.9,1.8c-0.1,0.2-0.2-0.5-0.1-1.3c-1.3-0.8-3.2-1.7-3.2-1.7l-3.9,7.4
			c0,0,2.7,1.6,3.1,1.7c0.6,0.2,1.2-0.9,1.4-0.8l-0.9,1.8c-0.1,0.2-4.6-2.3-5.9-2.9c-0.3-0.1-0.2-0.3,0.4-0.2
			c0.6,0.1,0.6,0.1,1.1-0.6c0.5-0.8,3.6-6.5,3.7-6.8C32.1,138.7,31.3,137.7,31.8,137.9L31.8,137.9z"/>
		<path d="M30.7,143c0,0,1.6,0.8,2,1.1c0.4,0.2,0.8,0.1,1.1-0.3c0.2-0.4,0.3-0.2,0,0.4c-0.3,0.6-0.8,1.4-1,1.7
			c-0.2,0.4-0.4,0.3-0.2-0.3c0.2-0.5-0.2-0.8-1-1.2c-0.8-0.4-1.4-0.8-1.4-0.8L30.7,143L30.7,143z"/>
		<path d="M71.9,148.4c0,0,5.5-0.3,6-0.5l0.2,2c0,0.2-0.4-0.3-0.7-1.1c-1.4,0-3.6,0.2-3.6,0.2l-0.1,8.9c0,0,3.4-0.1,3.8-0.2
			c0.6-0.1,1.3-2,1.4-2.1l-0.4,2.9c0,0-5.6,0.2-7,0.3c-0.4,0-0.3-0.2,0.3-0.4c0.6-0.2,0.6-0.4,0.7-1.3c0.1-0.9,0.1-7.6,0.1-8
			C72.6,148.9,71.4,148.5,71.9,148.4L71.9,148.4z"/>
		<path d="M73.5,152.7c0,0,1.8-0.1,2.3-0.1c0.5,0,0.8-0.4,0.7-0.9c0-0.4,0.2-0.3,0.3,0.3c0,0.6,0,1.6,0,2c0,0.4-0.3,0.5-0.3-0.1
			c-0.1-0.6-0.6-0.5-1.5-0.5c-0.9,0.1-1.7,0-1.7,0L73.5,152.7L73.5,152.7z"/>
		<path d="M33.2,149.9c0,0,1.9,0.8,2.4,1c0.4,0.1,0.3-0.2-0.1-0.6c-0.1-0.1-0.1-0.5,0.2-1c0.3-0.5,2.5-5.2,2.5-5.2l1.3,8.5l1.6,0.5
			c0,0,2.9-7.6,3.2-8.3c0.3-0.7,0.7-0.6,1-0.5c0.4,0.1,0.4-0.2,0-0.4c-0.4-0.1-2.1-0.6-2.4-0.7c-0.4-0.1-0.3,0.2,0,0.4
			c0.3,0.1,0.4,0.4,0.2,0.8c-0.1,0.5-2.4,6.7-2.4,6.7l-1.4-9.1c0,0-1.3-0.8-1.5-0.9c-0.3-0.2-0.4,0.1-0.1,0.4c0.3,0.3,0.3,0.5,0.1,1
			c-0.2,0.5-3.5,6.8-3.6,7.1C34.1,149.8,33.1,149.5,33.2,149.9L33.2,149.9z"/>
		<path d="M46.5,144.5l-0.5,1.9c0.8-1,1.7-0.9,1.7-0.9s0.5,0.1,1.1,0.3c-0.4,1.3-2.2,7.4-2.4,8.1c-0.2,0.7-0.9,0.3-1,0.6
			c-0.1,0.1,0,0.2,0.3,0.2c0.4,0.1,1.6,0.5,1.9,0.6l0.4,0c0.1-0.4-0.6-0.4-0.4-1.1c0.1-0.3,2.1-7.1,2.4-8.1c0.6,0.2,1.2,0.4,1.5,0.5
			c0.4,0.1,0.8,0.7,0.8,1.6c0.2-0.8,0.6-1.9,0.6-1.9L46.5,144.5L46.5,144.5z"/>
		<path d="M79.7,148.2l0.2,2c0.4-1.2,1.2-1.4,1.2-1.4s1.3-0.1,1.9-0.2c0.1,1.3,0.8,7.7,0.9,8.4c0.1,0.8-0.8,0.7-0.7,1
			c0,0.1,0.1,0.2,0.4,0.1c0.4-0.1,1.8-0.2,2.1-0.3c0.3,0,0.3,0,0.3-0.1c0-0.4-0.8,0-0.9-0.7c0-0.3-0.8-7.4-0.9-8.5
			c0.6-0.1,1.5-0.3,2.2-0.4c0.4-0.1,0.9,0.2,1.3,1c-0.1-0.8-0.2-2-0.2-2L79.7,148.2L79.7,148.2z"/>
		<path d="M51.9,156.3l2.5,0.5c0,0,0.2-0.2-0.3-0.4c-0.1,0-0.3-0.3-0.1-0.8c0,0,1.4-7.4,1.5-7.9c0.1-0.5,0.4-0.5,0.6-0.5
			c0.3,0,0.5-0.3,0-0.5c-0.6-0.1-1.6-0.3-2.1-0.4c-0.4-0.1-0.5,0.2-0.3,0.3c0.3,0.1,0.6,0.4,0.6,0.8c-0.1,0.4-1.4,7.1-1.5,7.8
			c-0.1,0.5-0.4,0.7-0.7,0.6C51.8,156,51.7,156.3,51.9,156.3L51.9,156.3z"/>
		<path d="M68.2,153.5c0,0.4-0.4,0.8-0.8,0.8c-0.4,0-0.8-0.3-0.8-0.8c0-0.4,0.3-0.8,0.8-0.8C67.9,152.7,68.2,153,68.2,153.5
			L68.2,153.5z"/>
		<path d="M91.6,151.6c0,0.4-0.4,0.8-0.8,0.8c-0.4,0-0.8-0.3-0.8-0.8c0-0.4,0.4-0.8,0.8-0.8C91.3,150.8,91.6,151.2,91.6,151.6
			L91.6,151.6z"/>
		<path d="M92,146l3.1-0.7c0,0,0.4,0.1-0.2,0.3c-0.3,0.2-0.2,0.3-0.1,0.4l4.7,7.3l0.6-9c0,0-0.2-0.2-0.7,0l-0.1-0.2l1.8-0.9
			c0.2-0.1,0.5,0,0.1,0.3c-0.3,0.2-0.3,0.3-0.3,0.5l-0.9,10.1l-1.4,0.6l-5.4-8.4c0,0-0.4-0.1-0.8,0C91.9,146.4,91.8,146.1,92,146
			L92,146z"/>
		<path d="M102.5,143.2c0,0,3.3,7.6,3.4,7.9c0.1,0.3,0.1,0.6-0.2,0.8c-0.3,0.2-0.2,0.4,0,0.3c0.2-0.1,1.9-1,2.3-1.2
			c0.3-0.1,0.1-0.4-0.3-0.2c-0.4,0.2-0.6-0.2-0.7-0.7c-0.2-0.3-3.2-7.4-3.2-7.4c-0.1-0.2,0.1-0.4,0.4-0.7c0.2-0.2,0.2-0.5-0.1-0.3
			c-0.3,0.2-2.2,1.1-2.4,1.2c-0.2,0.1-0.1,0.3,0.3,0.2C102.2,143.1,102.4,143.2,102.5,143.2L102.5,143.2z"/>
		<path d="M118.6,145.7c-0.7,0.2-1.3-0.2-2.5-1.2c-1.2-1-2.6-1.8-3.2-1.5c0.2-0.4,0.7-1.7,0-2.9c-0.7-1.2-2.6-1.4-3.4-1
			c-0.8,0.4-4,2.3-4,2.3c-0.2,0.4,0.3,0.3,1,0.1l4.4,8.4c-0.4,0.3-0.5,0.6-0.5,0.6l2.4-1.2c0,0,0-0.2-0.7,0l-1.8-3.5
			c0.2-0.3,0.6-0.7,1.1-1.2c1.4-1.1,3.2,0.7,4.5,1.6c1.3,0.9,1.5,0.7,2,0.3C118.3,146.1,119.3,145.5,118.6,145.7L118.6,145.7z
			 M111.9,143.3c-0.5,0.6-1.5,1.5-2,1.9l-2.3-4.3c0.5-0.3,1-0.5,1.2-0.6c0.9-0.5,1.5-0.4,2.4-0.1
			C112.1,140.5,112.5,142.6,111.9,143.3L111.9,143.3z"/>
		<path d="M121.9,143.1l-4.6-7.4c0.5-0.3,1-0.7,1.4-0.9c1-0.7,2,0.4,2,0.4l-1.2-1.8l-6.2,4.2l1.1,1.6c0,0-0.5-1.2,0.3-1.6
			c0.3-0.2,0.8-0.6,1.4-1l4.7,7.3c-0.9,0.7-0.3,0.7-0.3,0.7l2.1-1.5C122.6,143.1,122.7,142.7,121.9,143.1L121.9,143.1z"/>
		<path d="M119.9,133l2.3-1.8c0,0-0.4,0.8,0.2,1.6c0.6,0.8,3.5,4.6,4.4,5.3c0.9,0.6,3.4-0.2,3-3.7c0.8,0.6,0.1,4-1.8,4.8
			c-1.7,0.8-2.5-0.4-3-1c-2.2-2.6-3-3.7-3.7-4.6C120.7,132.9,119.9,133,119.9,133L119.9,133z"/>
		<path d="M124.4,129.1l2.1-1.8c0,0-0.4,0.5,0.5,1.7c0.9,1.1,3.6,4.7,4.3,5.4c0.7,0.7,1.6,0.3,1.7-0.1c0.1-0.4,0.2-0.1,0.1,0.5
			c-0.2,0.6-0.7,1.8-2.1,0.9c-0.9-0.6-1.1-0.9-1.4-1.2c-0.3-0.3-3.6-4.6-4-5.1C125,128.8,124.4,129.1,124.4,129.1L124.4,129.1z"/>
		<path d="M132.5,124.4l-0.7-2.9c0,0-0.3,0.2-0.3,0.5c0,0.3,0,0.8-0.4,0.8c-0.3,0-1.4-0.1-2.5,2c-0.4,0.7-0.3,3.6,1.5,3.2
			c1.7-0.4,5.2-1.8,6.3,0.4c1.1,2.2-1.5,3.7-3.5,2.7c0,0,0.8,2.4,1,3l0.4-0.9c0.5-0.4,2.6-0.6,2.9-3.5c0.3-2.8-1.6-4-3-4.1
			c-1.9-0.1-4.7,1.8-5,0.4C129,124.9,131.3,123.7,132.5,124.4L132.5,124.4z"/>
		<path class="st7" d="M37.3,30.5c0.6,1,1.6,2.3,3.7,5l0.2,0.6c-2,0.4-3.4,0-5-0.6c-0.6,0.8-1.5,1.2-2.6,1.5c0-1.1,0-2.2,0-3.3
			l-0.1,0c-0.8,0.5-1.8,1.2-3.2,0.8c0.5-1.1,0.7-2.6,0.5-2.5h-0.1c-1.2,0.3-2.1,0.8-3.3,0.6c-0.4-0.1-0.2-0.2-0.1-0.4
			c0.3-0.7,0.6-1.5,0.8-2.2c-1.3,0.2-2.4,0.4-3.6-0.1c0.3-0.3,0.7-0.6,1-0.9c0.2-0.3,0.4-0.6,0.6-1l-0.2-0.3
			c-1.1,0.3-2.2-0.2-3.1-0.6c0.3-0.4,0.5-0.6,1-1c0.5-0.2,0.9-0.5,0.7-0.7l-0.3-0.3c-1.2-0.2-2.5-0.2-3.4-1l0.4-0.4
			c1.1-0.9,1.3-0.8,2.9-0.7c0,0,0.2,0,0-0.3c-0.7-1.1-0.4-3.5-0.5-3c-0.3,1.6-2.7,1.8-2.6,1.2c0.1-2.7-1-1.8-1.2-2.5
			c-0.1-0.5,0.2-1,1-1.4c1.6-1,2.6,0.9,2.3-0.1c-0.2-0.2-0.2-0.5-0.5-0.6c-1.3-0.2-2.4-0.8-2.7-1.5c-0.2-0.6-0.2-1.5,0.3-2.2
			l0.6-0.4c1.4-0.2,2.7,2.4,2.8,1.8c-0.7-2.1-1-4.4,0.9-5.2c0.4-0.1,1.1-0.1,1.7,0.4c0.9,1.1-0.1,3.9,0,6c0.1,2.3,1.4,5.1,2.4,6.9
			c0.9,1.3,1.9,2.6,3.2,3.8c1.2,0.9,3,2.1,4.2,2.3c0.2,0.4,0.5,1,0.6,1.5C36.7,30.1,36.9,30.2,37.3,30.5L37.3,30.5z"/>
		<path class="st7" d="M38.5,18.4c0.4,0.2,0.7,0.3,1,0.5c-1.1,2.4-2,4.9,1.1,7.1c0.6,0.4,1.3,0.7,1.9,0.8c0.4,0.7,2.3,1.2,2.8,0.5
			c0.6-0.1,1.3-0.3,2-0.4c2.1-0.9,3-2.8,3-5.2c1.4-0.1,1.8-0.7,2.5-1.3l0.2,0.4c0.6,1,0,2.7-0.5,3.4c-0.4-0.4-0.8-0.8-1.1-1.1h-0.1
			c0.3,1.1,1.1,2.3,0.6,3.6l-0.3-0.1c-0.2-0.6-0.4-0.9-1.1-1.1v0.1c0.8,1.3,1.6,3.7,0,4.9h-0.1c0-1.2-0.5-2.1-1.2-2.7l-0.2,0.3
			c0.3,0.8,1.3,2.8,0.7,3.8c-1-0.7-2.1-1.8-3.1-2.6l0.5,1c0.6,1,1.3,2.3-0.2,4.5c-0.8-2.4-4-4.2-4.6-5.6c-0.2,2.4,2.9,4.1,0.5,7.5
			l-0.2-0.1c-0.6-2.1-2.4-3.2-3.5-4.9c-0.7-1.2-1.1-2.1-0.6-4l-0.5,0.2c-0.2,0.4-0.6,1.1-0.8,1.5c-0.4-0.2-0.3-0.5-0.4-0.7
			c-0.4-1.5,0.6-2.1,1-3.4l0.1-0.4c0,0-0.1-0.4-0.4,0.3c-0.3,0.6-0.4,0.8-0.9,1.1l0-0.7c0.3-0.5,0.5-1.1,0.5-1.9l-0.2,0.1l-0.2,0.4
			c-0.1,0.3-0.2,0.4-0.3,0.7c-0.2,0.4-0.3,0.4-0.4,0.3c-0.6-1.5,1-3.2,1.5-4.1c0.1-0.3,0-0.3-0.1-0.1c-0.6,0.6-1.1,1.3-1.7,1.9
			l-0.2-0.1c0-0.4,0-0.8,0.1-1.1c0.5-1.6,0.9-2.5,2.2-3.7l-0.3-0.2c-0.6,0.2-1.5,0.7-2.2,0.9c0-0.2,0.1-0.8,0.2-1.1
			c0.4-0.5,0.7-1.1,1.2-1.5l0.4,0l0.5-0.9c-0.1-0.5,0.3-0.6,0.3-1.1c-0.9-1.7,0.6-3.9-0.1-6.1c1.1,0.4,2.3,1.6,2.4,1.7
			c0-1,0.5-2.6,0.9-3.2c0.3,0.2,0.5,0.5,0.8,1c0.3,0.4,0.6,0.9,0.8,1.3c0.2-0.4,0.3-1.2,0.5-1.6c0.4-0.7,0.8-1.4,1.2-2.1
			c0.3,0.9,0.7,2.1,1.1,3c0.5-0.2,0.1-0.3,0.4-0.7c0.2-1,0.5-1.4,0.8-2.1c0.5,0.8,0.8,2.3,1,3.5h0.1l0.2-0.1c0.3-0.8,0.6-1.2,1-1.7
			c1.2,1.2,0.7,3.3,1,3.3c0.4,0,1-1,1.4-1.4c0.7,0.7,0.3,2.4,0.7,2.8l0.4-0.2c0.9-0.7,1.6-1.2,2.6-0.7c-0.2,2.1-0.4,5.7-1.5,6.1
			c-0.2,0.2-0.8-0.3-1.1-0.4c1.2,2.2,0.4,4.7-2.1,4.8c-0.4-0.2-0.7-0.4-1.1-0.6c-0.2-0.1-0.3,0-0.2,0.2c1.6,2.7-0.9,5.5-3.3,5.7
			l-0.2-0.1l0.1-0.7c2.1-0.1,3.6-2.6,2.7-4.8H48c-0.4,1-0.6,1.5-2.1,1.5c-0.4-0.3-0.7-0.6-1.1-0.8c0.1-1.7,1.3-1.5,2.2-2.4
			c0-0.9,0-1.9,0-2.8c1.5,1.1,3.6,0.3,4.4-0.8c0.5-1.5,0-1.3-0.1-1c-0.7,1.6-3.5,2.2-4,0.9v-0.6l0.1-0.2c0.7-0.3,1.9-0.5,2.7-0.4
			c0.8,0.1,1.2,0,1.5,0.6c0.3-0.6,1.3-0.6,1.3-1.7c-0.5,1-1.9,0.7-3.2,0.7c-1.1,0-2.4,0.2-2.5-0.1c-0.1-0.4-0.1-1-0.2-1.3l-0.2,0.5
			c-0.1,1.8-0.1,3.5-0.3,5.3c-0.9-0.4-1.8-0.7-3.1-0.5v-0.1c0.6-1.8,1.2-3.7,1.7-5.5l-0.3-0.1c-0.2,0.6-0.3,1-0.7,1.1L44,13
			c-0.8,0-1.3-1-1.9-1.3c-0.7-0.2-1.2-0.2-1.9-0.3c-0.3-0.2-0.6-1-0.9-1.4c-0.1-0.3-0.3-0.1-0.1,0.9c0.3,0.8,1.1,1.2,1.1,1.2
			s0,1.1,0.4,1.7c0.6,1.1,1.8,1.1,2.8,1.9c-0.2,0.7-0.8,1.7-0.6,2.5c0.5,1.1,1.6,1.7,1.4,3.3c-0.5,0.2-0.7,0.3-1.5,0.4
			c-0.9-0.3-1.6-0.6-2-1.5c-0.5-0.7-0.1-1.8,0.2-2.3l-0.3-0.2c-0.5,0.1-1,0.2-1.4,0.2c-0.9-0.2-1.6-1.1-1.8-2.3l-0.4-0.3
			c0,0-0.3,0.8,0.1,1.4C37.7,17.5,38.3,18.3,38.5,18.4L38.5,18.4z"/>
		<path class="st10" d="M28.1,10c0.9,0,0.9,0.3,1.4,0.7c1,1.2-1.1,2.4-1.9,6.2c-0.1,0.3-0.2,0.5-0.2,0.5l-0.2-0.4
			c-0.6-2.3-0.1-4.2,0-6.5C27.2,10.1,27.8,10,28.1,10L28.1,10z"/>
		<path class="st10" d="M28.1,10c0.9,0,0.9,0.3,1.4,0.7c1,1.2-1.1,2.4-1.9,6.2c-0.1,0.3-0.2,0.5-0.2,0.5l-0.2-0.4
			c-0.6-2.3-0.1-4.2,0-6.5C27.2,10.1,27.8,10,28.1,10L28.1,10z"/>
		<path class="st11" d="M79.9,3.4c1.3,0.8,0.1,3.5-0.3,4.4c1.6-0.4,2.6-1.4,4.7-1.7c2.9-0.5,5.5,1.1,8.4,0.4
			c2.7-0.6,5.3-3.3,8.5-1.7L101,5c-3.1,0.6-4.9,3.5-7.6,4.7c-2.2,0.9-5.3,0.2-7.6,0.3l0.2,0.2c3.3,1.4,2.9,3,4.7,4.3l-0.6,0.3
			c-1.5,0.8-3.8,0.1-5.2-0.5c-1.5-0.9-3-1.9-4.5-2.8c-4.1-2.3-16.6-1.9-18.2,2.3c-1.1,2.6,2.1,4,6.2,3.7c3.2-0.3,6.6-1,7.9-0.9v-0.1
			l-0.2-0.4l-0.7-0.4l0.1-0.2c1.5-0.3,2.2,0.3,3.4,0.6c0.3-0.9,0.6-1.7,1.2-2.2c1.3,0.3,3.2,1.7,4,1c1.6,0.8,5.6,2.2,7.7-0.4
			c-0.8-0.3-2.2-1.5-2.4-2.3c1.5,0.3,3,1.6,4.7,1.7l0.2-0.4c0.1-0.5-0.1-1-0.1-1.5c0-0.3,0.3-0.4,0.7-0.1c1.3,0.8,3.4,1.8,5.3,1.5
			c0.1-1-0.9-1.6-0.8-2.8c0.8,0.4,4.3,2.2,4.8,1.8c-0.1-0.6-0.4-1.4-0.4-2l0.8,0.7c0.6,0.6,1.3,1.1,1.9,1.7h0.2
			c0.4-1.1,0.7-2.3,1.3-3.2c0.3-0.3,0.2,0.3,0.3,0.4c0.6,1.7,1.8,3.1,3.2,3.7c0.8-1-0.1-2.5,2-4.2l-0.3,1.2
			c-0.1,2.3,0.1,3.5,1.4,4.6c1.3-0.2,1.2-1.3,2-2.1c1.3-1.3,4.2-0.5,5.7-2.7c-1.2,3.8-3.6,3.3-4.6,4.8c-0.8,1.4-0.1,2.3-0.5,4.4
			c-0.2,1-0.9,1.6-1.4,2.3h0.1c1.5-0.7,2.3-2,3.6-2.7c1.8-0.9,4.9,0.4,7.5-0.7c-2.2,4-4.5,2.6-7.3,3.4c-1.2,0.4-1.8,1.1-2.8,1.6
			c-1.5,0.8-3.4,1-5.3,1.4c-4.1,0.7-10.1-0.6-13-0.7l0.1,0.6c2.2,2.7,4.8,4.3,9.1,4.9c5.7,0.8,12.5-5.7,16.5-0.4l-0.3,0.2
			c-0.3-0.1-0.6-0.2-0.8-0.2l-0.3,0.2c0.9,1.8,3,1.6,3.2,4.3l-0.1,0.2c-0.5-0.2-1-0.3-1.5-0.5l-0.1,0.1c0.5,1,1.6,2.1,1.6,3.1
			c-0.5-0.1-0.9-0.2-1.4-0.2c0,0.5-0.1,0.9-0.1,1.3l0.7,0.1c0.1,0.1,0.6,0.1,0.9,1c-1.4,0.5-1.4,1.2-1.7,2.4c-1-0.1-1.1-0.4-1.6-1
			l-0.3,0.1c-0.3,1.5-0.7,2.6-1.6,3.4c-1-0.3-1.2-0.8-2.5-0.3l-0.2-0.6c0.2-0.9,0.5-1.2,0.8-1.9l0.2-0.3c0.1-0.2,0.2-0.4-0.1-0.2
			c-0.3,0.2-0.6,0.5-0.9,0.7c-0.4,1.3-0.7,2.4-2.3,2.5c-1-0.6-1.1-1.6-1.9-2.4l0.1-0.2c1.6-0.6,3.1-1.2,4.7-1.9c1-3,0.1-4.8-2-5.6
			c-4.5-1.7-16.9,1.8-22.7,0.3c-2.3-0.6-5.5-2.6-6.4-4.7c-0.3-0.6-0.4-1.7,0-2.6c0.1-0.3-0.3-0.2-0.4-0.2c-0.1,0.4-0.3,0.7-0.5,1.1
			c-1.2-0.2-2.4-0.5-3.6-0.7c-5.6-0.2-9.4,1.9-12,3.1c-5.3,2.3-8.6,6.4-19.2,4.9c-0.4-0.2-0.5-0.1-0.6,0c0.1,2.1,1.4,2.4,1.5,4.6
			c-0.8,1.3-1.9,1.8-3.1,2.4c-0.3,0.2-0.4-0.4-0.6-0.9l-0.3,0.4c0.2,1.7-0.9,2.4-2.1,3.1c-0.3,0.2-0.4,0.2-0.5-0.6
			c-0.4-0.7-0.6-0.8-1-1.4c-0.2-0.3-0.3-0.3-0.2,0.1c-0.1,1.3-0.8,1.9-1.7,2.3c-0.4,0.3-0.6,0.3-0.5-0.1c-0.1-1.1-0.6-1.9-1.5-2.1
			c-0.1,1.6-1.2,2-2.3,2.6c-0.4,0.2-0.5,0.1-0.4-0.4c0.2-0.8,0.1-2-0.7-2.3c-0.3,1.5-1.9,2.5-3.6,2.6c0.2-1,0.7-1.6,0.6-2.7
			l-0.2-0.5c-0.6,1.3-1.5,2-2.9,2.6c-0.3,0.1-0.8,0.3-0.9,0.2c0.2-0.1,0.4-1.2,0.9-1.6c0.4-0.6,0.8-0.8,1.3-1.3l-0.2-0.1
			c-0.9-0.1-1.9-0.1-2.8-0.1c0.1,1.2,0,1.9-0.7,2.5c-0.5-0.2-1-1-2.6-0.9c-0.5-0.5-0.1-0.4-0.1-1.2c0.3-0.6,0.5-0.6,0.9-1.2
			l-0.1-0.1c-0.9,0.6-4.7,3.9-6.1,1.5c-0.4-0.4-0.3-0.6-0.2-1.1c0.9-0.9,2.5-0.8,3.6-1.6l-0.2-0.3c-1.4,0.1-3,0.9-3.7,0.5
			c-0.6-0.3-0.8-0.9-1.3-1.3c0-0.7,0.1-1.2,0.3-1.6l0.4-0.1c4.8,1.5,10.6,3.7,17,2.1c1.4-0.6,2.9-1.1,4.3-1.7l0.1,0.1
			c0.1,0.5,0.2,1.1,0.2,1.6l0.4-0.1c1.7-2.2,2.3-2.5,1.6-6l0.7,0.6c1,1.1,1.8,1.5,1,3.6c2.2-0.4,3-2.7,2.7-4.8
			c0.1,0.1,0.6,0.3,0.7,0.6c0.2,0.4,0.3,0.9,0.5,1.2l0.5-0.8c0.4-1.6,1.2-0.8,1.9-3c0.1-0.5,0-1.3,0.1-1.8c0.1-0.3,0.3-0.4,0.4-0.7
			c0.1-0.6,0.2-1.5,0.2-2.1c0.2-0.3,0.4-0.5,0.6-1c0.3-0.7,0.5-1.7,0.5-2.6C57,22,61,22.5,64.6,22.5c2.5-0.1,5-0.4,7.5-0.6
			c16.7-3.1,21.1-2.5,31.3-0.5c4.1,0.8,11.7,0.7,11.1-3.6c-0.6-4.1-9.7-4-14.2-3c-8.1,1.9-16.4,3-24.9,4.6c-3.8,0.7-9.4,1.6-13,0.1
			c-3.7-1.5-6.2-5.6-2.6-9C64.2,6.4,76.8,8.2,79.9,3.4L79.9,3.4z"/>
		<path class="st11" d="M85.7,27.9c0.4,0,0.8,0.1,1.1,0.4c-1.1,4.1,3,5.9,4.6,7.8c0.2,0.3,0.3,1.9-0.9,2.1c0.1,1.8-0.9,3.1-1.2,3.4
			c-1.2-0.7-1.8-1.5-2.6-2.2l-0.3,0.2c0.3,1.3-1.1,3-2.2,3.3c-0.3-1.1-0.4-2.2-1-3.1c-0.5-0.3-0.3,0.1-0.4,0.2
			c-0.1,1.9-1,2.9-2.1,3.8c-0.1-0.1-0.6,0.2-0.4-0.1c-0.4-1.5-1.3-2.4-2.5-3.2l-0.2,0.1c0.1,2.2-0.9,3.1-2.2,3.8L75,44.2
			c-1.2-1.1-0.6-1.3-0.9-2.3c-0.5,0-0.9,0.1-1.6-0.1c-0.3,0-0.1,0.2-0.1,0.3c0.4,0.8,0.4,1.5,0.1,2.4L72,44.8
			c-0.7-0.7-1.7-0.6-2.5-0.4c-0.8-1.3,0-2.2-0.3-2.6c-1,0.8-2.6,3.1-4.7,2.2c-0.3-0.2-0.4,0.1-0.9-0.7c0-1,0.3-1,0.7-1.6
			c0.9-0.4,1.8-0.8,2.7-1.2v-0.1c-0.5,0-1.9,0.2-3.1,0.9c-1.4-0.1-3.6-1.2-1.9-2.5c2.4-1.4,12.9,1.9,18.5-2.4
			c0.3-0.2,0.2-0.5,0.2-0.6c-3.2-2.1-4.2-4.9-1.3-8C79.5,27.9,82.2,27.3,85.7,27.9L85.7,27.9z"/>
		<path class="st7" d="M38.5,18.4c0.4,0.2,0.7,0.3,1,0.5c-1.1,2.4-2,4.9,1.1,7.1c0.6,0.4,1.3,0.7,1.9,0.8c0.4,0.7,2.3,1.2,2.8,0.5
			c0.6-0.1,1.3-0.3,2-0.4c2.1-0.9,3-2.8,3-5.2c1.4-0.1,1.8-0.7,2.5-1.3l0.2,0.4c0.6,1,0,2.7-0.5,3.4c-0.4-0.4-0.8-0.8-1.1-1.1h-0.1
			c0.3,1.1,1.1,2.3,0.6,3.6l-0.3-0.1c-0.2-0.6-0.4-0.9-1.1-1.1v0.1c0.8,1.3,1.6,3.7,0,4.9h-0.1c0-1.2-0.5-2.1-1.2-2.7l-0.2,0.3
			c0.3,0.8,1.3,2.8,0.7,3.8c-1-0.7-2.1-1.8-3.1-2.6l0.5,1c0.6,1,1.3,2.3-0.2,4.5c-0.8-2.4-4-4.2-4.6-5.6c-0.2,2.4,2.9,4.1,0.5,7.5
			l-0.2-0.1c-0.6-2.1-2.4-3.2-3.5-4.9c-0.7-1.2-1.1-2.1-0.6-4l-0.5,0.2c-0.2,0.4-0.6,1.1-0.8,1.5c-0.4-0.2-0.3-0.5-0.4-0.7
			c-0.4-1.5,0.6-2.1,1-3.4l0.1-0.4c0,0-0.1-0.4-0.4,0.3c-0.3,0.6-0.4,0.8-0.9,1.1l0-0.7c0.3-0.5,0.5-1.1,0.5-1.9l-0.2,0.1l-0.2,0.4
			c-0.1,0.3-0.2,0.4-0.3,0.7c-0.2,0.4-0.3,0.4-0.4,0.3c-0.6-1.5,1-3.2,1.5-4.1c0.1-0.3,0-0.3-0.1-0.1c-0.6,0.6-1.1,1.3-1.7,1.9
			l-0.2-0.1c0-0.4,0-0.8,0.1-1.1c0.5-1.6,0.9-2.5,2.2-3.7l-0.3-0.2c-0.6,0.2-1.5,0.7-2.2,0.9c0-0.2,0.1-0.8,0.2-1.1
			c0.4-0.5,0.7-1.1,1.2-1.5l0.4,0l0.5-0.9c-0.1-0.5,0.3-0.6,0.3-1.1c-0.9-1.7,0.6-3.9-0.1-6.1c1.1,0.4,2.3,1.6,2.4,1.7
			c0-1,0.5-2.6,0.9-3.2c0.3,0.2,0.5,0.5,0.8,1c0.3,0.4,0.6,0.9,0.8,1.3c0.2-0.4,0.3-1.2,0.5-1.6c0.4-0.7,0.8-1.4,1.2-2.1
			c0.3,0.9,0.7,2.1,1.1,3c0.5-0.2,0.1-0.3,0.4-0.7c0.2-1,0.5-1.4,0.8-2.1c0.5,0.8,0.8,2.3,1,3.5h0.1l0.2-0.1c0.3-0.8,0.6-1.2,1-1.7
			c1.2,1.2,0.7,3.3,1,3.3c0.4,0,1-1,1.4-1.4c0.7,0.7,0.3,2.4,0.7,2.8l0.4-0.2c0.9-0.7,1.6-1.2,2.6-0.7c-0.2,2.1-0.4,5.7-1.5,6.1
			c-0.2,0.2-0.8-0.3-1.1-0.4c1.2,2.2,0.4,4.7-2.1,4.8c-0.4-0.2-0.7-0.4-1.1-0.6c-0.2-0.1-0.3,0-0.2,0.2c1.6,2.7-0.9,5.5-3.3,5.7
			l-0.2-0.1l0.1-0.7c2.1-0.1,3.6-2.6,2.7-4.8H48c-0.4,1-0.6,1.5-2.1,1.5c-0.5-0.1-0.9-0.4-1.1-0.8c0.1-1.7,1.3-1.5,2.2-2.4
			c0-0.9,0-1.9,0-2.8c1.5,1.1,3.6,0.3,4.4-0.8c0.5-1.5,0-1.3-0.1-1c-0.7,1.6-3.5,2.2-4,0.9v-0.6l0.1-0.2c0.7-0.3,1.9-0.5,2.7-0.4
			c0.8,0.1,1.2,0,1.5,0.6c0.3-0.6,1.3-0.6,1.3-1.7c-0.5,1-1.9,0.7-3.2,0.7c-1.1,0-2.4,0.2-2.5-0.1c-0.1-0.4-0.1-1-0.2-1.3l-0.2,0.5
			c-0.1,1.8-0.1,3.5-0.3,5.3c-0.9-0.4-1.8-0.7-3.1-0.5v-0.1c0.6-1.8,1.2-3.7,1.7-5.5l-0.3-0.1c-0.2,0.6-0.3,1-0.7,1.1L44,13
			c-0.8,0-1.3-1-1.9-1.3c-0.7-0.2-1.2-0.2-1.9-0.3c-0.3-0.2-0.6-1-0.9-1.4c-0.1-0.3-0.3-0.1-0.1,0.9c0.3,0.8,1.1,1.2,1.1,1.2
			s0,1.1,0.4,1.7c0.6,1.1,1.8,1.1,2.8,1.9c-0.2,0.7-0.8,1.7-0.6,2.5c0.5,1.1,1.6,1.7,1.4,3.3c-0.5,0.2-0.7,0.3-1.5,0.4
			c-0.9-0.3-1.6-0.6-2-1.5c-0.5-0.7-0.1-1.8,0.2-2.3l-0.3-0.2c-0.5,0.1-1,0.2-1.4,0.2c-0.9-0.2-1.6-1.1-1.8-2.3l-0.4-0.3
			c0,0-0.3,0.8,0.1,1.4C37.7,17.5,38.3,18.3,38.5,18.4L38.5,18.4z"/>
		<path class="st7" d="M37.3,30.5c0.6,1,1.6,2.3,3.7,5l0.2,0.6c-2,0.4-3.4,0-5-0.6c-0.6,0.8-1.5,1.2-2.6,1.5c0-1.1,0-2.2,0-3.3
			l-0.1,0c-0.8,0.5-1.8,1.2-3.2,0.8c0.5-1.1,0.7-2.6,0.5-2.5h-0.1c-1.2,0.3-2.1,0.8-3.3,0.6c-0.4-0.1-0.2-0.2-0.1-0.4
			c0.3-0.7,0.6-1.5,0.8-2.2c-1.3,0.2-2.4,0.4-3.6-0.1c0.3-0.3,0.7-0.6,1-0.9c0.2-0.3,0.4-0.6,0.6-1l-0.2-0.3
			c-1.1,0.3-2.2-0.2-3.1-0.6c0.3-0.4,0.5-0.6,1-1c0.5-0.2,0.9-0.5,0.7-0.7l-0.3-0.3c-1.2-0.2-2.5-0.2-3.4-1l0.4-0.4
			c1.1-0.9,1.3-0.8,2.9-0.7c0,0,0.2,0,0-0.3c-0.7-1.1-0.4-3.5-0.5-3c-0.3,1.6-2.7,1.8-2.6,1.2c0.1-2.7-1-1.8-1.2-2.5
			c-0.1-0.5,0.2-1,1-1.4c1.6-1,2.6,0.9,2.3-0.1c-0.2-0.2-0.2-0.5-0.5-0.6c-1.3-0.2-2.4-0.8-2.7-1.5c-0.2-0.6-0.2-1.5,0.3-2.2
			l0.6-0.4c1.4-0.2,2.7,2.4,2.8,1.8c-0.7-2.1-1-4.4,0.9-5.2c0.4-0.1,1.1-0.1,1.7,0.4c0.9,1.1-0.1,3.9,0,6c0.1,2.3,1.4,5.1,2.4,6.9
			c0.9,1.3,1.9,2.6,3.2,3.8c1.2,0.9,3,2.1,4.2,2.3c0.2,0.4,0.5,1,0.6,1.5C36.7,30.1,36.9,30.2,37.3,30.5L37.3,30.5z"/>
		<path class="st7" d="M79.9,3.4c1.3,0.8,0.1,3.5-0.3,4.4c1.6-0.4,2.6-1.4,4.7-1.7c2.9-0.5,5.5,1.1,8.4,0.4c2.7-0.6,5.3-3.3,8.5-1.7
			L101,5c-3.1,0.6-4.9,3.5-7.6,4.7c-2.2,0.9-5.3,0.2-7.6,0.3l0.2,0.2c3.3,1.4,2.9,3,4.7,4.3l-0.6,0.3c-1.5,0.8-3.8,0.1-5.2-0.5
			c-1.5-0.9-3-1.9-4.5-2.8c-4.1-2.3-16.6-1.9-18.2,2.3c-1.1,2.6,2.1,4,6.2,3.7c3.2-0.3,6.6-1,7.9-0.9v-0.1l-0.2-0.4l-0.7-0.4
			l0.1-0.2c1.5-0.3,2.2,0.3,3.4,0.6c0.3-0.9,0.6-1.7,1.2-2.2c1.3,0.3,3.2,1.7,4,1c1.6,0.8,5.6,2.2,7.7-0.4c-0.8-0.3-2.2-1.5-2.4-2.3
			c1.5,0.3,3,1.6,4.7,1.7l0.2-0.4c0.1-0.5-0.1-1-0.1-1.5c0-0.3,0.3-0.4,0.7-0.1c1.3,0.8,3.4,1.8,5.3,1.5c0.1-1-0.9-1.6-0.8-2.8
			c0.8,0.4,4.3,2.2,4.8,1.8c-0.1-0.6-0.4-1.4-0.4-2l0.8,0.7c0.6,0.6,1.3,1.1,1.9,1.7h0.2c0.4-1.1,0.7-2.3,1.3-3.2
			c0.3-0.3,0.2,0.3,0.3,0.4c0.6,1.7,1.8,3.1,3.2,3.7c0.8-1-0.1-2.5,2-4.2l-0.3,1.2c-0.1,2.3,0.1,3.5,1.4,4.6c1.3-0.2,1.2-1.3,2-2.1
			c1.3-1.3,4.2-0.5,5.7-2.7c-1.2,3.8-3.6,3.3-4.6,4.8c-0.8,1.4-0.1,2.3-0.5,4.4c-0.2,1-0.9,1.6-1.4,2.3h0.1c1.5-0.7,2.3-2,3.6-2.7
			c1.8-0.9,4.9,0.4,7.5-0.7c-2.2,4-4.5,2.6-7.3,3.4c-1.2,0.4-1.8,1.1-2.8,1.6c-1.5,0.8-3.4,1-5.3,1.4c-4.1,0.7-10.1-0.6-13-0.7
			l0.1,0.6c2.2,2.7,4.8,4.3,9.1,4.9c5.7,0.8,12.5-5.7,16.5-0.4l-0.3,0.2c-0.3-0.1-0.6-0.2-0.8-0.2l-0.3,0.2c0.9,1.8,3,1.6,3.2,4.3
			l-0.1,0.2c-0.5-0.2-1-0.3-1.5-0.5l-0.1,0.1c0.5,1,1.6,2.1,1.6,3.1c-0.5-0.1-0.9-0.2-1.4-0.2c0,0.5-0.1,0.9-0.1,1.3l0.7,0.1
			c0.1,0.1,0.6,0.1,0.9,1c-1.4,0.5-1.4,1.2-1.7,2.4c-1-0.1-1.1-0.4-1.6-1l-0.3,0.1c-0.3,1.5-0.7,2.6-1.6,3.4c-1-0.3-1.2-0.8-2.5-0.3
			l-0.2-0.6c0.2-0.9,0.5-1.2,0.8-1.9l0.2-0.3c0.1-0.2,0.2-0.4-0.1-0.2c-0.3,0.2-0.6,0.5-0.9,0.7c-0.4,1.3-0.7,2.4-2.3,2.5
			c-1-0.6-1.1-1.6-1.9-2.4l0.1-0.2c1.6-0.6,3.1-1.2,4.7-1.9c1-3,0.1-4.8-2-5.6c-4.5-1.7-16.9,1.8-22.7,0.3c-2.3-0.6-5.5-2.6-6.4-4.7
			c-0.3-0.6-0.4-1.7,0-2.6c0.1-0.3-0.3-0.2-0.4-0.2c-0.1,0.4-0.3,0.7-0.5,1.1c-1.2-0.2-2.4-0.5-3.6-0.7c-5.6-0.2-9.4,1.9-12,3.1
			c-5.3,2.3-8.6,6.4-19.2,4.9c-0.4-0.2-0.5-0.1-0.6,0c0.1,2.1,1.4,2.4,1.5,4.6c-0.8,1.3-1.9,1.8-3.1,2.4c-0.3,0.2-0.4-0.4-0.6-0.9
			l-0.3,0.4c0.2,1.7-0.9,2.4-2.1,3.1c-0.3,0.2-0.4,0.2-0.5-0.6c-0.4-0.7-0.6-0.8-1-1.4c-0.2-0.3-0.3-0.3-0.2,0.1
			c-0.1,1.3-0.8,1.9-1.7,2.3c-0.4,0.3-0.6,0.3-0.5-0.1c-0.1-1.1-0.6-1.9-1.5-2.1c-0.1,1.6-1.2,2-2.3,2.6c-0.4,0.2-0.5,0.1-0.4-0.4
			c0.2-0.8,0.1-2-0.7-2.3c-0.3,1.5-1.9,2.5-3.6,2.6c0.2-1,0.7-1.6,0.6-2.7l-0.2-0.5c-0.6,1.3-1.5,2-2.9,2.6
			c-0.3,0.1-0.8,0.3-0.9,0.2c0.2-0.1,0.4-1.2,0.9-1.6c0.4-0.6,0.8-0.8,1.3-1.3l-0.2-0.1c-0.9-0.1-1.9-0.1-2.8-0.1
			c0.1,1.2,0,1.9-0.7,2.5c-0.5-0.2-1-1-2.6-0.9c-0.5-0.5-0.1-0.4-0.1-1.2c0.3-0.6,0.5-0.6,0.9-1.2l-0.1-0.1
			c-0.9,0.6-4.7,3.9-6.1,1.5c-0.4-0.4-0.3-0.6-0.2-1.1c0.9-0.9,2.5-0.8,3.6-1.6l-0.2-0.3c-1.4,0.1-3,0.9-3.7,0.5
			c-0.6-0.3-0.8-0.9-1.3-1.3c0-0.7,0.1-1.2,0.3-1.6l0.4-0.1c4.8,1.5,10.6,3.7,17,2.1c1.4-0.6,2.9-1.1,4.3-1.7l0.1,0.1
			c0.1,0.5,0.2,1.1,0.2,1.6l0.4-0.1c1.7-2.2,2.3-2.5,1.6-6l0.7,0.6c1,1.1,1.8,1.5,1,3.6c2.2-0.4,3-2.7,2.7-4.8
			c0.1,0.1,0.6,0.3,0.7,0.6c0.2,0.4,0.3,0.9,0.5,1.2l0.5-0.8c0.4-1.6,1.2-0.8,1.9-3c0.1-0.5,0-1.3,0.1-1.8c0.1-0.3,0.3-0.4,0.4-0.7
			c0.1-0.6,0.2-1.5,0.2-2.1c0.2-0.3,0.4-0.5,0.6-1c0.3-0.7,0.5-1.7,0.5-2.6C57,22,61,22.5,64.6,22.5c2.5-0.1,5-0.4,7.5-0.6
			c16.7-3.1,21.1-2.5,31.3-0.5c4.1,0.8,11.7,0.7,11.1-3.6c-0.6-4.1-9.7-4-14.2-3c-8.1,1.9-16.4,3-24.9,4.6c-3.8,0.7-9.4,1.6-13,0.1
			c-3.7-1.5-6.2-5.6-2.6-9C64.2,6.4,76.8,8.2,79.9,3.4L79.9,3.4z"/>
		<path class="st7" d="M85.7,27.9c0.4,0,0.8,0.1,1.1,0.4c-1.1,4.1,3,5.9,4.6,7.8c0.2,0.3,0.3,1.9-0.9,2.1c0.1,1.8-0.9,3.1-1.2,3.4
			c-1.2-0.7-1.8-1.5-2.6-2.2l-0.3,0.2c0.3,1.3-1.1,3-2.2,3.3c-0.3-1.1-0.4-2.2-1-3.1c-0.5-0.3-0.3,0.1-0.4,0.2
			c-0.1,1.9-1,2.9-2.1,3.8c-0.1-0.1-0.6,0.2-0.4-0.1c-0.4-1.5-1.3-2.4-2.5-3.2l-0.2,0.1c0.1,2.2-0.9,3.1-2.2,3.8L75,44.2
			c-1.2-1.1-0.6-1.3-0.9-2.3c-0.5,0-0.9,0.1-1.6-0.1c-0.3,0-0.1,0.2-0.1,0.3c0.4,0.8,0.4,1.5,0.1,2.4L72,44.8
			c-0.7-0.7-1.7-0.6-2.5-0.4c-0.8-1.3,0-2.2-0.3-2.6c-1,0.8-2.6,3.1-4.7,2.2c-0.3-0.2-0.4,0.1-0.9-0.7c0-1,0.3-1,0.7-1.6
			c0.9-0.4,1.8-0.8,2.7-1.2v-0.1c-0.5,0-1.9,0.2-3.1,0.9c-1.4-0.1-3.6-1.2-1.9-2.5c2.4-1.4,12.9,1.9,18.5-2.4
			c0.3-0.2,0.2-0.5,0.2-0.6c-3.2-2.1-4.2-4.9-1.3-8C79.5,27.9,82.2,27.3,85.7,27.9L85.7,27.9z"/>
		<path d="M48.2,14.5c0,0-0.3,0.9,0.4,1.2c0.7,0.3,1.2,0,1.4-0.5c0.2-0.6,0.1-1.2-0.6-1.1C48.7,14.1,48.4,14.1,48.2,14.5L48.2,14.5z
			"/>
		<path d="M43.5,13.5c0,0-0.3,1.3-1.3,0.8c-1.1-0.5-0.6-1.5-0.4-1.9C42,12,43.5,13.1,43.5,13.5L43.5,13.5z"/>
		<path class="st12" d="M118.6,29.1c0,0,1.1-0.4,1.4-0.1c0.4,0.2,0.8,0.7,0.8,1c0,0.3,0.3-0.3,0.3-0.6c0.1-0.3-0.6-1.3-1.5-1.1
			C118.8,28.5,118.3,28.9,118.6,29.1L118.6,29.1z"/>
		<path class="st13" d="M36.1,29.9c0,0-0.9-0.6-1.6-1.3c-0.7-0.6-0.6-0.4-1-0.6c-0.5-0.2,0.2,0.6,0.2,1.2c0,0.7-0.5,1.9-1.3,2.3
			c-0.5,0.2-1.6-1.5-2.1-1.2c-0.5,0.3,2.4,3.2,5.2,4.2C38.2,35.6,37.1,30.6,36.1,29.9L36.1,29.9z"/>
		<path class="st14" d="M35.9,29.6c0,0,1,0.2,1.6,0.9c0.6,0.7,1.9,4.2,1.9,4.2s-0.5,1.9-5.1-0.7c-0.6-0.6,1.2-0.3,1.5-0.9
			c0.4-0.6,1-1.7,0.1-3C35.6,29.7,35.9,29.6,35.9,29.6L35.9,29.6z"/>
		<path class="st15" d="M37.5,30.5c0,0,0.5,1.8,1,2.8c0.5,1-1,1.1-1.6,1.1c-0.7,0,0.1,0.7,0.7,1c0.7,0.3,2.5,0.8,3.2,0
			C41.3,34.7,37.5,30.5,37.5,30.5L37.5,30.5z"/>
		<path class="st10" d="M27.3,10.8c0,0,1.1,0.1,1,0.5c-0.2,0.5-0.6,3.4-0.5,4.1c0.2,0.6,2-2.7,2.1-3.6c0.1-0.9-0.5-2.1-1.6-2
			C27.1,9.8,26.7,10.7,27.3,10.8L27.3,10.8z"/>
		<path class="st10" d="M26.4,13c0,0-0.6,1-0.9-0.1c-0.1-1.1,0.3-3.2-0.3-3.1c-0.5,0-1-0.1-1,1.1c0,1.2,0.1,3.1-0.6,3
			c-0.8-0.1-1-1.7-0.8-2.7c0.1-1,0.3-2.7,2.2-2.6C26.9,8.6,26.7,11.3,26.4,13L26.4,13z"/>
		<path class="st10" d="M23.1,14.2c0,0-0.3,1.7-1.1,0.4c-0.7-1.3-1.1-1.7-1.2-0.9c-0.1,0.8,0.1,1.4,0.1,1.6c0,0.3-1.2,0.3-1.3-0.4
			c-0.1-0.7,0-2,0.4-2.5C20.4,11.9,22.3,11.8,23.1,14.2L23.1,14.2z"/>
		<path class="st10" d="M23.1,18c0,0-1.1-1.3-2.2-0.4c-1.1,0.8,0.2,0.9,0.5,1.7c0.3,0.8,0.8,0.7,0.8,0.2c0-0.5-1-1-0.7-1.3
			C21.8,17.8,23.2,19.1,23.1,18L23.1,18z"/>
		<path class="st10" d="M23.9,23.3c0,0-1.3-0.5-2-0.1c-0.6,0.3-0.8,0.7-0.3,0.8c0.5,0.1,0.8-0.3,1.5-0.2
			C23.9,23.9,24.5,23.8,23.9,23.3L23.9,23.3z"/>
		<path class="st10" d="M25.1,25.7c0,0-1.2,0.4-1.7,0.9c-0.6,0.5-0.1,0.7,0.8,1c0.9,0.3,0.2-0.4,0.8-1C25.5,26,25.3,25.6,25.1,25.7
			L25.1,25.7z"/>
		<path class="st10" d="M26.9,28.7c-0.4-0.1-1.8,0.7-2.1,1.1c-0.3,0.4,0.4,0.2,1.3-0.1C26.9,29.3,27.5,28.9,26.9,28.7L26.9,28.7z"/>
		<path class="st10" d="M29,31c0,0-0.6-0.2-1.1,0.5c-0.4,0.7-0.6,0.9-0.3,1.1c0.3,0.1,0.7,0,0.9-0.5C28.7,31.7,29.4,31.3,29,31
			L29,31z"/>
		<path class="st10" d="M31.7,32.7c0,0-0.6,0.1-1,0.9c-0.4,0.8-0.1,1,0.3,0.8C31.5,34.1,32.3,32.5,31.7,32.7L31.7,32.7z"/>
		<path class="st10" d="M34.2,35c0,0,0.1,0.3-0.5,0.6c-0.6,0.4,0.2,0.3,0.8-0.2C34.9,35.1,34.4,34.6,34.2,35L34.2,35z"/>
		<path class="st10" d="M36.8,16.8c0,0-1.2,0.6-1.5,1.5c-0.4,0.8,0.9-0.2,1.3-0.5C37,17.5,37.3,16.5,36.8,16.8L36.8,16.8z"/>
		<path class="st10" d="M36.6,19.7c0,0-0.9,1.1-1,2c-0.1,0.9,0.2,0.4,0.8-0.5c0.6-0.9,0.5-0.8,0.7-1.2C37.3,19.7,37,19.2,36.6,19.7
			L36.6,19.7z"/>
		<path class="st10" d="M36.5,24.1c0,0,0.2-1.1,0.7-1.5c0.4-0.4,0.5,0.3,0.2,1c-0.3,0.7-0.5,1.5-0.8,1.7
			C36.4,25.6,36.5,24.4,36.5,24.1L36.5,24.1z"/>
		<path class="st10" d="M37.7,25.2c0,0,0.5-0.4,0.6,0c0.1,0.4-0.5,1.3-0.6,2c-0.1,0.7-0.7,1.4-0.9,0.4c-0.2-1,0.2-0.9,0.4-1.4
			C37.4,25.7,37.5,25.4,37.7,25.2L37.7,25.2z"/>
		<path class="st10" d="M38.1,28.1c0,0,0.4-0.8,0.9-0.4c0.5,0.3,0.1,1.1,0.9,2.7c0.8,1.6,2.2,3.6,2.6,4.1c0.4,0.5,0.6,0.5,0.4,1.3
			c-0.2,0.8-0.6,0.9-1,0.2c-0.5-0.7-2.7-3.4-3.2-4.1C38.2,31.2,37.5,28.9,38.1,28.1L38.1,28.1z"/>
		<path class="st10" d="M43.4,30.2c0,0,2,1.6,2.6,2.6c0.6,1,0.8,1.5,1.1,1.1c0.3-0.4-0.4-1.4-1.5-2.4C44.6,30.5,43.2,29.3,43.4,30.2
			L43.4,30.2z"/>
		<path class="st10" d="M47.3,29.1c0,0,1.3,0.9,1.6,1.5c0.3,0.6,0.6-0.1,0.2-0.6C48.7,29.6,47.1,28.4,47.3,29.1L47.3,29.1z"/>
		<path class="st10" d="M51.3,26.9c0,0-0.5-0.6-1-0.7c-0.6-0.1-0.1,0.3,0.2,0.8c0.3,0.5,0.4,1,0.3,1.6c-0.1,0.6,0.5,1,0.7,0.1
			C51.8,27.7,51.3,26.9,51.3,26.9L51.3,26.9z"/>
		<path class="st10" d="M51.5,23.9c0,0-0.4-0.6-0.9,0.1c-0.1,0.2,0.6,1,0.7,1.7c0.1,0.8,0.7,0.3,0.8-0.4
			C52.1,24.6,51.5,23.9,51.5,23.9L51.5,23.9z"/>
		<path class="st10" d="M52.1,21.4c0,0,0.1,0.5,0,1.2c-0.2,0.6,0.6,1.1,0.7,0.2C52.8,22,52.7,21.4,52.1,21.4L52.1,21.4z"/>
		<path class="st10" d="M51.4,16.5c0,0,0.7,1.4,0.2,2.3c-0.5,0.9,0.4,0.6,0.6,0C53,17.2,51.1,16.1,51.4,16.5L51.4,16.5z"/>
		<path class="st10" d="M41.8,18.2c0,0-0.9,0.3-0.8,1.4c0.1,1,0.8,1.8,1.8,1.8c1,0,0.8-0.5,0.2-0.6c-0.5-0.1-1.2-0.7-1.1-1.5
			C41.9,18.4,42.1,18,41.8,18.2L41.8,18.2z"/>
		<path class="st10" d="M39.8,17.4c0,0-2,0-2.1-1.6c-0.1-1.5,0.4-1.5,0.7-1.7c0.3-0.2,0.7,0.2,0.3,0.7c-0.4,0.5,0.1,1.8,0.8,2
			C40.1,16.8,40.6,17.2,39.8,17.4L39.8,17.4z"/>
		<path class="st10" d="M37.7,13c0,0,0.9,1.2,1,0.4c0.1-0.8-0.6-1.3-0.3-2.4c0.3-1.1,0.1-1.8,0.5-1.3c0.4,0.5,1,0.2,0.7-0.4
			c-0.2-0.6-1.8-2.1-2-1.3C37.4,8.9,37.1,12.4,37.7,13L37.7,13z"/>
		<path class="st10" d="M40.3,9c0,0,0.7,1,0.9,0.2c0.3-0.9,0.6-0.9,0.8-0.6c0.3,0.3-0.5-2.2-1.1-2C40.4,6.7,40.3,9,40.3,9L40.3,9z"
			/>
		<path class="st10" d="M43.3,8.5c0,0,0.6-1.4,0.7-1c0.2,0.3,0.5,0.2,0.3-0.6c-0.2-0.8-0.1-1.7-0.6-1.1C43.3,6.3,42.7,8.5,43.3,8.5
			L43.3,8.5z"/>
		<path class="st10" d="M45.9,8l0.7-0.1C46.7,8.1,47,8.3,47,7.6c0-0.8-0.5-2-1-1C45.6,7.6,45.7,7.6,45.9,8L45.9,8z"/>
		<path class="st10" d="M48,8.5l0.9-0.1L49.2,9c0.2,0.2,0.6-1,0.2-2C49,6.1,47.9,7.9,48,8.5L48,8.5z"/>
		<path class="st10" d="M50.2,10.2c0,0,0.3,0.3,0.6,0.6c0.3,0.3,0.8,1.1,0.9,0.1c0.1-1-0.8-2-1-1.5C50.5,9.8,50.2,10.2,50.2,10.2
			L50.2,10.2z"/>
		<path class="st10" d="M52.3,11.9c0,0,1.1-1,1.7-0.8c0.6,0.2,1.5,0,1.1-0.5c-0.4-0.5-2.1-0.5-2.4-0.1
			C52.4,10.9,52.1,11.7,52.3,11.9L52.3,11.9z"/>
		<path class="st10" d="M44.8,13c0,0,0.7-1.2,1-0.3c0.3,0.9-0.4,1.6-0.7,2.8c-0.3,1.1-0.8,1-0.3,1.2c0.6,0.1,1,0.5,0.1,0.5
			c-0.8-0.1-1.7,0.7-1.3-0.2C44,16,44.2,13.7,44.8,13L44.8,13z"/>
		<path class="st10" d="M89.2,31.1c0,0-2.3-4.1-0.7-5.2c0.6-0.4,0.2,1.9,1.7,3.9c1.5,2.1,4.5,3.8,8.3,3.8c3.8,0,4.4,0.3,1.7,0.8
			C97.7,34.8,92.1,35.9,89.2,31.1L89.2,31.1z"/>
		<path class="st10" d="M99.7,25.7c0,0-1.6-1.6-2.9-1.8c-1.3-0.2-1,0.5,0.1,1.1c1,0.5,4.5,4.4,8.5,5.3c4,0.8,10.7-0.8,13-1.5
			c2.3-0.7,2.5,0,2.9,0.7c0.4,0.7,0.8,0,0.3-1.5c-0.5-1.5-2.1-1.3-6.6,0.2c-4.4,1.5-6.8,1.5-9.9,0.3
			C101.8,27.2,101.9,26.6,99.7,25.7L99.7,25.7z"/>
		<path class="st10" d="M122.7,27.8c0,0,0.9-0.5,1.6,0.9c0.2,0.4,0.1,0-0.9,0C122.3,28.7,122.2,27.9,122.7,27.8L122.7,27.8z"/>
		<path class="st10" d="M123.5,31.5c0,0,1.3,0.7,1.8,1.2c0.5,0.5,0.8-0.2-0.1-1.1C124.1,30.8,123.3,30.9,123.5,31.5L123.5,31.5z"/>
		<path class="st10" d="M124.4,34.8c0,0,1.1,0.4,1.6,1.2c0.5,0.8,1.1,0.9,0.6-0.1c-0.3-0.5-1-1.3-1.6-1.7
			C124.4,33.9,123.9,34.6,124.4,34.8L124.4,34.8z"/>
		<path class="st10" d="M124.8,37.1c0,0-1,0.3-0.3,0.9c0.7,0.6,1.4,0.5,1,1.1c-0.4,0.7,0.9-0.1,1.1-0.2c0.2-0.1-0.3-0.8-0.8-1.2
			C125.4,37.3,125.2,36.9,124.8,37.1L124.8,37.1z"/>
		<path class="st10" d="M119.3,37.3c0,0,0.6-1.5,0.8-0.1c0.3,1.4,0,2.3-1.5,3.4c-1.5,1.1-2.7,1.3-3.6,1.2c-0.9-0.1-1.6-0.4,0-0.7
			c1.6-0.3,2.6-0.6,3.3-1.4C119,38.9,119.5,38.5,119.3,37.3L119.3,37.3z"/>
		<path class="st10" d="M115.9,39.8c0,0-1.3,0.2-2.1,0c-0.7-0.2-1.3,0-1.3,0.6c-0.1,0.6-0.5,0.5-0.6-0.2c-0.1-0.7,0.1-1.7,0.7-1.8
			C113.3,38.4,114.8,38.9,115.9,39.8L115.9,39.8z"/>
		<path class="st10" d="M119.2,41.1c0,0,0.4-0.5,0.8-0.8c0.5-0.2,0.6,0.1,0.3,0.7c-0.3,0.7-1.1,1.2-0.8,1.8c0.3,0.6,0.4,0.5-0.2,0.8
			c-0.6,0.3-1.3,0.3-0.9-0.6C118.8,42.1,119.2,41.1,119.2,41.1L119.2,41.1z"/>
		<path class="st10" d="M55.4,23.3c0,0,4,1.5,11.7,0.5c7.8-1,13.3-2.2,21.8-2.3c8.6,0,16.8,2.3,20.1,2.1c3.3-0.2,0.6-1.3-3.3-1.8
			c-4-0.4-16.7-3.1-28-0.8c-11.2,2.3-18.2,2-21,1.7C53.9,22.5,55.4,23.3,55.4,23.3L55.4,23.3z"/>
		<path class="st10" d="M62.1,15.2c0,0-0.3,2.6,4.1,3.2c4.4,0.7,7.5-0.2,8.3-0.5c0.9-0.3,0.7-0.9-1.7-0.9c-2.4,0-5.1,0.9-7.3-0.1
			C63.3,16.1,62.1,15.2,62.1,15.2L62.1,15.2z"/>
		<path class="st10" d="M59.2,14.1c0,0,0.8-2.8,4.8-4.1c3.9-1.3,12.2-2.1,14.5-3.2C80.8,5.6,80.2,7,80.2,7s0.4,0.9,2,0.6
			c1.6-0.2,3.6-0.8,8.1-0.1c4.5,0.7,4.5-0.6,6.8-1.1c2.3-0.5,5.4-1.7,3.2-1.8c-2.2-0.1-5.7,1.8-9.9,1.4c-4.2-0.5-7.7-0.2-9.7,0.8
			c-2,1,0.4-0.5,0.1-2.2c-0.3-1.7-0.7,1.1-6.7,2.1C68.1,7.6,59,8.9,59.2,14.1L59.2,14.1z"/>
		<path class="st10" d="M76,15.4c0,0,0.6,1.1,0.3,1.5c-0.4,0.4,0.5,0.3,0.5-1C76.8,14.6,76.2,15.1,76,15.4L76,15.4z"/>
		<path class="st10" d="M79.7,15.8c0,0,0.7-0.6,1.5-1.4c0.8-0.8-0.4-1.3-0.9-0.7c-0.4,0.6,0.3,1.2-0.4,1.6
			C79.2,15.7,79.7,15.8,79.7,15.8L79.7,15.8z"/>
		<path class="st10" d="M90.4,12.1l0.4,1.4c0,0-1.7-0.3-1.7-1.9C89,10.8,90.4,12.1,90.4,12.1L90.4,12.1z"/>
		<path class="st10" d="M95.4,13.8c0,0,0.4-1.4,0.6-1.7c0.1-0.4-1.5-1.1-1.5-0.7C94.4,11.9,95,13.9,95.4,13.8L95.4,13.8z"/>
		<path class="st10" d="M100.4,13c0,0,0.7-1,0.9-1.7c0.2-0.7-2.4-1.4-1.9-0.6C99.9,11.6,99.9,12.8,100.4,13L100.4,13z"/>
		<path class="st10" d="M103.9,11.7c0,0,1.3,1.9,1.2,0.8c-0.1-1.1,0.3-1.9-0.5-2.4C103.7,9.7,103.9,11.7,103.9,11.7L103.9,11.7z"/>
		<path class="st10" d="M108.6,9.4c0,0-1.1,0.9-0.9,2.3c0.2,1.4,0.9,1.4,1,0C108.8,10.2,108.6,9.4,108.6,9.4L108.6,9.4z"/>
		<path class="st10" d="M112.7,10.2c0,0-0.8,1.9-0.8,2.9c-0.1,1,0.9,1.5,1.2-0.1c0.3-1.6,0.6-2.6,0.9-3.4
			C114.1,8.7,112.7,10.2,112.7,10.2L112.7,10.2z"/>
		<path class="st10" d="M115.8,14.6c0,0-0.4-1.5,2-2.5c1.2-0.5,3.3-0.7,3.3-0.7s0.8,0.6-2.8,1.7c-1.4,0.5-2.2,2.4-2.2,3.4
			C116,17.6,115.4,15.8,115.8,14.6L115.8,14.6z"/>
		<path class="st10" d="M118.3,21.7c0,0,0.8-1.1,4-1.1c3.2,0,3.7-0.8,4.3-1.6c0.7-0.8-0.1-0.2-1.4,0.3c-1.2,0.5-2.7-0.1-4.9,0.6
			C118.1,20.5,118.3,21.7,118.3,21.7L118.3,21.7z"/>
		<path class="st10" d="M79.1,28.1c0,0-1.8,1.8-1.5,3.9c0.2,1.2,1.3,2.8,1.9,3c0.6,0.2,1.1-0.2,0.7-0.8c-0.4-0.7-2.1-0.8-1.8-3.7
			C78.4,29.3,78.3,29.1,79.1,28.1L79.1,28.1z"/>
		<path class="st10" d="M87.1,31.4c0,0,3.8,3.5,4.3,4.1c0.5,0.5,0.7,1.3,0.5,1.9c-0.2,0.6-3.1,0.5-2.3-0.6
			C90.3,35.5,87,32.8,87.1,31.4L87.1,31.4z"/>
		<path class="st10" d="M63.3,38.5c0,0-1,0.7,0.2,1.1c1.2,0.4,7.8,1,11.5,0.1c3.7-0.9,4.4-1.3,5.4-3c-0.9,0.3-4.3,2.2-13.6,1.8
			C65.2,38.3,63.9,38.3,63.3,38.5L63.3,38.5z"/>
		<path class="st10" d="M66,41c0,0,1.5-0.3,1.5,0.2c-0.1,0.6-1.5,1-2.6,1.9c-1.1,0.9-1.7,0.4-1.5-0.4C63.5,42,64.5,41.2,66,41L66,41
			z"/>
		<path class="st10" d="M69.8,42.2c0,0-0.1,0.3-0.1,1c0,0.7,0.1,1.3,0.1,1.3s-0.7,0.4-0.8-1.1C68.9,42.5,69.6,42.2,69.8,42.2
			L69.8,42.2z"/>
		<path class="st10" d="M78.5,41.2c0,0,0.4-0.4,1.1,0.3c0.7,0.7,1,2.3,0.6,2.9C79.8,42.4,78.5,41.2,78.5,41.2L78.5,41.2z"/>
		<path class="st10" d="M83.2,40.2c0,0,0.1-0.8,0.5,0c0.4,0.7,0.9,2,0.7,3c-0.2,0.3-0.5,0.2-0.8-1.3C83.3,40.4,83.2,40.2,83.2,40.2
			L83.2,40.2z"/>
		<path class="st10" d="M75.2,42.2c0,0,0.8,0.1,0.7,1.3c-0.2,1.3-0.5,1.3-1,0.7C74.5,43.7,74.7,41.8,75.2,42.2L75.2,42.2z"/>
		<path class="st10" d="M86.8,39.3c0,0,1.9,1.9,2.3,2.4c0.3,0.5,1-0.2,0.6-0.9C89.3,40.1,88.2,39.3,86.8,39.3L86.8,39.3z"/>
		<path class="st10" d="M20.5,38.7c0,0,0-1.1,1.1-0.8c1.1,0.3,7.8,2.3,11.3,2.3c3.4,0,7.2-1.1,7-1.8c-0.2-0.7-1.2-0.1-2.9,0.1
			c-1.7,0.1-7.6,0.6-13.4-1.2c-1.5-0.5-3.5-1-3.4,0.2C20.2,38.6,20.3,39,20.5,38.7L20.5,38.7z"/>
		<path class="st10" d="M24,39.5c0,0,1.5-0.4,1.7,0.5c0.2,1-2.8,0.8-3.3,1.5c-0.5,0.7,0.4,1.1,0.1,1.3c-0.2,0.2-1.7-1.9-0.8-2.5
			C22.8,39.8,23,39.7,24,39.5L24,39.5z"/>
		<path class="st10" d="M33.2,42c0,0-0.3,1.5-0.6,2c-0.3,0.5-1.4,0.5-1.4,0.5S31.9,41.7,33.2,42L33.2,42z"/>
		<path class="st10" d="M35.2,42.6c0,0-0.1-1.1,0.3-0.5c0.3,0.5,1.3,2.7-1.2,3C34.7,43.6,35.2,42.6,35.2,42.6L35.2,42.6z"/>
		<path class="st10" d="M51,35.9c0,0,0.9,0.6,1.3,1.1c0.4,0.4,1.5,1.5,0.8,2.3c-0.7,0.9-1.9,1.5-2.8,1.3c-0.9-0.2,0.4-0.6,0.9-1.1
			C52.3,38.4,50.3,35.5,51,35.9L51,35.9z"/>
		<path class="st10" d="M23.4,35.4c0,0-0.1-1.4,0.6-0.6c0.6,0.8,1,1.4,1.5,1.8c0.5,0.3-0.5-0.7-0.7-1.5c-0.2-0.8-1.7-1.9-1.9-1.3
			C22.5,34.5,22.8,36.2,23.4,35.4L23.4,35.4z"/>
		<path class="st10" d="M38.8,43.1c0,0,0.1-0.9,0.6-0.3c0.4,0.6,0.4,1.2,0.2,1.7c-0.2,0.5-0.7,0.8-0.7,0.8L38.8,43.1L38.8,43.1z"/>
		<path class="st10" d="M42.6,43c0,0-0.2-1.1,0.3-0.6c0.4,0.5,0.6,1.2,0.4,2.4C42.8,43.5,42.6,43,42.6,43L42.6,43z"/>
		<path class="st10" d="M46.4,42.5c0,0,0.9,0.1,1.2,1.1c0.3,1-0.5,0.4-0.9-0.3C46.3,42.6,46,42.3,46.4,42.5L46.4,42.5z"/>
		<path class="st7" d="M39.8,19.4c0.3-0.8,0.4,0.4,0.3,0.8c-0.1,0.8-0.4,2-0.2,3c0.5,1.8,2.1,1.9,2.3,2.5l-0.3,0.2
			C38.9,24.9,38.5,22.3,39.8,19.4L39.8,19.4z"/>
		<path class="st2" d="M42.3,12.9c0,0-0.6-0.1-0.5,0.4c0.1,0.5,0.3,0.6,0.5,0.4V12.9L42.3,12.9z"/>
		<path class="st2" d="M48.6,14.5c0,0-0.5,0.2-0.3,0.7c0.1,0.5,0.8,0.4,0.8,0C49.2,14.8,49.1,14.3,48.6,14.5L48.6,14.5z"/>
		<path class="st7" d="M65.5,36.1c0.1-0.3,0.6-0.3,1.1,0c0.5,0.6,1.4,0.8,1.6,1.6l-0.6,0.2c-0.7,0-2.5,0-3.1-0.4
			C64.8,37.1,65.2,36.6,65.5,36.1L65.5,36.1z"/>
		<path class="st9" d="M127,39.5c0,0-0.1-1.1-0.7-1.8c0.9,0.5,0.6-2,0.3-2.6c1.7-0.6-0.2-3.9-1.5-4.9c0.4-0.3,1.1,0.2,0.8-0.3
			c-0.8-1-1.4-2.1-2.2-2.7c-0.6-0.4-1.9-0.2-1.9-0.2s-1.2-1-2.2-0.9c-2.2,0.3-5.9,1.7-9,2.4c-4.5,0.9-9.6-1.9-10.5-3.7
			c4.2,0.5,10.7,2,14.9,0.5c2-0.7,3.5-2.4,5.4-3c0.9,0,1.8-0.1,2.7-0.1c3.7-0.8,4.9-3.1,5.9-6.8c-0.1-0.7-0.3-0.4-0.4-0.1
			c-1.5,4.2-6.1,1.5-9.9,3.5c-0.8,0.9-0.6-0.1-0.6-0.4c-1.6-5.7,6.3-3.2,4.7-9.8c0,0-0.1-0.1-0.2,0.3c-0.5,2.8-3.3,1.7-5.6,2.9
			c-1.8,1-1.8,2.3-2.2,2.4c-1.1-2.1-0.8-4.1,0-5.8c0.3-0.6-0.4-0.5-1.2,0.1c-1.2,0.8-2.3,1.9-2,4c-0.1,0-0.4,0-0.9-0.4
			c-1.6-1.6-1.6-2.7-1.9-3.6l-0.4,0.2c-0.9,0.4-1.7,1.6-2,2.6c-1.3-0.5-1.5-1.8-3.2-2v0.2c-0.3,0.4-0.3,0.8-0.1,1.4
			c0.1,0.2-0.2,0.2-0.5,0c-1-0.5-2.7-1.3-3.7-0.9c0,0.7-0.2,1.3,0.5,2.3C97.5,12.4,96,11,94,10.8l-0.1,0.4c-0.1,0.6-0.1,1.1-0.3,1.7
			c-1,0-3.4-1.3-4.3-1.9c6.1,0.8,9.8-6.9,13.9-5.2V5.6c-0.8-1.4-2.2-2.4-4.7-2.2c-1.7,0.1-3.4,1.6-5,2.1c-3.3,1-6.4-0.9-10-0.2
			c-1,0.2-1.4,0.7-2.5,0.6c0.1-1.3-0.3-3-1.1-3.7l-0.2,0.1C78.2,5.8,69.3,6,63.2,7.9c-3.6,1.2-7.1,4-5.4,8.4c1.8,4.7,9.3,5.3,15.5,4
			c9.3-1.8,19.3-2.7,28.5-5c4.6-1.2,9.9-0.3,12,2.2c0,4.5-7.5,4-11.3,3.1c-4.8-1.2-14.2-2.7-19.4-1.2c-7.2,2-21,3.7-29.2,1.5
			c-0.3-1-0.6-2.3-0.4-3.4c1.5-0.6,2.5-5.5,1.8-7.3c-1.2-0.3-1.8,0-2.9,0.3c-0.4-0.8-0.8-1.5-1.2-2.2l-0.1,0C51,8.7,51,8.8,50.4,8.9
			c-0.2-1.2-0.8-2.4-1.5-3.1L48.7,6c-0.1,0.3-0.3,0.6-0.4,0.9h-0.5c-0.1-0.5-0.6-2.2-0.7-2.3l-0.4-0.1c-0.5,0.5-0.9,1.1-1.4,1.6
			c-0.4-0.5-0.5-1.1-1.2-1.4C43.6,5.4,43,6.2,42.4,7l-0.5-0.1l-1-1.5l-0.3,0.1c-0.3,0.8-0.7,1.6-1,2.4c-0.9-0.1-1.6-0.6-2.6-0.4
			c0.1,2.7-0.1,5-0.3,7.6c-2.1,0.8-2.5,2.3-2.3,4.5c0,0.2,0.9-0.5,0.9-0.1c0,0.4-0.8,2-0.8,2.2c0,1.6,0.5,1.4,0.6,2.1
			c0.1,0.5-0.1,0.8,0,1.2c0.3,0.9,0.6,1.3,0.6,2.2c-2.6-0.2-8.5-6.2-7.9-9.3c0.4-2.1,1.8-3.8,2.3-5.6c0.9-3.1-1.4-6-3.7-5.8
			c0.3,1.1,0.9,1.5,0.6,2.8h-0.1l-0.2-0.1c-0.6-1.9-1.9-3.8-4.7-3.7c0.7,1,1.3,1.6,1.4,3.3c-0.7,0.8-1.1,1.5-1.1,2.9
			C22.3,12.3,22.1,12,22,12c-1.2-1-2.1-1.7-4.1-1.2c-0.9,0.3-1.7,1.3-1,1.1c1.3,0.2,1.8,0.6,2.4,1.4c-0.3,0.9,0.1,1.9,0.5,2.5
			c0.3,0.5,0.8,0.7,0.5,0.8c-0.7,0.5-1.1,1.2-1.2,2.2h-2.4v0.1c0.9,2.1,2.2,2.6,3.7,2.6c0.7,0,1.7,0.4,2.3-0.2
			c0.3-0.1,0.4,0.8,0.5,0.9c-1.4,0.1-2.8,1-3,2.2c1,0.4,1.9,0.7,2.9,1.1c0.4,0,0.5,0.2,0.1,0.4c-0.5,0.4-1,0.7-1.5,1.1l0.3,0.4
			c1.1,0.4,1.8,0.8,3,1.1l-0.1,0.4c-0.4,0.3-0.6,0.6-1.1,0.9c0.7,0.8,1.9,0.9,3.2,1.1c0.1,0,0.2,0.3,0,0.6c-0.4,0.3-0.7,0.9-0.8,1.5
			c1.5,0,2.7,0.1,3.9-0.1c0,0.2,0.1,0.3,0,0.7c-0.3,0.5-0.5,0.7-0.9,1.2l0.1,0.2c1.3,0.1,2.4,0.1,3.6-0.1c0,0.5,0.1,1,0,1.4
			c-0.4,0.7-0.6,1.6-0.6,1.6s1.7,0.4,4-1.6c0.4,0.3,1.1,0.7,1.8,0.8c-0.2,0.5,0,0.3-0.4,0.5c-0.9,0.5-3.2,0.7-4.3,0.6
			c-1.5-0.1-2.9,0-4.4-0.1c-1.8-0.6-3-5.8-7.4-5.9c-0.6,0-2.2,0.6-2.4,2.2l0.4,0c0.8-0.4,1.1-0.2,1.9,0.1c0.1,0.5,0.1,1,0.2,1.5
			c-2.9-0.3-5.2-0.3-5.5,2.6c1.3-0.7,2.2-0.9,2.9-0.6c0.2,1,0.7,1.4,1.3,2.1l0.2,0.4c-2.2,0.7-2.3,3.4-1.4,4.5
			c0.1,0.2,0.4-0.2,0.4-0.5c0.4-1.7,1.1-1.3,1.4-1.9c0.9,0.8,1.7,1.3,3.2,0.8c0.9-0.3,1.4-0.9,2.1-1c0.1,0.2,0.1,1.1,0.8,1.7
			c0.1,1.2-0.4,2.4-0.2,2.3c0.7-0.5,2.1-1,2.6-1.8c1.1-0.1,1.9-1.4,1.6-2.6h1.2c0.1,0.1-0.3,0.3-0.5,0.7c-0.4,0.9-0.7,1.6-1.1,2.5
			l0.1,0.1c1.7,0,2.6-0.6,3.9-1.5c-0.1,0.6-0.8,1.4-1.1,1.7c-0.3,0.3,0,0.3,0.9,0.3c2.1,0,2.7-0.6,3.6-1.6h0.4v0.2
			c0,0.6-0.1,1.2-0.1,1.7c1.7-0.3,3.2-0.7,3.9-2.5c0.7,1.1,0.3,1.8,0.7,2.1l0.1,0.1c1.3-0.4,2.1-1.2,2.8-2.2l0.3,0.3
			c0.1,0.5,0.2,1,0.3,1.5c0.6-0.1,2.7-0.8,3.5-2.7c1.6-0.4,3.4-2.2,3.8-2.8c0.6-1.4-0.7-2.6-1.2-4.3c1,0.2,2.6,0.5,3.6,0.6
			c2.1,0,3.9-0.2,6.2-1c0,0,1.2-0.5,1.6-0.6c4.4-1.7,6.1-3.1,8.7-4.3c1.5-0.6,3-1.1,4.5-1.7l0.3,0c-0.4,2.1-1.7,3.1,0.3,5.9
			c0.6,0.8,1.8,1.4,1.8,1.9c-2.2,1.7-7.9,2.1-10.5,1.6c-1-0.9-1.7-1.7-2.7-2.6c-0.5-0.2-0.8,0-1-0.2c-0.8-0.7-2.9,0.2-3.1,0.4
			c-0.4,0.2-0.6,0.6-0.8,1c0.7,0.1,2.1,0.2,2.4,0.7l-0.3,0.5c-1,0.1-2.1,0.1-2.9,0.6c-1.7,1.1-2.5,2.9-1.8,3.6
			c0.8-0.7,1.1-1.2,2.7-1.1c0.3,0.7,1.1,0.7,1.6,1.1c-2.2,2.3-1.4,3.8-0.6,5.1l0.3,0c0.5-0.6,0.6-1.7,1.3-2.1
			c1.6-0.8,1.9,0.3,3.9-1.6c0.2-0.3,0.4-0.5,0.5,0c0.2,1.6,1.1,1,0.7,3.9c-0.1,0.2-0.2,0.3,0.3,0.1c0.4-0.2,1.3-0.4,1.3-0.5
			c1-0.4,2.3-2,2.3-3.3c0-0.9,0.3-0.5,0.5,0c0.5,0.7,0.9,1.3,1.6,1.8l0.9-0.7c0.8-0.8,1.4-1.4,1.7-2.8c0.2-0.3,0-0.7,0.6,0.1
			c0.6,0.7,0.9,1.7,1.1,2.8c0.1,0.4,0.2,0.2,0.7,0c0.8-0.7,1.9-1.6,2.4-2.8c0.1,0,0.1-0.5,0.3,0c0.1,0.6,0.1,1.3,0.2,1.9
			c1.8-0.4,2.8-1.7,3.4-2.9c0.2-0.4,0.4-0.4,0.7-0.2c0.3,0.5,1.1,1,1.5,1.5c0.1,0.3,0.2,0.4,0.4,0.1c0.3-0.6,1.9-2.4,1.8-3.8
			c1.4-0.9,1.2-2.2,0.9-2.9c-0.9-1.9-4.6-3-4.5-5.3c-0.2-1.5,1,1.1,1.6,1.6c1.4,1.2,4.1,2.4,6,2.9c5,1.3,17.7-2.6,22.3-0.5
			c1.2,0.6,1.6,1.8,1.4,3.4c-0.1,0.3-0.3,0.6-0.4,0.9c-2.1,1.5-3.1-0.5-6.1-0.6c-1.7-0.5-2.3,1.4-2.8,2.8c-0.1,0.8,0.2,0.9,0.4,0.7
			c0.4-0.4,1-1.2,1.7-1.2c0.2,0.5,0.6,0.9,1.3,1.2c-0.8,0.9-1,2.6-0.1,3.9l0.4-0.3c0.4-1.7,1.9-2,1.9-2s0.5,0.8,1.3,0.9
			c0.9,0.1,1.2-0.6,1.9-0.5c0.2,1.6,1.2,2.4,2.3,3.1c0.5,0.3,0.9,0,1.1,0.1c-0.2-0.8-0.6-1.5-0.2-2.3c0.2-0.7,0.5-0.3,1-0.7
			c0.3-0.9,0.7-1.7,1-2.6c1.5,0.6,2.4,0.5,2.8,2.2c0.2-0.2,0.8-1,1-1.8C127.8,40.1,127,39.5,127,39.5L127,39.5z M37.9,14.1
			c-0.9-1.7,0.6-3.9-0.1-6.1c1.1,0.4,2.3,1.6,2.4,1.7c0-1,0.5-2.6,0.9-3.2c0.3,0.2,0.5,0.5,0.8,1c0.3,0.4,0.6,0.9,0.8,1.3
			c0.2-0.4,0.3-1.2,0.5-1.6c0.4-0.7,0.8-1.4,1.2-2.1c0.3,0.9,0.7,2.1,1.1,3c0.5-0.2,0.1-0.3,0.4-0.7c0.2-1,0.5-1.4,0.8-2.1
			c0.5,0.8,0.8,2.3,1,3.5h0.1l0.2-0.1c0.3-0.8,0.6-1.2,1-1.7c1.2,1.2,0.7,3.3,1,3.3c0.4,0,1-1,1.4-1.4c0.7,0.7,0.3,2.4,0.7,2.8
			l0.4-0.2c0.9-0.7,1.6-1.2,2.6-0.7c-0.2,2.1-0.4,5.7-1.5,6.1c-0.2,0.2-0.8-0.3-1.1-0.4c1.2,2.2,0.4,4.7-2.1,4.8
			c-0.4-0.2-0.7-0.4-1.1-0.6c-0.2-0.1-0.3,0-0.2,0.2c1.6,2.7-0.9,5.5-3.3,5.7l-0.2-0.1l0.1-0.7c2.1-0.1,3.6-2.6,2.7-4.8H48
			c-0.4,1-0.6,1.5-2.1,1.5c-0.5-0.1-0.9-0.5-1.1-0.8c0.1-1.7,1.3-1.5,2.2-2.4v-2.8c1.5,1.1,3.6,0.3,4.4-0.8c0.1-0.3,0.2-0.5,0.2-0.7
			c0.3-0.6,1.3-0.6,1.3-1.7c-0.5,1-1.9,0.7-3.2,0.7c-1.1,0-2.4,0.2-2.5-0.1c-0.1-0.4-0.1-1-0.2-1.3l-0.2,0.5
			c-0.1,1.8-0.1,3.5-0.3,5.3c-0.9-0.4-1.8-0.7-3.1-0.5v-0.1c0.6-1.8,1.2-3.7,1.7-5.5l-0.3-0.1c-0.2,0.6-0.3,1-0.7,1.1L44,13
			c-0.8,0-1.3-1-1.9-1.3c-0.7-0.2-1.2-0.2-1.9-0.3c-0.3-0.2-0.6-1-0.9-1.4c-0.1-0.3-0.3-0.1-0.1,0.9c0.3,0.8,1.1,1.2,1.1,1.2
			s0,1.1,0.4,1.7c0.6,1.1,1.8,1.1,2.8,1.9c-0.2,0.7-0.8,1.7-0.6,2.5c0.5,1.1,1.6,1.7,1.4,3.3c-0.5,0.2-0.7,0.3-1.5,0.4
			c-0.9-0.3-1.6-0.6-2-1.5c-0.5-0.7-0.1-1.8,0.2-2.3l-0.3-0.2c-0.5,0.1-1,0.2-1.4,0.2c-0.9-0.2-1.6-1.1-1.8-2.3l-0.1-0.1l0.2-0.4
			C37.5,14.7,37.9,14.6,37.9,14.1L37.9,14.1z M47.3,15.5v-0.6l0.1-0.2c0.7-0.3,1.9-0.5,2.7-0.4c0.6,0.1,1,0,1.2,0.3l0,0
			C50.7,16.2,47.9,16.7,47.3,15.5L47.3,15.5z M44.1,13.9c-0.2,0.4-0.5,0.7-0.7,1.1c-0.3,0-0.6-0.1-0.9-0.1c-1-0.4-1.8-1.6-1.5-2.7
			l0.7,0.1c1.1,0.5,1.9,1.3,1.9,1.3C44.2,13.4,44.2,13.6,44.1,13.9L44.1,13.9z M35.9,25.1c-0.6-1.5,1-3.2,1.5-4.1
			c0.1-0.3,0-0.3-0.1-0.1c-0.6,0.6-1.1,1.3-1.7,1.9l-0.2-0.1c0-0.4,0-0.8,0.1-1.1c0.5-1.6,0.9-2.5,2.2-3.7l-0.3-0.2
			c-0.6,0.2-1.5,0.7-2.2,0.9c0-0.2,0.1-0.8,0.2-1.1c0.4-0.5,0.7-1.1,1.2-1.5H37l0.2,0.8c0.4,0.6,1.1,1.4,1.2,1.5
			c0.4,0.2,0.7,0.3,1,0.5c-1.1,2.4-2,4.9,1.1,7.1c0.6,0.4,1.3,0.7,1.9,0.8c0.4,0.7,2.3,1.2,2.8,0.5c0.6-0.1,1.3-0.3,2-0.4
			c2.1-0.9,3-2.8,3-5.2c1.4-0.1,1.8-0.7,2.5-1.3l0.2,0.4c0.6,1,0,2.7-0.5,3.4c-0.4-0.4-0.8-0.8-1.1-1.1h-0.1
			c0.3,1.1,1.1,2.3,0.6,3.6l-0.3-0.1c-0.2-0.6-0.4-0.9-1.1-1.1v0.1c0.8,1.3,1.6,3.7,0,4.9h-0.1c0-1.2-0.5-2.1-1.2-2.7l-0.2,0.3
			c0.3,0.8,1.3,2.8,0.7,3.8c-1-0.7-2.1-1.8-3.1-2.6l0.5,1c0.6,1,1.3,2.3-0.2,4.5c-0.8-2.4-4-4.2-4.6-5.6c-0.2,2.4,2.9,4.1,0.5,7.5
			l-0.2-0.1c-0.6-2.1-2.4-3.2-3.5-4.9c-0.7-1.2-1.1-2.1-0.6-4l-0.5,0.2c-0.2,0.4-0.6,1.1-0.8,1.5c-0.4-0.2-0.3-0.5-0.4-0.7
			c-0.4-1.5,0.6-2.1,1-3.4l0.1-0.4c0,0-0.1-0.4-0.4,0.3c-0.3,0.6-0.4,0.8-0.9,1.1l0-0.7c0.3-0.5,0.5-1.1,0.5-1.9l-0.2,0.1l-0.2,0.4
			c-0.1,0.3-0.2,0.4-0.3,0.7C36.1,25.2,35.9,25.2,35.9,25.1L35.9,25.1z M27.2,10.4c0-0.4,0.6-0.4,0.9-0.4c0.9,0,0.9,0.3,1.4,0.7
			c1,1.2-1.1,2.4-1.9,6.2c-0.1,0.3-0.2,0.5-0.2,0.5l-0.2-0.4C26.6,14.7,27.1,12.8,27.2,10.4L27.2,10.4z M36.1,35.5
			c-0.6,0.8-1.5,1.2-2.6,1.5v-3.3l-0.1,0c-0.8,0.5-1.8,1.2-3.2,0.8c0.5-1.1,0.7-2.6,0.5-2.5h-0.1c-1.2,0.3-2.1,0.8-3.3,0.6
			c-0.4-0.1-0.2-0.2-0.1-0.4c0.3-0.7,0.6-1.5,0.8-2.2c-1.3,0.2-2.4,0.4-3.6-0.1c0.3-0.3,0.7-0.6,1-0.9c0.2-0.3,0.4-0.6,0.6-1
			l-0.2-0.3c-1.1,0.3-2.2-0.2-3.1-0.6c0.3-0.4,0.5-0.6,1-1c0.5-0.2,0.9-0.5,0.7-0.7l-0.3-0.3c-1.2-0.2-2.5-0.2-3.4-1l0.4-0.4
			c1.1-0.9,1.3-0.8,2.9-0.7c0,0,0.2,0,0-0.3c-0.7-1.1-0.4-3.5-0.5-3c-0.3,1.6-2.7,1.8-2.6,1.2c0.1-2.7-1-1.8-1.2-2.5
			c-0.1-0.5,0.2-1,1-1.4c1.6-1,2.6,0.9,2.3-0.1c-0.2-0.2-0.2-0.5-0.5-0.6c-1.3-0.2-2.4-0.8-2.7-1.5c-0.2-0.6-0.2-1.5,0.3-2.2
			l0.6-0.4c1.4-0.2,2.7,2.4,2.8,1.8c-0.7-2.1-1-4.4,0.9-5.2c0.4-0.1,1.1-0.1,1.7,0.4c0.9,1.1-0.1,3.9,0,6c0.1,2.3,1.4,5.1,2.4,6.9
			c0.9,1.3,1.9,2.6,3.2,3.8c1.2,0.9,3,2.1,4.2,2.3c0.2,0.4,0.5,1,0.6,1.5c0.2,0.2,0.4,0.4,0.7,0.7c0.6,1,1.6,2.3,3.7,5l0.2,0.6
			C39.2,36.5,37.7,36.1,36.1,35.5L36.1,35.5z M22.7,33.3c1.9,0.3,3.4,2.6,4.3,3.9v0.1h-0.6c-1.9-0.6-3.7-0.6-4.4-2.5
			C22.2,34.1,22.4,33.8,22.7,33.3L22.7,33.3z M91.4,36.1c0.2,0.3,0.3,1.9-0.9,2.1c0.1,1.8-0.9,3.1-1.2,3.4c-1.2-0.7-1.8-1.5-2.6-2.2
			l-0.3,0.2c0.3,1.3-1.1,3-2.2,3.3c-0.3-1.1-0.4-2.2-1-3.1c-0.5-0.3-0.3,0.1-0.4,0.2c-0.1,1.9-1,2.9-2.1,3.8
			c-0.1-0.1-0.6,0.2-0.4-0.1c-0.4-1.5-1.3-2.4-2.5-3.2l-0.2,0.1c0.1,2.2-0.9,3.1-2.2,3.8L75,44.2c-1.2-1.1-0.6-1.3-0.9-2.3
			c-0.5,0-0.9,0.1-1.6-0.1c-0.3,0-0.1,0.2-0.1,0.3c0.4,0.8,0.4,1.5,0.1,2.4L72,44.8c-0.7-0.7-1.7-0.6-2.5-0.4
			c-0.8-1.3,0-2.2-0.3-2.6c-1,0.8-2.6,3.1-4.7,2.2c-0.3-0.2-0.4,0.1-0.9-0.7c0-1,0.3-1,0.7-1.6c0.9-0.4,1.8-0.8,2.7-1.2v-0.1
			c-0.5,0-1.9,0.2-3.1,0.9c-1.4-0.1-3.6-1.2-1.9-2.5c2.4-1.4,12.9,1.9,18.5-2.4c0.3-0.2,0.2-0.5,0.2-0.6c-3.2-2.1-4.2-4.9-1.3-8
			c0.2,0,2.9-0.6,6.3,0c0.4,0,0.8,0.1,1.1,0.4C85.7,32.4,89.8,34.2,91.4,36.1L91.4,36.1z M113.1,41.2c-0.6-0.2-0.5-0.2-0.8-0.5
			c-0.5-1-0.2-1.9,0.3-2.1c1.4,0,2.6,0.6,3.4,1.2l-0.5,0.2C114.5,40.3,113.8,41.4,113.1,41.2L113.1,41.2z M124.8,41.3
			c-1-0.1-1.1-0.4-1.6-1l-0.3,0.1c-0.3,1.5-0.7,2.6-1.6,3.4c-1-0.3-1.2-0.8-2.5-0.3l-0.2-0.6c0.2-0.9,0.5-1.2,0.8-1.9l0.2-0.3
			c0.1-0.2,0.2-0.4-0.1-0.2l-0.9,0.7c-0.4,1.3-0.7,2.4-2.3,2.5c-1-0.6-1.1-1.6-1.9-2.4l0.1-0.2c1.6-0.6,3.1-1.2,4.7-1.9
			c1-3,0.1-4.8-2-5.6c-4.5-1.7-16.9,1.8-22.7,0.3c-2.3-0.6-5.5-2.6-6.4-4.7c-0.3-0.6-0.4-1.7,0-2.6c0.1-0.3-0.3-0.2-0.4-0.2
			c-0.1,0.4-0.3,0.7-0.5,1.1c-1.2-0.2-2.4-0.5-3.6-0.7c-5.6-0.2-9.4,1.9-12,3.1c-5.3,2.3-8.6,6.4-19.2,4.9c-0.4-0.2-0.5-0.1-0.6,0
			c0.1,2.1,1.4,2.4,1.5,4.6c-0.8,1.3-1.9,1.8-3.1,2.4c-0.3,0.2-0.4-0.4-0.6-0.9l-0.3,0.4c0.2,1.7-0.9,2.4-2.1,3.1
			c-0.3,0.2-0.4,0.2-0.5-0.6c-0.4-0.7-0.6-0.8-1-1.4c-0.2-0.3-0.3-0.3-0.2,0.1c-0.1,1.3-0.8,1.9-1.7,2.3c-0.4,0.3-0.6,0.3-0.5-0.1
			c-0.1-1.1-0.6-1.9-1.5-2.1c-0.1,1.6-1.2,2-2.3,2.6c-0.4,0.2-0.5,0.1-0.4-0.4c0.2-0.8,0.1-2-0.7-2.3c-0.3,1.5-1.9,2.5-3.6,2.6
			c0.2-1,0.7-1.6,0.6-2.7l-0.2-0.5c-0.6,1.3-1.5,2-2.9,2.6c-0.3,0.1-0.8,0.3-0.9,0.2c0.2-0.1,0.4-1.2,0.9-1.6
			c0.4-0.6,0.8-0.8,1.3-1.3l-0.2-0.1c-0.9-0.1-1.9-0.1-2.8-0.1c0.1,1.2,0,1.9-0.7,2.5c-0.5-0.2-1-1-2.6-0.9
			c-0.5-0.5-0.1-0.4-0.1-1.2c0.3-0.6,0.5-0.6,0.9-1.2l-0.1-0.1c-0.9,0.6-4.7,3.9-6.1,1.5c-0.4-0.4-0.3-0.6-0.2-1.1
			c0.9-0.9,2.5-0.8,3.6-1.6l-0.2-0.3c-1.4,0.1-3,0.9-3.7,0.5c-0.6-0.3-0.8-0.9-1.3-1.3c0-0.7,0.1-1.2,0.3-1.6l0.4-0.1
			c4.8,1.5,10.6,3.7,17,2.1c1.4-0.6,2.9-1.1,4.3-1.7l0.1,0.1c0.1,0.5,0.2,1.1,0.2,1.6l0.4-0.1c1.7-2.2,2.3-2.5,1.6-6l0.7,0.6
			c1,1.1,1.8,1.5,1,3.6c2.2-0.4,3-2.7,2.7-4.8c0.1,0.1,0.6,0.3,0.7,0.6c0.2,0.4,0.3,0.9,0.5,1.2l0.5-0.8c0.4-1.6,1.2-0.8,1.9-3
			c0.1-0.5,0-1.3,0.1-1.8c0.1-0.3,0.3-0.4,0.4-0.7c0.1-0.6,0.2-1.5,0.2-2.1c0.2-0.3,0.4-0.5,0.6-1c0.3-0.7,0.5-1.7,0.5-2.6
			C57,22,61,22.5,64.6,22.5c2.5-0.1,5-0.4,7.5-0.6c16.7-3.1,21.1-2.5,31.3-0.5c4.1,0.8,11.7,0.7,11.1-3.6c-0.6-4.1-9.7-4-14.2-3
			c-8.1,1.9-16.4,3-24.9,4.6c-3.8,0.7-9.4,1.6-13,0.1c-3.7-1.5-6.2-5.6-2.6-9c4.3-4.1,16.9-2.4,20-7.1c1.3,0.8,0.1,3.5-0.3,4.4
			c1.6-0.4,2.6-1.4,4.7-1.7c2.9-0.5,5.5,1.1,8.4,0.4c2.7-0.6,5.3-3.3,8.5-1.7L101,5c-3.1,0.6-4.9,3.5-7.6,4.7
			c-2.2,0.9-5.3,0.2-7.6,0.3l0.2,0.2c3.3,1.4,2.9,3,4.7,4.3l-0.6,0.3c-1.5,0.8-3.8,0.1-5.2-0.5c-1.5-0.9-3-1.9-4.5-2.8
			c-4.1-2.3-16.6-1.9-18.2,2.3c-1.1,2.6,2.1,4,6.2,3.7c3.2-0.3,6.6-1,7.9-0.9v-0.1l-0.2-0.4l-0.7-0.4l0.1-0.2
			c1.5-0.3,2.2,0.3,3.4,0.6c0.3-0.9,0.6-1.7,1.2-2.2c1.3,0.3,3.2,1.7,4,1c1.6,0.8,5.6,2.2,7.7-0.4c-0.8-0.3-2.2-1.5-2.4-2.3
			c1.5,0.3,3,1.6,4.7,1.7l0.2-0.4c0.1-0.5-0.1-1-0.1-1.5c0-0.3,0.3-0.4,0.7-0.1c1.3,0.8,3.4,1.8,5.3,1.5c0.1-1-0.9-1.6-0.8-2.8
			c0.8,0.4,4.3,2.2,4.8,1.8c-0.1-0.6-0.4-1.4-0.4-2l0.8,0.7c0.6,0.6,1.3,1.1,1.9,1.7h0.2c0.4-1.1,0.7-2.3,1.3-3.2
			c0.3-0.3,0.2,0.3,0.3,0.4c0.6,1.7,1.8,3.1,3.2,3.7c0.8-1-0.1-2.5,2-4.2l-0.3,1.2c-0.1,2.3,0.1,3.5,1.4,4.6c1.3-0.2,1.2-1.3,2-2.1
			c1.3-1.3,4.2-0.5,5.7-2.7c-1.2,3.8-3.6,3.3-4.6,4.8c-0.8,1.4-0.1,2.3-0.5,4.4c-0.2,1-0.9,1.6-1.4,2.3h0.1c1.5-0.7,2.3-2,3.6-2.7
			c1.8-0.9,4.9,0.4,7.5-0.7c-2.2,4-4.5,2.6-7.3,3.4c-1.2,0.4-1.8,1.1-2.8,1.6c-1.5,0.8-3.4,1-5.3,1.4c-4.1,0.7-10.1-0.6-13-0.7
			l0.1,0.6c2.2,2.7,4.8,4.3,9.1,4.9c5.7,0.8,12.5-5.7,16.5-0.4l-0.3,0.2c-0.3-0.1-0.6-0.2-0.8-0.2l-0.3,0.2c0.9,1.8,3,1.6,3.2,4.3
			l-0.1,0.2c-0.5-0.2-1-0.3-1.5-0.5l-0.1,0.1c0.5,1,1.6,2.1,1.6,3.1c-0.5-0.1-0.9-0.2-1.4-0.2l-0.1,1.3l0.7,0.1
			c0.1,0.1,0.6,0.1,0.9,1C125.1,39.4,125.1,40.1,124.8,41.3L124.8,41.3z M73.9,16c-2.7,0.2-10.8,2.3-11.2-1.3
			C62.6,14.4,62.9,14,63,14c1.1-2.3,5.3-2.5,8.2-2.9c1-0.1,2.1-0.1,3.1-0.1c1.6,0.4,5.6,0.5,6.6,2c-1.5,0.2-1.9,0.9-2.3,2.1
			c-1.4-0.2-3.6-0.8-4.6,0.4C74,15.7,74,15.6,73.9,16L73.9,16z M65.5,36.1c0.1-0.3,0.6-0.3,1.1,0c0.5,0.6,1.4,0.8,1.6,1.6l-0.6,0.2
			c-0.7,0-2.5,0-3.1-0.4C64.8,37.1,65.2,36.6,65.5,36.1L65.5,36.1z M39.8,19.4c0.3-0.8,0.4,0.4,0.3,0.8c-0.1,0.8-0.4,2-0.2,3
			c0.5,1.8,2.1,1.9,2.3,2.5l-0.3,0.2C38.9,24.9,38.5,22.3,39.8,19.4L39.8,19.4z"/>
		<path class="st9" d="M42.8,29.3c0,0,2.2-0.1,2.5-2.7c0.3-2.6-0.2-3.5,0.1-4c0.2-0.3-0.1-0.5-0.3-0.7l-0.6-0.4
			c-0.2,0-0.6,0.2-1.1,0.3c-0.5,0.1-0.9,0.1-1,0.3c-0.3,0.3-0.6,1.7-0.4,2.6c0.1,1,0.7,2.8,0.7,3.5C42.8,28.9,42.5,29.3,42.8,29.3
			L42.8,29.3z"/>
		<path class="st4" d="M69.8,44.7c0,0,0.6,1.6,0.5,1.9c-0.2,0.3,1.2-0.4,1.4-1.6C71.1,44.3,69.8,44.7,69.8,44.7L69.8,44.7z"/>
		<path class="st4" d="M62.7,46.2c0,0,0.6-1.1,1.4-1.5c0.8-0.3-0.9-0.3-1-1.6C63,42.5,62,44.5,62.7,46.2L62.7,46.2z"/>
		<path class="st4" d="M65.1,35.6c0,0-1.3-0.5-2.9,0.5c1.4,0.3,2,1,2,1S64.7,35.7,65.1,35.6L65.1,35.6z"/>
		<path class="st4" d="M61.2,38.9c0,0-1.7,0.7-1.9,2.2c1-0.8,1.3-0.9,1.8-0.7C60.7,39.6,61.2,38.9,61.2,38.9L61.2,38.9z"/>
		<path class="st4" d="M27.3,45.6c0,0,1.2-0.3,1.6-1.4c-0.6-1.1-1.8-0.8-1.8-0.8S27.7,44.4,27.3,45.6L27.3,45.6z"/>
		<path class="st4" d="M20.5,40.7c0,0-1.8,1-1.4,3.1c0.6-1.2,1.6-1.7,1.6-1.7S20.3,41.4,20.5,40.7L20.5,40.7z"/>
		<path class="st4" d="M16.8,37.6c0,0,1.4-0.7,2.4-0.2c0.1-1,0.4-1.3,0.4-1.3S17.3,36.1,16.8,37.6L16.8,37.6z"/>
		<path class="st4" d="M20,33.6c0,0,1.2-0.3,1.8,0.3c0.1-0.7,0.7-1.1,0.7-1.1S20.9,32.1,20,33.6L20,33.6z"/>
		<path class="st4" d="M20.7,11.7c0,0-1.6-1-3.1,0c0.9,0.2,1.9,1.2,1.9,1.2S19.7,11.9,20.7,11.7L20.7,11.7z"/>
		<path class="st4" d="M24.1,8.4c0,0,1-0.4,1.4,0c-0.2-1.3-0.9-2.3-2.3-2.6C24.1,7.1,24.1,8.4,24.1,8.4L24.1,8.4z"/>
		<path class="st4" d="M27.8,9.5c0,0,1.4,0,1.7,0.3C29.4,8.9,29,7.6,27.4,7C28.1,8,28,9.2,27.8,9.5L27.8,9.5z"/>
		<path class="st4" d="M110,41.4c0,0,0.8-1,1.5-1.3c0-1,0.3-1.3,0.3-1.3S110.3,38.9,110,41.4L110,41.4z"/>
		<path class="st4" d="M112.9,44.7c0,0,0.7-1.5,1.8-1.5c-0.4-0.9-0.8-1.6-1-1.5C113.6,41.8,112.3,43.1,112.9,44.7L112.9,44.7z"/>
		<path class="st4" d="M121.2,46.7c0,0-1.1-1-0.3-2.5c-0.8-0.8-1.9-0.4-1.9-0.2C119,44.3,119.7,46.1,121.2,46.7L121.2,46.7z"/>
		<path class="st4" d="M125.4,41.3c0,0,1,0.7,1.1,1.4c0.6-1.5,0.2-3.4-0.2-3.2C125.9,39.6,125.1,40.3,125.4,41.3L125.4,41.3z"/>
		<path class="st4" d="M19.6,18.9c0,0-1.1,0.8-2,0.6c1.6,1.5,2.8,1.6,2.8,1.6S20.7,19.8,19.6,18.9L19.6,18.9z"/>
		<path class="st4" d="M43.1,22.4c0,0-0.7,0.4-0.6,2c0.2,1.7,0.9,3.3,0.9,4c0,0.6,0.7-0.4,1.2-1.2c0.4-0.8-0.1-4,0.2-4.6
			c0.4-0.6-0.3-1-0.6-0.3c-0.3,0.7-0.5,1.5-0.3,3c0.1,1.5-0.4,0.6-0.5-0.5c-0.1-1.2,0.3-1.7,0.3-2.1C43.8,22.1,43.3,22.2,43.1,22.4
			L43.1,22.4z"/>
		<path class="st12" d="M88.1,35.4c0,0,1-0.1,1.1,0.7c0.1,0.8-0.1,0.8-0.6,1c-0.5,0.2-0.5,0.7,0.2,0.5c0.7-0.2,1.1-0.4,1-1.1
			c0-0.8,0-1.5-1.1-1.7C87.8,34.7,87.8,35.4,88.1,35.4L88.1,35.4z"/>
		<path class="st12" d="M40.6,22.2c0,0,1,1.1,1.5,1c0.5-0.1,0,1.4,0,1.4S40.7,23.8,40.6,22.2L40.6,22.2z"/>
		<path class="st12" d="M45.9,24.6c0,0,1.3,0.1,1.8-1.2c0.7-1.3-0.9,0.8-1.5,0.1C45.6,22.9,45.9,24.4,45.9,24.6L45.9,24.6z"/>
		<polygon class="st6" points="35.3,111.4 35.4,60.6 42,54.9 41.9,104.6 35.3,111.4 		"/>
		<polygon class="st8" points="35.3,111.4 35.9,111.4 35.9,60.8 41.5,56 41.3,104.4 35,111.1 35.3,111.4 35.9,111.4 35.3,111.4 
			35.7,111.8 42.2,105 42.3,104.6 42.5,54.9 42.2,54.4 41.7,54.5 35.1,60.2 34.8,60.6 34.8,111.4 35.2,111.9 35.7,111.8 35.3,111.4 
					"/>
		<path class="st16" d="M102.8,103.2l0.2-49l6.3,4.8l0.1,52.1l-74.1,0.2l6.5-6.8c0,0,2.7,1.9,7,1.5c6.7-0.5,14.3-7.3,23.2-0.5
			c4.3-2.7,8.9-4.3,13-3.1c4.1,1.2,8.5,3.2,11.9,2.9C100.4,105.1,102.8,103.2,102.8,103.2L102.8,103.2z"/>
		<path class="st8" d="M102.8,103.2l0.5,0l0.2-48l5.3,4l0.1,51.4l-72.3,0.2l5.7-5.9l-0.4-0.4l-0.3,0.4c0.1,0,2.4,1.7,6.3,1.7
			c0.3,0,0.7,0,1.1,0c4.7-0.4,9.6-3.5,14.8-3.5c2.6,0,5.2,0.7,8.1,2.9l0.6,0c3.2-2.1,6.6-3.4,9.8-3.4c1,0,1.9,0.1,2.8,0.4
			c3.7,1.1,7.8,3,11.3,3c0.3,0,0.6,0,0.9,0c3.6-0.4,6-2.3,6.1-2.3l0.2-0.4L102.8,103.2l-0.3-0.4l-0.4,0.3c-0.8,0.5-2.7,1.6-5.2,1.8
			l-0.7,0c-3.1,0-7.2-1.8-11-2.9c-1-0.3-2-0.4-3.1-0.4c-3.4,0-7,1.4-10.3,3.6l0.3,0.4l0.3-0.4c-3-2.3-5.9-3.1-8.7-3.1
			c-5.6,0-10.6,3.2-14.9,3.5c-0.4,0-0.7,0-1,0c-1.8,0-3.2-0.4-4.2-0.8c-0.5-0.2-0.9-0.4-1.1-0.5l-0.3-0.2l-0.1-0.1l-0.7,0.1
			l-6.5,6.8l-0.1,0.6l0.5,0.3l74.1-0.2c0.3,0,0.5-0.2,0.5-0.5l-0.1-52.1l-0.2-0.4l-6.4-4.8l-0.5,0l-0.3,0.5l-0.2,49L102.8,103.2
			l-0.3-0.4L102.8,103.2L102.8,103.2z"/>
		<path class="st9" d="M105.9,56.3l0.3-0.4l-3.6-2.4l-0.3,0.3l-0.1,0.1c-0.3,0.3-2,1.4-4.5,1.4l-0.3,0c-1.5-0.1-4-1.1-6.7-2.1
			c-2.7-1-5.6-2.1-8.2-2.2l-0.7,0c-3.3,0-5.8,1.1-7.4,2.3c-0.8,0.6-1.5,1.3-1.9,1.8c-0.5,0.6-0.7,1-0.8,1.4l0.5,0.1l0.4-0.2
			c0-0.1-2.2-4-8.1-4.2l-0.3,0c-1.9,0-4.4,0.7-7,1.5c-2.5,0.8-5.1,1.6-6.7,1.9c-0.4,0.1-0.8,0.1-1.3,0.1c-1.5,0-3.2-0.4-4.5-0.8
			c-0.6-0.2-1.2-0.4-1.5-0.6c-0.4-0.2-0.6-0.3-0.6-0.3l-0.3-0.1l-3.1,2.6h-6.9v58.1h31.9v-0.5l-0.5-0.1c0,0-0.1,0.3-0.1,0.7
			c0,0.9,0.2,2.5,1.4,3.9c1.2,1.5,3.3,2.7,7.1,3l0.4,0c0.9,0,2.8-0.1,4.5-1.1c1.7-0.9,3.2-2.8,3.2-6v-0.5l-0.5,0v0.5h32.8V55.9
			l-6.9-0.1L105.9,56.3l0.3-0.4L105.9,56.3v0.5l5.9,0.1l0,56.4H79.4l0,0.5l0,0.5c0,2.8-1.2,4.2-2.7,5.1c-1.4,0.8-3.2,0.9-4,0.9
			l-0.4,0c-3.6-0.3-5.4-1.4-6.4-2.6c-1-1.2-1.2-2.6-1.2-3.3V114l0-0.1l0.1-0.6H33.6V57.2h6.2l3.1-2.6l-0.3-0.4l-0.2,0.5
			c0,0,3.6,1.7,7,1.7c0.5,0,1,0,1.5-0.1c1.8-0.3,4.3-1.2,6.9-2c2.5-0.8,5-1.4,6.7-1.4l0.2,0c2.7,0.1,4.5,1.1,5.6,2
			c0.6,0.5,1,0.9,1.2,1.2l0.3,0.4l0.1,0.1l0.6,1.2l0.3-1.3c0-0.1,0.2-0.5,0.6-1c1.2-1.4,3.9-3.7,8.5-3.7l0.7,0
			c2.4,0.1,5.2,1.1,7.9,2.2c2.7,1,5.2,2.1,7,2.2l0.4,0c3.2,0,5.2-1.6,5.2-1.7l-0.3-0.4l-0.3,0.4l3.4,2.3l0.1,0V56.3L105.9,56.3z"/>
		<line class="st16" x1="102.8" y1="103.2" x2="109.4" y2="111.2"/>
		<polyline class="st8" points="102.4,103.6 109,111.5 109.8,110.9 103.2,102.9 		"/>
		<path class="st17" d="M72.5,105.2c0,0-5.1,4.5-5.3,5.3c-0.2,0.7,0.7,1.2,0.7,1.2s-3.6,4.3,2.5,6.8c6.1,2.5,9-4.6,6.3-8.4
			C73.3,105.2,72.5,105.2,72.5,105.2L72.5,105.2z"/>
		<path class="st11" d="M75.5,111.3l0.4,0.7c0.2,0.4,0.6,1.6,0.6,2c0,1.8-1.6,3.2-3.7,3.2c-2.1,0-3.7-1.5-3.7-3.4
			c0-0.7,0.3-2.1,0.7-2.3c0,0-1-2.5,2.4-3C74.2,108.3,75.9,110.6,75.5,111.3L75.5,111.3z"/>
		<path class="st7" d="M43.9,18.2c1.2,0,1.8,0,2.4,0.5c0.2,0.3,0.1,0.6-0.1,0.7c-0.7-0.1-0.8,0.5-1.4,0.8l-0.3-0.4
			c-0.3-0.4-0.5-0.8-0.8-1.2C43.5,18.2,43.5,18.2,43.9,18.2L43.9,18.2z"/>
		<path class="st10" d="M43.8,18.3c0,0,0.7,0.6,0.8,1.1c0.2,0.4,0.2-0.7,0.5-0.4c0.4,0.2,1.4,0.6,1.1-0.2C46,18,43.8,18.1,43.8,18.3
			L43.8,18.3z"/>
		<path class="st18" d="M40.9,61.2l-0.2-0.9c0,0,0-1.1-0.2-1.4c-0.6-0.2-2.3,1.7-2.5,2.1c-0.2,0.4-0.2,0.4-0.2,0.4l-0.2,1.4l-0.1,3
			l-0.1,2.8l0.1,1.9l-0.2,1.6l0,1.4l0,1l0.1,4.7V81l-0.1,1.2l-0.1,3.1l-0.1,2l0.1,1.5v1.4v2.4v2.3L37.1,99l-0.1,1.6l-0.1,1.7v0.9
			v0.9l-0.3,2.1l-0.3,2l-0.2,0.2l-0.1,0l-0.1-1.6l0-2.3v-4.3l0.1-3.6l-0.1-4.1l0-3.4l0-3.7l0-3.4l0.1-3.1l0-4.5l0.1-8l0.4-5.7
			l1.9-1.9l2.8-2.1l0,5.1L40.9,61.2L40.9,61.2z"/>
		<path d="M62.1,74c0.2-0.2,2.1-0.1,2.4,0c0.3,0,0.7,0.3,0.6,1c-0.2,0.8-0.4,1.7-0.6,1.9l-1.8,0.1C62.5,76.9,61.5,74.8,62.1,74
			L62.1,74z M62,72.6c0.7-0.9,1.2-1.7,1.2-1.7s4.2,0,4.5-0.1c0.3-0.3,0.7-1.4,0.6-1.6c-0.1-0.2-0.8,0.7-1.2,0.7c-0.4,0-3.4,0-3.4,0
			s1.7-3.2,1.9-3.6c0.3-0.1,0.5-0.3,0.5-0.6c0-0.3-1.1-0.8-1.3-0.7l-1,0.5l-2.7,0c0.1-0.4-0.6-1.2-0.8-1.2c-0.2,0-0.1,0.1-0.5,1.2
			c-0.4,1.1-2.2,2.6-2.2,2.6s-0.2,0.2,0.2,0.2c1.4,0,2.7-1.8,2.7-1.8l2.8,0c0.4,0,0.5,0.1,0.4,0.5c-0.1,0.4-1.6,2.9-1.6,2.9
			c-0.8,0-3.1,0-3.8,0c-0.7-0.1-0.9-0.3-1.1,0.2c-0.2,0.5-0.4,1.1-0.4,1.1c0.3,0.4,1.2-0.3,1.6-0.3l2.5,0c0.6,0,0.6,0,0.6,0
			c-0.5,0.8-2.6,3.7-5.4,5c-1.3,0.6-2.9-0.5-2.9-0.2c-0.1,0.8,1,1.5,2.5,1.7c1.3,0.2,3.1-1.6,3.8-2.3c0.7-0.7,0.9-0.4,1,0
			c0.7,2.6,1,3.1,1.4,3.1h3.2c0.4,0,0.6-0.4,1-2.3c0.4-1.9,0.7-2.7,0.2-2.9c-0.5-0.2-4.1-0.1-4.1-0.1C61.9,72.9,61.7,72.8,62,72.6
			L62,72.6z M55.2,72.4c-0.8-0.6-1.6-1.3-2-1.7v-1.5c0,0,1.3,0,2-0.2c0.7-0.2,1.1-0.7,0.2-0.7c-0.9,0-2.2,0-2.2,0s0-1.8,0-2.6
			c0-0.8-0.4-1-0.6-1c-0.3,0-0.8,0.2-0.8,1.2c0,1.1,0,2.4,0,2.4l-3.3,0c0,0-1,1.8-1.1,2.1c-0.2,0.3,0.6-0.2,1.2-0.4
			c0.6-0.2,2.8-0.6,3.3-0.6c0,0,0.2,1.6-1,2.6c-1.2,1-2,2-5.5,2.8c-0.3,0.1,0.2,0.8,1.4,1c1.2,0.2,2.7-0.5,4.6-3.1
			c0.4-0.5,0.5-0.3,0.5,0.3c0,0.6,0.2,3.9-0.1,4.6c-0.3,0.7,0.2,1,0.6,0.2c0.4-0.7,0.6-2.3,0.6-5.8c0-0.4,0.8,0.5,1.7,0.9
			C55.7,73.2,56,73,55.2,72.4L55.2,72.4z"/>
		<path d="M49,86.3c0,0-0.3,1-0.6,1.9c-0.2,0.8-1,1.9-1.3,2.4c-0.3,0.5,0,1.1,0.7,0.6c0.7-0.4,1.7-1.7,1.7-2.2
			c0.6,0,2.4-0.1,2.4-0.1l-0.1,2.4c0,0-2,1.8-4.5,2.4c-0.6,0.1-1.2,0.7-0.2,1.3c0.5,0.2,1.9,0.1,3.5-1.3l0.9-0.6
			c0.1,0,0.1,2.2,0.1,2.8c0,0.6,0.6,0.5,0.8-0.5c0.2-1,0.6-3.4,0.6-3.4s2-1.7,1.5-2.4l-1.3,0.9c0,0,0.1-1.5,0.1-1.8
			c0.6-0.1,2.3-0.3,2.3-0.7c0-0.6-2.4-0.4-2.4-0.4s0.1-1.6,0.1-2.4c0-0.4-0.7-0.7-0.9-0.7c0,0-0.7,0.1-0.7,0.7c0,0.6,0,2.5,0,2.5
			l-2,0c0,0,0.1-0.4,0.1-0.8C49.8,86.4,49.2,85.8,49,86.3L49,86.3z"/>
		<path d="M57.8,84.9c0,0,0.1,2.7-2.3,4.9c-0.2,0.2-0.3,0.8,0.7,0.3c1.1-0.6,1.7-1.7,1.7-1.7h1.6c0.1,0-1.3,5.4-5.2,6.2
			c0,0-0.5,0.2,0.2,0.5c0.7,0.3,2.8-0.4,3.9-1.8c1.2-1.4,2.2-3.7,2.5-4.9c1-0.1,2.1-0.1,2.1-0.1s-1.7,5.4-5.3,7.9
			c-0.2,0.2,0.3,0.3,1.5-0.1c1.2-0.4,3.3-2.4,5.2-8l2.1-0.2c0.2,0.1,0,0.6-0.2,1.4c-0.2,0.7-1.8,4.5-2.8,5.2
			c-0.4,0.3-1.8-0.4-1.8-0.3c0,0.2,1,1.4,1.7,1.4c0.7,0,1.6-0.7,2.4-2.5c0.9-1.8,2.2-4.7,2.3-5.6c0.1-0.9-0.6-1.4-1.6-1.1
			c-1,0.3-3.9,0.8-7.6,0.7c-0.4,0-0.1-0.7,0-1.3c0.1-0.6,0.1-1.7-0.6-1.7C57.5,84.3,57.8,84.9,57.8,84.9L57.8,84.9z"/>
		<path d="M84.8,67.5c0,0.4,0,0.6-0.4,0.6c-0.4,0-3.5,0.4-3.7,0.4c-0.3,0.1-0.8,0.2-0.8-0.2c0-0.4-0.2-1.3-0.2-1.3
			c0.2-0.1,0.2-0.4,0.7-0.4c0.5-0.1,3-0.4,3.8-0.4C85,66.2,84.8,66.5,84.8,67.5L84.8,67.5z M84.8,72.9c0,0.5,0.1,1.3-0.3,1.3
			c-0.4,0-3.7,0.2-4.3,0.4c-0.6,0.2,0-0.2-0.1-1.7c0,0,1.8-0.4,3.5-0.4C85.2,72.4,84.8,72.5,84.8,72.9L84.8,72.9z M79.9,69.7
			c0,0,2.6-0.6,4.6-0.5c0.2,0,0.3,0.4,0.2,1.1c0,0.7,0.1,1-0.5,1c-0.6,0.1-3.8,0.4-4.2,0.5c-0.4,0.1-0.3-0.3-0.3-1.1
			C79.9,70.1,79.8,70,79.9,69.7L79.9,69.7z M85.8,64.9c-0.5-0.1-4.5,0.6-5.8,0.7c-1.3,0.1-2.6-0.4-2.8,0.3c-0.2,0.7,0.5,1.2,1.2,1.3
			c0,0,0.7,2.1,0.1,8.5c-0.1,0.4-0.1,0.9,0.2,0.9c0.7,0,1.1-0.9,1.8-1c0.7,0,4.5-0.3,4.9-0.3c0.5,0,0.4,0.1,0.4-1.7
			c0.1-1.9-0.1-6.1,0.2-7.3C86.3,65.1,86.3,65,85.8,64.9L85.8,64.9z"/>
		<path d="M95.6,65.6c-0.1,0.9,0,1.6-0.4,1.7c-0.4,0.1-3.7,0.6-4.4,0.6c-0.1-0.6-0.3-1.2-0.5-1.6c-0.3-0.6-0.6-0.9-0.4-0.9
			c0,0,2.7-0.1,4-0.2C95.3,65.1,95.7,64.8,95.6,65.6L95.6,65.6z M95.1,71.7c-0.7,0-4.1,0-4.1,0s0.1-1.9,0-2.7c0,0,3.8-0.3,4.1-0.5
			C95.4,68.4,95.1,71.1,95.1,71.7L95.1,71.7z M97.3,78c-0.2-0.7-0.9-3.9-0.9-5.4c0-1.5,0.3-6.9,0.6-7.9c0.4-1,0.4-1.3-0.7-1.3
			c-1.2,0-7.1,0.9-7.8,0.9c-0.6,0-0.8,0.8-0.4,1c0,0-0.1,0.4,0.3,0.5c0.3,0.2,2.6,5.4-0.4,9c-0.4,0.4-2.3,2.7-5.3,2.4
			c-0.4,0-0.9-0.1-0.5,0.6c0.4,0.7,2,1.5,4.3,0.6c2.2-1,4.3-4.8,4.3-5.5c0.6,0,4.4,0,4.4,0s-0.3,4.1,1.4,5.4
			C96.9,78.8,97.4,78.7,97.3,78L97.3,78z"/>
		<path d="M79.1,84.9c0,0,1.1,0.3,2.5-0.2c1.6-0.5,1.7-0.1,1.6,0.4c-0.1,0.5-1.6,0.9-2.3,0.9C78.8,86,78.4,84.9,79.1,84.9L79.1,84.9
			z"/>
		<path d="M77.9,88.7c0,0,1.6,0,3.1-0.2c1.5-0.3,3.1-0.9,3-0.1c-0.1,0.8-1.7,6.3-4.9,7c-0.4,0.1-2.9,0.5-3.3-1.8
			c-0.1-0.6,0.3,0,1,0.2c0.6,0.2,2.1,0.5,3.5-1c1.3-1.5,2-2.3,2.3-3.4c0-0.2,0-0.3-2.2,0c-1.7,0.3-2.6,1.6-3.4,0.2
			C76.6,88.6,77.9,88.7,77.9,88.7L77.9,88.7z"/>
		<path d="M87,83.8c0,0,9.1-0.2,9.8-0.2c0.7,0-0.2,0.8-0.6,0.8c-0.5,0.1-7.3,0.3-8.2,0.3c-0.9,0-1.1,0.7-1.5,0.4
			C86,84.8,86.9,83.9,87,83.8L87,83.8z"/>
		<path d="M91.2,82.3c0,0,0.5-0.4,0.9-0.2c0.4,0.2,0,0.8-0.1,1.4c-0.1,0.6-0.3,2.4-0.3,2.4l-0.4,0.5c0,0-0.6-0.1-0.7-0.5
			C90.5,84.8,90.7,82.4,91.2,82.3L91.2,82.3z"/>
		<path d="M94.6,89.3c-0.4,0.1-1.5,0.3-1.5,0.1l0.1-2.5c0,0,0.9,0,1.4,0c0.5,0,0.5,0,0.5,0.3C95.1,87.5,95,89.2,94.6,89.3L94.6,89.3
			z M92.2,89.6c-0.2,0.1-1.4,0.2-1.7,0.2c-0.4,0-0.3-0.1-0.4-0.6c0-0.5-0.2-2.1,0.3-2.2l1.8-0.1c0.2,0,0.1,0.8,0.1,1.5
			C92.3,89.1,92.4,89.4,92.2,89.6L92.2,89.6z M89.3,89.6c-0.1,0.5-1.3,0.3-1.8,0.2c-0.2,0-1-2.1-0.6-2.2c0,0,2-0.6,2.2-0.2
			C89.2,87.7,89.4,89.1,89.3,89.6L89.3,89.6z M96.5,86.7c0-0.4-1.3-0.8-4.2-0.8c-2.9,0-6.7,1.1-6.7,1.1c-0.4,0.5,0.1,1.4,0.3,2.2
			c0.2,0.7,0.6,1.6,1,1.6c1,0.1,4.3-0.1,6.2-0.3c1.9-0.1,2.3-0.3,2.7-0.7C96.2,89.4,96.5,87.1,96.5,86.7L96.5,86.7z"/>
		<path d="M83.2,94.5c0,0,2.8-2.1,3.2-2.4c0.4-0.3,1,0.1,1.4,0.3c0.4,0.2,5,2.6,7.4,2.4c1.6-0.1,3.1-1.3,3.1-1.3c0,0,0.2,0.5-0.1,1
			c-0.3,0.5-1.7,2.1-4,1.8c-1.5-0.2-5.9-2.7-7-3.2c-0.3-0.1-0.4-0.1-0.7,0.1c-0.3,0.3-1.9,1.7-2.3,2c-0.4,0.3-0.5,0.2-0.8,0
			C83,95,83,94.7,83.2,94.5L83.2,94.5z"/>
		<path d="M91.2,92.7c0,0,0.5-0.2,0.9-0.2c0.5,0,0.7,0.3,1,0c0.3-0.3,0.1-0.7-0.5-0.9c-0.6-0.2-1.4-0.1-1.9,0.5
			C90.3,92.5,90.9,92.9,91.2,92.7L91.2,92.7z"/>
		<path d="M95,91.8c0,0,1.4,0.8,1.8,0.8c0.4,0,0.6-0.2,0.3-0.7c-0.4-0.5-1-0.9-1.8-0.9C94.8,91,94.9,91.7,95,91.8L95,91.8z"/>
	</g>
</g>
</svg>
