<?xml version="1.0" encoding="utf-8"?>
<!-- Generator: Adobe Illustrator 23.0.1, SVG Export Plug-In . SVG Version: 6.00 Build 0)  -->
<svg version="1.1" xmlns="http://www.w3.org/2000/svg" xmlns:xlink="http://www.w3.org/1999/xlink" x="0px" y="0px"
	 viewBox="0 0 824.7 498.9" style="enable-background:new 0 0 824.7 498.9;" xml:space="preserve">
<style type="text/css">
	.st0{opacity:0.75;}
	.st1{fill:#009FE3;}
	.st2{fill:#2B2171;}
	.st3{fill:url(#SVGID_1_);}
	.st4{fill:#95C11F;}
	.st5{fill:#318C2C;}
	.st6{fill:url(#SVGID_2_);}
	.st7{fill:url(#SVGID_3_);}
	.st8{fill:#EB5D40;}
	.st9{fill:url(#SVGID_4_);}
	.st10{fill:#00B1EB;}
	.st11{stroke:#312783;stroke-width:0.4737;}
</style>
<g id="Layer_1">
</g>
<g id="Layer_4">
	<g>
		<g class="st0">
			<path d="M22.7,498.9c-6,0-12.2-1.6-17-5.1l0.4-19.1c5.4,4.1,11.5,5.8,17.4,5.8c5.7,0,13.3-2.3,13.3-13.3c0-21.4-31.2-18-31.2-54
				c0-24.2,13.2-34.8,27-34.8c6,0,12,1.2,17.5,5.1L49.6,402c-4.8-3.5-10.4-5.6-16-5.6c-6.6,0-11.8,4-11.8,12.7
				c0,21.7,31.2,18.1,31.2,54.2C53,490.2,37.4,498.9,22.7,498.9z"/>
			<path d="M168.8,496.8v-8.2h-0.1c-6.7,6.4-13.7,10.4-21.6,10.4c-17,0-25.8-13.3-25.8-38.7v-79.7h15.5v77.6
				c0,15.8,7,21.8,16.9,21.8c5.1,0,10.1-2.1,14.6-5.6v-93.8h15.6v116.3H168.8z"/>
			<path d="M280.9,454.6c-3,0-5.7-0.2-8.9-0.2v42.3h-15.5v-115c7.7-1.5,15.6-2.1,23.4-2.1c15.7,0,31.1,8.1,31.1,36.7
				C311,442.7,296.7,454.4,280.9,454.6z M279.6,396.1c-2.5,0-5.1,0.2-7.6,0.7v41c2.5,0.5,4.9,0.5,7.4,0.5c8.9,0,15.8-6.6,15.8-21.1
				C295.2,402.4,288.4,396.1,279.6,396.1z"/>
			<path d="M416.6,496.8c-1.5-9.9-3.2-19.9-5.1-29.8h-28c-1.8,9.7-3.5,19.8-5.1,29.8h-14.6c6.7-38.7,15.5-79.4,26.1-116.3h16.6
				c10.9,37.4,20.2,77.6,26.8,116.3H416.6z M397.1,402.7H397c-3.6,14.5-7.1,30.5-10.4,47h21.5C404.7,433.2,401,417,397.1,402.7z"/>
			<path d="M543,496.8h-27.7c-14.2,0-17.5-11.7-17.5-27.4v-89h43.5l1.1,18.3h-29.1v28.7h26.9V445h-26.9v21.3c0,5.9,1.3,12.2,7,12.2
				h23.7L543,496.8z"/>
			<path d="M654.3,496.8c-1.9-10.4-6.9-29.2-11.9-37.9c-3.1-5.4-6.4-9.9-11.2-9.9c-0.9,0-1.8,0.2-2.7,0.2v47.6H613v-115
				c6.8-1.5,16.1-2.1,24.7-2.1c15.7,0,28.2,9.4,28.2,33c0,15.2-6.8,25.2-15.6,29.5v0.2c9.1,8.9,15.3,31.1,20.2,54.5H654.3z
				 M635.5,395.5c-2.3,0-4.7,0.2-7,0.7v37.1c2.4,0.2,4.8,0.3,7.2,0.3c7.9,0,14.4-6.4,14.4-19.3C650.1,400.9,643.7,395.5,635.5,395.5
				z"/>
			<path d="M766.1,499.7c-23,0-35.3-24.6-35.3-60.3c0-36.6,13.1-61.8,36.5-61.8c23,0,35.3,24.6,35.3,60.1
				C802.6,474.5,789.5,499.7,766.1,499.7z M766.7,394.3c-15.6,0-19.6,22.9-19.6,44.7c0,21.4,4,44.2,19.4,44.2
				c15.6,0,19.6-22.9,19.6-44.7C786.2,416.9,782.2,394.3,766.7,394.3z"/>
		</g>
		<g>
			<g>
				<path class="st1" d="M21.8,498.1c-6,0-12.2-1.6-17-5.1l0.4-19.1c5.4,4.1,11.5,5.8,17.4,5.8c5.7,0,13.3-2.3,13.3-13.3
					c0-21.4-31.2-18-31.2-54c0-24.2,13.2-34.8,27-34.8c6,0,12,1.2,17.5,5.1l-0.4,18.6c-4.8-3.5-10.4-5.6-16-5.6
					c-6.6,0-11.8,4-11.8,12.7c0,21.7,31.2,18.1,31.2,54.2C52.1,489.3,36.5,498.1,21.8,498.1z"/>
				<path class="st1" d="M167.9,495.9v-8.2h-0.1c-6.7,6.4-13.7,10.4-21.6,10.4c-17,0-25.8-13.3-25.8-38.7v-79.7h15.5v77.6
					c0,15.8,7,21.8,16.9,21.8c5.1,0,10.1-2.1,14.6-5.6v-93.8H183v116.3H167.9z"/>
				<path class="st1" d="M280.1,453.8c-3,0-5.7-0.2-8.9-0.2v42.3h-15.5v-115c7.7-1.5,15.6-2.1,23.4-2.1c15.7,0,31.1,8.1,31.1,36.7
					C310.2,441.9,295.9,453.6,280.1,453.8z M278.7,395.3c-2.5,0-5.1,0.2-7.6,0.7v41c2.5,0.5,4.9,0.5,7.4,0.5
					c8.9,0,15.8-6.6,15.8-21.1C294.3,401.5,287.5,395.3,278.7,395.3z"/>
				<path class="st1" d="M415.7,495.9c-1.5-9.9-3.2-19.9-5.1-29.8h-28c-1.8,9.7-3.5,19.8-5.1,29.8H363
					c6.7-38.7,15.5-79.4,26.1-116.3h16.6c10.9,37.4,20.2,77.6,26.8,116.3H415.7z M396.3,401.9h-0.1c-3.6,14.5-7.1,30.5-10.4,47h21.5
					C403.9,432.3,400.1,416.2,396.3,401.9z"/>
				<path class="st1" d="M542.1,495.9h-27.7c-14.2,0-17.5-11.7-17.5-27.4v-89h43.5l1.1,18.3h-29.1v28.7h26.9v17.6h-26.9v21.3
					c0,5.9,1.3,12.2,7,12.2h23.7L542.1,495.9z"/>
				<path class="st1" d="M653.4,495.9c-1.9-10.4-6.9-29.2-11.9-37.9c-3.1-5.4-6.4-9.9-11.2-9.9c-0.9,0-1.8,0.2-2.7,0.2v47.6h-15.5
					v-115c6.8-1.5,16.1-2.1,24.7-2.1c15.7,0,28.2,9.4,28.2,33c0,15.2-6.8,25.2-15.6,29.5v0.2c9.1,8.9,15.3,31.1,20.2,54.5H653.4z
					 M634.6,394.6c-2.3,0-4.7,0.2-7,0.7v37.1c2.4,0.2,4.8,0.3,7.2,0.3c7.9,0,14.4-6.4,14.4-19.3C649.2,400,642.9,394.6,634.6,394.6z
					"/>
				<path class="st1" d="M765.2,498.9c-23,0-35.3-24.6-35.3-60.3c0-36.6,13.1-61.8,36.5-61.8c23,0,35.3,24.6,35.3,60.1
					C801.7,473.7,788.6,498.9,765.2,498.9z M765.9,393.4c-15.6,0-19.6,22.9-19.6,44.7c0,21.4,4,44.2,19.4,44.2
					c15.6,0,19.6-22.9,19.6-44.7C785.3,416,781.4,393.4,765.9,393.4z"/>
			</g>
		</g>
	</g>
	<g>
		<path class="st2" d="M1.6,97.6h19.7v173.1H1.6V97.6z"/>
		<path class="st2" d="M116.8,123.3c0-7.9-3.8-11.7-10.2-11.7c-7.9,0-10.2,5.7-10.2,12.4v19.4c0,5.1,2.2,9.8,7.3,17.2l24.8,34.6
			c4.8,6.7,7,11.1,7,19v29.2c0,18.7-10.5,29.2-29.5,29.2c-16.2,0-29.2-7.6-29.2-27v-30.2h19.7v26.7c0,8,1.3,14.6,9.8,14.6
			c7.9,0,9.5-7,9.5-14.9v-20.9c0-6.4-2.5-12.7-7.3-19.1L86,171c-5.7-7.6-9.2-13.6-9.2-23.2v-22.2c0-19.1,13-29.9,30.8-29.9
			c21,0,27.6,14.3,27.6,24.8v28.6h-18.4V123.3z"/>
		<path class="st2" d="M236.8,126.2c0-10.5-3.5-14.6-11.4-14.6c-11.1,0-12.7,6.7-12.7,16.8v16.2H193v-20.3c0-17.8,14.9-28.6,33-28.6
			c19.1,0,30.5,7.9,30.5,30.2v144.8h-18.4v-9.2h-0.6c-5.4,6.7-11.1,11.1-22.9,11.1c-15.2,0-23.5-11.1-23.5-28.6v-47
			c0-21.6,14.6-33.4,45.7-33.4V126.2z M236.8,179.6c-10.2,0-26,4.1-26,18.7v39.4c0,12.4,1.9,19.1,12.4,19.1
			c8.6,0,13.7-6.4,13.7-17.8V179.6z"/>
		<path class="st2" d="M357.7,214.8h19.7v24.4c0,26.4-15.9,33.3-32.7,33.3c-16.8,0-32.7-7-32.7-33.3V129.1
			c0-26.4,15.9-33.3,32.7-33.3c16.8,0,32.7,7,32.7,33.3v60h-45.7v50.2c0,12.7,5.1,17.5,13,17.5c7.9,0,13-4.8,13-17.5V214.8z
			 M357.7,129.1c0-12.7-5.1-17.5-13-17.5c-7.9,0-13,4.8-13,17.5v42.2h26V129.1z"/>
		<path class="st2" d="M4.9,308.1v29.2H1.4v-29.2H4.9z"/>
		<path class="st2" d="M10.9,315.7h3v3.3c0.6-1.3,1.7-3.9,5.6-3.9c2.4,0,4.4,1.1,5.2,2.9c0.6,1.3,0.7,3.1,0.7,5.6v13.7h-3.2V324
			c0-3.6,0-6.2-3.3-6.2c-2.6,0-4.6,1.8-4.6,7.9v11.6h-3.2V315.7z"/>
		<path class="st2" d="M40.7,321.3c-0.3-0.9-1.2-3.5-4.2-3.5c-2.5,0-3.7,1.7-3.7,3.3c0,2.2,1.5,2.7,5,3.7c2.8,0.9,6.6,2.1,6.6,6.5
			c0,3.1-2.4,6.6-7.8,6.6c-6.5,0-7.4-4.5-7.7-6.2l3-0.7c0.2,1.1,0.8,4.2,5,4.2c3.1,0,4.3-2,4.3-3.5c0-2.4-2.3-3.1-4.2-3.7
			c-3.7-1.1-5.2-1.7-6.2-3.2c-0.7-0.9-1-2-1-3.2c0-2.6,2.1-6.4,7-6.4c5.2,0,6.4,3.9,6.8,5.5L40.7,321.3z"/>
		<path class="st2" d="M51.7,310.4v5.3h4.2v2.6h-4.2v10.8c0,4.2,0,5.9,3.3,5.9c0.8,0,1.4-0.1,1.9-0.2v2.7c-0.8,0.1-1.7,0.3-3,0.3
			c-5.5,0-5.5-3.5-5.5-8.7v-10.8h-3.1v-2.6h3.1v-5L51.7,310.4z"/>
		<path class="st2" d="M59.2,311.9v-3.7h3.5v3.7H59.2z M62.5,315.7v21.6h-3.2v-21.6H62.5z"/>
		<path class="st2" d="M71.8,310.4v5.3H76v2.6h-4.2v10.8c0,4.2,0,5.9,3.3,5.9c0.8,0,1.4-0.1,1.9-0.2v2.7c-0.8,0.1-1.7,0.3-3,0.3
			c-5.5,0-5.5-3.5-5.5-8.7v-10.8h-3.1v-2.6h3.1v-5L71.8,310.4z"/>
		<path class="st2" d="M82.6,315.7v13.6c0,3.6,0,5.9,3.3,5.9c4.7,0,4.7-6.3,4.7-9.7v-9.8h3.2v21.6h-3v-3.2c-0.7,1.4-1.9,3.8-5.6,3.8
			c-1,0-3.7-0.1-5-2.8c-0.7-1.5-0.7-4.4-0.7-5.7v-13.6H82.6z"/>
		<path class="st2" d="M103,310.4v5.3h4.2v2.6H103v10.8c0,4.2,0,5.9,3.3,5.9c0.8,0,1.4-0.1,1.9-0.2v2.7c-0.8,0.1-1.7,0.3-3,0.3
			c-5.5,0-5.5-3.5-5.5-8.7v-10.8h-3.1v-2.6h3.1v-5L103,310.4z"/>
		<path class="st2" d="M135.3,315.7c-0.8-2.4-1.8-5.2-5.9-5.2c-4,0-4.9,3-4.9,4.5c0,3.1,2.4,4,6.4,5.6c3.4,1.3,8.3,3.2,8.3,8.8
			c0,3.6-2.4,8.5-9.3,8.5c-2.5,0-5.3-0.7-7.2-2.4c-2.1-1.9-2.6-4.2-2.9-5.8l3.2-0.9c0.4,1.9,1.4,6.2,6.9,6.2c4.4,0,5.6-3.1,5.6-5
			c0-3.5-3-4.7-5.7-5.8c-3.4-1.3-4.7-1.8-6.3-3.2c-1.5-1.4-2.5-3.6-2.5-5.8c0-3.5,2.6-7.7,8.6-7.7c6.6,0,8.1,5.2,8.7,7.3
			L135.3,315.7z"/>
		<path class="st2" d="M147.1,315.7v13.6c0,3.6,0,5.9,3.3,5.9c4.7,0,4.7-6.3,4.7-9.7v-9.8h3.2v21.6h-3v-3.2
			c-0.7,1.4-1.9,3.8-5.6,3.8c-1,0-3.7-0.1-5-2.8c-0.7-1.5-0.7-4.4-0.7-5.7v-13.6H147.1z"/>
		<path class="st2" d="M166.9,315.7v3.8c0.6-1.3,1.8-4.2,5.7-4.2c4.6,0,7.6,4.3,7.6,10.9c0,2.2-0.5,11.5-7.6,11.5
			c-3.2,0-4.3-1.5-5.4-3.2v10.1H164v-28.9H166.9z M167.2,328.1c0,1.8,0,3.5,1.2,5c0.9,1.2,2.1,1.9,3.5,1.9c1.4,0,2.5-0.5,3.5-2.1
			c1-1.8,1.3-4.7,1.3-6.5c0-3.1-0.7-8.4-4.7-8.4c-1.3,0-2.6,0.4-3.7,2.4c-1,1.8-1,3.1-1,4.6V328.1z"/>
		<path class="st2" d="M187.1,326.9c0,1.9,0,8.3,5,8.3c3.1,0,3.9-2.7,4.4-4.3l3,0.7c-1.4,5-4.5,6.3-7.6,6.3c-6.2,0-8.2-5.4-8.2-11.1
			c0-8.1,3.8-11.7,8.4-11.7c4.9,0,7.6,3.7,7.7,11.8H187.1z M196.2,324.3c0-3.2-1-6.5-4.4-6.5c-3.3,0-4.2,3.5-4.5,6.5H196.2z
			 M196.1,305.7l2.2,2.4l-7.3,4.6l-1.5-1.6L196.1,305.7z"/>
		<path class="st2" d="M207.1,315.7v4.5c0.6-1.5,2.1-5.4,6.2-5.1v3.6c-3.5-0.4-5.9,2.1-5.9,7.4v11.1h-3.2v-21.6H207.1z"/>
		<path class="st2" d="M215.2,311.9v-3.7h3.5v3.7H215.2z M218.6,315.7v21.6h-3.2v-21.6H218.6z"/>
		<path class="st2" d="M226.6,326.9c0,1.9,0,8.3,5,8.3c3.1,0,3.9-2.7,4.4-4.3l3,0.7c-1.4,5-4.5,6.3-7.6,6.3c-6.2,0-8.2-5.4-8.2-11.1
			c0-8.1,3.8-11.7,8.4-11.7c4.9,0,7.6,3.7,7.7,11.8H226.6z M235.7,324.3c0-3.2-1-6.5-4.4-6.5c-3.3,0-4.2,3.5-4.5,6.5H235.7z"/>
		<path class="st2" d="M246.8,315.7v13.6c0,3.6,0,5.9,3.3,5.9c4.7,0,4.7-6.3,4.7-9.7v-9.8h3.2v21.6h-3v-3.2
			c-0.7,1.4-1.9,3.8-5.6,3.8c-1,0-3.7-0.1-5-2.8c-0.7-1.5-0.7-4.4-0.7-5.7v-13.6H246.8z"/>
		<path class="st2" d="M266.6,315.7v4.5c0.6-1.5,2.1-5.4,6.2-5.1v3.6c-3.5-0.4-5.9,2.1-5.9,7.4v11.1h-3.2v-21.6H266.6z"/>
		<path class="st2" d="M300.9,308.1v29.2H298v-3c-0.6,1-1.9,3.5-5.8,3.5c-6.9,0-7.6-7.7-7.6-10.9c0-7.5,3.2-11.5,7.7-11.5
			c3.7,0,4.8,2.3,5.4,3.4v-10.5H300.9z M297.7,324.4c0-1.1,0-2.9-1.2-4.6c-1-1.4-2.4-1.9-3.6-1.9c-3.9,0-4.7,4.4-4.7,8.4
			c0,5,1.1,8.7,4.9,8.7c1.4,0,2.7-0.7,3.5-1.7c1-1.3,1.1-3.1,1.1-5.2V324.4z"/>
		<path class="st2" d="M309,326.9c0,1.9,0,8.3,5,8.3c3.1,0,3.9-2.7,4.4-4.3l3,0.7c-1.4,5-4.5,6.3-7.6,6.3c-6.2,0-8.2-5.4-8.2-11.1
			c0-8.1,3.8-11.7,8.4-11.7c4.9,0,7.6,3.7,7.7,11.8H309z M318.1,324.3c0-3.2-1-6.5-4.4-6.5c-3.3,0-4.2,3.5-4.5,6.5H318.1z"/>
		<path class="st2" d="M340.2,308.1v29.2H337v-29.2H340.2z"/>
		<path class="st2" d="M345.9,308.1h4v4.3l-2.8,5.3h-1.9l2.6-5h-1.8V308.1z"/>
		<path class="st2" d="M365,308.1l7.8,29.2h-3.6l-2.1-8.4h-8.7l-2.1,8.4h-3.6l8.2-29.2H365z M366.3,326.1l-3.6-14.5l-3.7,14.5H366.3
			z"/>
		<path class="st2" d="M378.7,326.9c0,1.9,0,8.3,5,8.3c3.1,0,3.9-2.7,4.4-4.3l3,0.7c-1.4,5-4.5,6.3-7.6,6.3c-6.2,0-8.2-5.4-8.2-11.1
			c0-8.1,3.8-11.7,8.4-11.7c4.9,0,7.6,3.7,7.7,11.8H378.7z M387.8,324.3c0-3.2-1-6.5-4.4-6.5c-3.3,0-4.2,3.5-4.5,6.5H387.8z
			 M387.7,305.7l2.2,2.4l-7.3,4.6l-1.5-1.6L387.7,305.7z"/>
		<path class="st2" d="M398.6,315.7v4.5c0.6-1.5,2.1-5.4,6.2-5.1v3.6c-3.5-0.4-5.9,2.1-5.9,7.4v11.1h-3.2v-21.6H398.6z"/>
		<path class="st2" d="M422.4,326.2c0,3.8-0.6,11.6-8.3,11.6c-6.7,0-8.2-6.3-8.2-11.4c0-4.4,1-11.4,8.3-11.4
			C421,315.1,422.4,321.7,422.4,326.2z M409.4,326.5c0,2.4,0.2,8.7,4.7,8.7s4.7-6.3,4.7-8.7c0-2-0.1-8.7-4.7-8.7
			C409.5,317.8,409.4,324.3,409.4,326.5z"/>
		<path class="st2" d="M427,315.7h3v3.3c0.6-1.3,1.7-3.9,5.6-3.9c2.4,0,4.4,1.1,5.2,2.9c0.6,1.3,0.7,3.1,0.7,5.6v13.7h-3.2V324
			c0-3.6,0-6.2-3.3-6.2c-2.6,0-4.6,1.8-4.6,7.9v11.6H427V315.7z"/>
		<path class="st2" d="M446.8,320.6c0.2-1,0.7-3.2,3.5-4.6c0.6-0.3,2-0.9,4.2-0.9c2.6,0,4.6,0.9,5.7,2.3c1.3,1.6,1.3,4.2,1.3,6.6
			v6.3c0,4.3,0,5.2,0.4,6.9h-3.1c-0.2-1.6-0.3-2.3-0.3-3.8c-0.9,1.7-2.3,4.4-6.2,4.4c-3.8,0-6.3-2.5-6.3-6.5c0-1.8,0.6-3.5,1.6-4.8
			c1.6-1.9,4.3-2.8,7.8-2.8c1.2,0,2.1,0.1,2.8,0.2v-0.9c0-1.5,0-5.3-4-5.3c-3.4,0-4,2.5-4.3,3.4L446.8,320.6z M455.8,326.3
			c-4.4,0-6.4,1.7-6.4,5.2c0,2.2,1.1,3.7,3.6,3.7c2.1,0,3.5-1.2,4.4-2.8c1-2,1-3.6,0.9-5.9C457.3,326.4,456.8,326.3,455.8,326.3z"/>
		<path class="st2" d="M470.5,315.7v13.6c0,3.6,0,5.9,3.3,5.9c4.7,0,4.7-6.3,4.7-9.7v-9.8h3.2v21.6h-3v-3.2
			c-0.7,1.4-1.9,3.8-5.6,3.8c-1,0-3.7-0.1-5-2.8c-0.7-1.5-0.7-4.4-0.7-5.7v-13.6H470.5z"/>
		<path class="st2" d="M490.9,310.4v5.3h4.2v2.6h-4.2v10.8c0,4.2,0,5.9,3.3,5.9c0.8,0,1.4-0.1,1.9-0.2v2.7c-0.8,0.1-1.7,0.3-3,0.3
			c-5.5,0-5.5-3.5-5.5-8.7v-10.8h-3.1v-2.6h3.1v-5L490.9,310.4z"/>
		<path class="st2" d="M498.4,311.9v-3.7h3.5v3.7H498.4z M501.7,315.7v21.6h-3.2v-21.6H501.7z"/>
		<path class="st2" d="M522.5,315.4v29.2h-3.2v-10.5c-0.8,1.3-2.1,3.6-5.6,3.6c-4.5,0-7.4-4-7.4-10.8c0-9.1,4.5-11.7,7.9-11.7
			c3.6,0,4.8,2.5,5.4,3.9c0.5-1.3,0.7-2,1.2-3.8H522.5z M519.3,324.8c0-5.2-2.8-6.9-4.7-6.9c-4.4,0-4.8,6-4.8,8.7
			c0,1.9,0.2,3.9,0.9,5.7c0.5,1.1,1.7,2.8,3.8,2.8c0.6,0,1.6-0.1,2.8-1.3c1.8-1.8,2-4.1,2-6.4V324.8z"/>
		<path class="st2" d="M531.5,315.7v13.6c0,3.6,0,5.9,3.3,5.9c4.7,0,4.7-6.3,4.7-9.7v-9.8h3.2v21.6h-3v-3.2
			c-0.7,1.4-1.9,3.8-5.6,3.8c-1,0-3.7-0.1-5-2.8c-0.7-1.5-0.7-4.4-0.7-5.7v-13.6H531.5z"/>
		<path class="st2" d="M550.7,326.9c0,1.9,0,8.3,5,8.3c3.1,0,3.9-2.7,4.4-4.3l3,0.7c-1.4,5-4.5,6.3-7.6,6.3c-6.2,0-8.2-5.4-8.2-11.1
			c0-8.1,3.8-11.7,8.4-11.7c4.9,0,7.6,3.7,7.7,11.8H550.7z M559.8,324.3c0-3.2-1-6.5-4.4-6.5c-3.3,0-4.2,3.5-4.5,6.5H559.8z"/>
		<path class="st2" d="M581,326.9c0,1.9,0,8.3,5,8.3c3.1,0,3.9-2.7,4.4-4.3l3,0.7c-1.4,5-4.5,6.3-7.6,6.3c-6.2,0-8.2-5.4-8.2-11.1
			c0-8.1,3.8-11.7,8.4-11.7c4.9,0,7.6,3.7,7.7,11.8H581z M590.1,324.3c0-3.2-1-6.5-4.4-6.5c-3.3,0-4.2,3.5-4.5,6.5H590.1z"/>
		<path class="st2" d="M601.6,310.4v5.3h4.2v2.6h-4.2v10.8c0,4.2,0,5.9,3.3,5.9c0.8,0,1.4-0.1,1.9-0.2v2.7c-0.8,0.1-1.7,0.3-3,0.3
			c-5.5,0-5.5-3.5-5.5-8.7v-10.8h-3.1v-2.6h3.1v-5L601.6,310.4z"/>
		<path class="st2" d="M635.2,308.1v29.2h-2.9v-3c-0.6,1-1.9,3.5-5.8,3.5c-6.9,0-7.6-7.7-7.6-10.9c0-7.5,3.2-11.5,7.7-11.5
			c3.7,0,4.8,2.3,5.4,3.4v-10.5H635.2z M632,324.4c0-1.1,0-2.9-1.2-4.6c-1-1.4-2.4-1.9-3.6-1.9c-3.9,0-4.7,4.4-4.7,8.4
			c0,5,1.1,8.7,4.9,8.7c1.4,0,2.7-0.7,3.5-1.7c1-1.3,1.1-3.1,1.1-5.2V324.4z"/>
		<path class="st2" d="M643.3,326.9c0,1.9,0,8.3,5,8.3c3.1,0,3.9-2.7,4.4-4.3l3,0.7c-1.4,5-4.5,6.3-7.6,6.3c-6.2,0-8.2-5.4-8.2-11.1
			c0-8.1,3.8-11.7,8.4-11.7c4.9,0,7.6,3.7,7.7,11.8H643.3z M652.4,324.3c0-3.2-1-6.5-4.4-6.5c-3.3,0-4.2,3.5-4.5,6.5H652.4z"/>
		<path class="st2" d="M674.5,308.1v29.2h-3.2v-29.2H674.5z"/>
		<path class="st2" d="M680.2,308.1h4v4.3l-2.8,5.3h-1.9l2.6-5h-1.8V308.1z"/>
		<path class="st2" d="M705.2,308.1v2.9h-12.3v9.7h9.7v2.9h-9.7v10.7h12.7v2.9h-16.2v-29.2H705.2z"/>
		<path class="st2" d="M718.9,321.3c-0.4-0.9-1.2-3.5-4.2-3.5c-2.5,0-3.7,1.7-3.7,3.3c0,2.2,1.5,2.7,5,3.7c2.8,0.9,6.6,2.1,6.6,6.5
			c0,3.1-2.4,6.6-7.8,6.6c-6.5,0-7.4-4.5-7.7-6.2l3-0.7c0.2,1.1,0.8,4.2,5,4.2c3.1,0,4.3-2,4.3-3.5c0-2.4-2.3-3.1-4.2-3.7
			c-3.7-1.1-5.2-1.7-6.2-3.2c-0.7-0.9-1-2-1-3.2c0-2.6,2.1-6.4,7-6.4c5.2,0,6.4,3.9,6.8,5.5L718.9,321.3z"/>
		<path class="st2" d="M729.3,315.7v3.8c0.6-1.3,1.8-4.2,5.7-4.2c4.6,0,7.6,4.3,7.6,10.9c0,2.2-0.5,11.5-7.6,11.5
			c-3.2,0-4.3-1.5-5.4-3.2v10.1h-3.2v-28.9H729.3z M729.6,328.1c0,1.8,0,3.5,1.2,5c0.9,1.2,2.1,1.9,3.5,1.9c1.4,0,2.5-0.5,3.5-2.1
			c1-1.8,1.3-4.7,1.3-6.5c0-3.1-0.7-8.4-4.7-8.4c-1.3,0-2.6,0.4-3.7,2.4c-1,1.8-1,3.1-1,4.6V328.1z"/>
		<path class="st2" d="M746.9,320.6c0.2-1,0.7-3.2,3.5-4.6c0.6-0.3,2-0.9,4.2-0.9c2.6,0,4.6,0.9,5.7,2.3c1.3,1.6,1.3,4.2,1.3,6.6
			v6.3c0,4.3,0,5.2,0.4,6.9h-3.1c-0.2-1.6-0.3-2.3-0.3-3.8c-0.9,1.7-2.3,4.4-6.2,4.4c-3.8,0-6.3-2.5-6.3-6.5c0-1.8,0.6-3.5,1.6-4.8
			c1.6-1.9,4.3-2.8,7.8-2.8c1.2,0,2.1,0.1,2.8,0.2v-0.9c0-1.5,0-5.3-4-5.3c-3.4,0-4,2.5-4.3,3.4L746.9,320.6z M755.9,326.3
			c-4.4,0-6.4,1.7-6.4,5.2c0,2.2,1.1,3.7,3.6,3.7c2.1,0,3.5-1.2,4.4-2.8c1-2,1-3.6,0.9-5.9C757.4,326.4,756.9,326.3,755.9,326.3z"/>
		<path class="st2" d="M778.2,323c-0.4-2.7-0.8-5.3-4-5.3c-3.1,0-4.4,2.3-4.4,9.4c0,2.5,0,8,4.5,8c3.3,0,3.7-3.2,3.9-5.2l3.2,0.4
			c-0.4,2.9-1.2,7.5-7.3,7.5c-6.4,0-7.8-6-7.8-11.1c0-5.9,1.6-11.6,8-11.6c5.7,0,6.6,4.5,7.1,7.3L778.2,323z"/>
		<path class="st2" d="M787.5,326.9c0,1.9,0,8.3,5,8.3c3.1,0,3.9-2.7,4.4-4.3l3,0.7c-1.4,5-4.5,6.3-7.6,6.3c-6.2,0-8.2-5.4-8.2-11.1
			c0-8.1,3.8-11.7,8.4-11.7c4.9,0,7.6,3.7,7.7,11.8H787.5z M796.6,324.3c0-3.2-1-6.5-4.4-6.5c-3.3,0-4.2,3.5-4.5,6.5H796.6z"/>
		<g>
			<linearGradient id="SVGID_1_" gradientUnits="userSpaceOnUse" x1="480.5005" y1="208.8796" x2="455.68" y2="152.1453">
				<stop  offset="0" style="stop-color:#FFFFFF"/>
				<stop  offset="1" style="stop-color:#FBBA00"/>
			</linearGradient>
			<path class="st3" d="M479.2,225.8c-120.1-70.4,6.2-111.5,6.2-111.5c-103.9,35-60.8,89.3-14.1,125.1
				C474.5,241.9,480.2,227.6,479.2,225.8z"/>
			<path class="st2" d="M650,143c59.8-8.5,116.5,0.7,160.5,22.5c-43.1-27.9-104.1-40.9-169-31.6c-101.2,14.4-178.4,78-188.1,149.4
				C473.8,215.1,551.1,157,650,143z"/>
			<polygon class="st4" points="685.4,24.7 672.2,25.7 685.4,26.7 664.2,51.3 688.8,30.1 689.8,43.3 690.8,30.1 715.5,51.3 
				694.3,26.7 707.5,25.6 694.3,24.7 715.5,0 690.8,21.2 689.9,8 688.9,21.2 664.2,0.1 			"/>
			<polygon class="st5" points="690.8,30.1 715.5,51.3 694.3,26.7 707.5,25.6 694.3,24.7 715.5,0 690.8,21.2 694.2,24.6 694.2,26.6 
							"/>
			
				<linearGradient id="SVGID_2_" gradientUnits="userSpaceOnUse" x1="713.0848" y1="-436.1667" x2="725.8843" y2="-384.2408" gradientTransform="matrix(0.8561 -2.640000e-02 2.650000e-02 0.8562 -47.1756 443.2353)">
				<stop  offset="0" style="stop-color:#E30613"/>
				<stop  offset="1" style="stop-color:#9A1915"/>
			</linearGradient>
			<path class="st6" d="M475.7,62.8c0,0,11.1,2.2,13.4,9.7c2.3,7.5,4.6,35.9,4.6,35.9l135.8-63.4L475.7,62.8z"/>
			
				<linearGradient id="SVGID_3_" gradientUnits="userSpaceOnUse" x1="708.2073" y1="-460.0196" x2="724.337" y2="-403.1388" gradientTransform="matrix(0.8561 -2.640000e-02 2.650000e-02 0.8562 -47.1756 443.2353)">
				<stop  offset="0" style="stop-color:#E30613"/>
				<stop  offset="1" style="stop-color:#9A1915"/>
			</linearGradient>
			<path class="st7" d="M629.4,44.9l-135.8,63.4c0,0,9.5-35.8,21.2-35c7.5,0.5,10.6,5.7,10.6,5.7L629.4,44.9z"/>
			<path class="st8" d="M511.8,73.9c1-0.4,2-0.6,3-0.6c7.5,0.5,10.6,5.7,10.6,5.7l104-34.1"/>
			
				<linearGradient id="SVGID_4_" gradientUnits="userSpaceOnUse" x1="883.2038" y1="-74.7482" x2="769.2718" y2="-74.7482" gradientTransform="matrix(0.9681 -0.2508 0.2508 0.9681 -77.6903 387.3434)">
				<stop  offset="0" style="stop-color:#00B1EB"/>
				<stop  offset="1" style="stop-color:#0075BF"/>
			</linearGradient>
			<path class="st9" d="M824.4,43.8c0,0-6.9,12.4-26.9,25.8c20-22.5,19.8-41.4,19.8-41.4c-5,35.5-58.9,64-72.7,69
				c-30.1,9.8-29.2,21.6-29.2,21.6l8.7,33.7c0.4-0.1,3.4-0.8,5.7-1.5c53.3-14.9,65.7-34.1,65.7-34.1c-18.8,11.9-31.6,14.9-31.6,14.9
				c48-20.3,60.8-72.8,60.8-72.8s-7.2,9.3-18.6,15.4C818.2,65,824.4,43.8,824.4,43.8z"/>
			<path class="st10" d="M699.2,123c0,0-4.9-10.8-36-4.8c-14.5,2.3-75.5,3.6-97.1-25c0,0,9,16.7,37.4,26.6c-24-2.1-36-9.5-36-9.5
				s15.7,15.6,30.8,17.9c-12.9,0.3-23.7-4.4-23.7-4.4s36.7,39.7,88.5,34.1c0,0-12.7,3.6-34.9,2.4c0,0,20.2,10.8,74.2-2.2
				c3.2-0.8,5.2-1.3,5.6-1.4L699.2,123z"/>
			<path class="st10" d="M720.9,127.4c0.1-5.4,2.2-15.2-4-26.2c-5.3-9.5-14.5-4.1-15.7-3.3c-1.4-0.1-12.1-0.4-12.1,10.5
				c-0.1,12.6,6.6,20.3,9.2,24.8c3.4,5.8,16.2,30.4,1.2,50c0,0,13.4-4.1,24.6,3.3l0.1,0.3l0,0c0-0.1,0.1-0.1,0.1-0.2
				c0.1,0,0.1,0.1,0.2,0.1h0l-0.1-0.3c6.2-11.9,19.9-14.8,19.9-14.8C721.6,161.9,720.8,134.1,720.9,127.4z"/>
		</g>
	</g>
	<g>
		<line class="st11" x1="0" y1="355" x2="796.4" y2="355"/>
	</g>
</g>
</svg>
