<?xml version="1.0" encoding="utf-8"?>
<!-- Generator: Adobe Illustrator 19.2.1, SVG Export Plug-In . SVG Version: 6.00 Build 0)  -->
<svg version="1.1" xmlns="http://www.w3.org/2000/svg" xmlns:xlink="http://www.w3.org/1999/xlink" x="0px" y="0px"
	 viewBox="0 0 1005.3 354.4" style="enable-background:new 0 0 1005.3 354.4;" xml:space="preserve">
<g id="Layer_4">
	<g>
		<path d="M94,104.1c0,39.6-16.4,52.1-47.1,52.1c-35.2,0-46.9-17.5-46.9-54V2.9h23.2v97.6c0,13.3-0.9,38.4,23.9,38.4
			c20.5,0,24.1-14.9,24.1-37.3V2.9H94V104.1z"/>
		<path d="M718.9,351.2L673.6,221v130.2h-19.5V200.5h34l45.4,130.2V200.5h20.9v150.7H718.9z"/>
		<path d="M189.2,153.6L143.8,23.4v130.2h-19.4V2.9h34l45.4,130.2V2.9h20.9v150.7H189.2z"/>
		<path d="M259.8,153.6V2.9h23.4v150.7H259.8z"/>
		<path d="M756.6,153.6V2.9h23.4v150.7H756.6z"/>
		<path d="M367.6,153.6h-27.5L302,2.9h24.3l28.6,129.4L384.6,2.9h22.8L367.6,153.6z"/>
		<path d="M425.7,153.6V2.9h74.6v18h-51.5v46H497v17.4h-48.1v51.3h52.9v18H425.7z"/>
		<path d="M551,351.2V200.5h74.6v18h-51.5v46h48.1v17.4h-48.1v51.3h52.9v18H551z"/>
		<path d="M884.9,351.2V200.5h74.6v18H908v46h48.1v17.4H908v51.3H961v18H884.9z"/>
		<path d="M591.2,153.6c-2.1-14.5-2.1-36.7-2.3-39.4c-0.6-11.3-2-18.5-4.4-21.7c-2.8-4-9.2-6-19.2-6h-13.9v67.2h-23.4V2.9h43.3
			c24.9,0,43.1,6,43.1,38.1c0,20.3-8.2,32.5-24.6,36.5c8.5,0.7,14.3,3.6,17.5,8.7c2.5,3.9,4.8,12.9,4.8,24.1
			c0,4.3,0.9,33.7,3.1,43.2H591.2z M590.9,42.8c0-17.5-9.2-22.3-23.8-22.3h-15.6v48.3h12.2C583.6,68.8,590.9,63.4,590.9,42.8z"/>
		<path d="M728,115.6c0,27.1-14.8,40.6-44.4,40.6c-33.1,0-44.6-13.3-44.6-45v-1.7h23.9v1.7c0,17.9,4.6,27.7,20.7,27.7
			c13.8,0,20.7-7.2,20.7-21.6c0-12.8-7.8-18.9-14.4-23.2c-3.2-2.1-7.4-4.7-12.7-8C654.8,72.7,641,63.6,641,39.1
			C641,14.2,656.5,0,685.2,0c27.5,0,41.3,12.5,41.3,37.6v5.4h-23.4v-3.7c0-14.6-6.3-21.9-18.9-21.9c-11.4,0-19.4,6.6-19.4,20
			c0,15,10.6,19.8,20.6,26.3c3.5,2.2,7,4.5,10.6,6.9C719.7,85.7,728,92.6,728,115.6z"/>
		<path d="M857.4,20.9v132.7H834V20.9h-34.8v-18h92.9v18H857.4z"/>
		<path d="M316.7,218.5v132.7h-23.4V218.5h-34.8v-18h92.9v18H316.7z"/>
		<path d="M831,218.5v132.7h-23.3V218.5h-34.8v-18h92.9v18H831z"/>
		<path d="M498.8,351.2h-27.3L448,224.7l-26,126.5h-27.3l-32-150.7h24.7l22.3,126l25.8-126h27.3l23.8,126l24-126h21.8L498.8,351.2z"
			/>
		<path d="M1005.3,342.3c0,6.7-5.4,12.2-12.2,12.2c-6.7,0-12.2-5.5-12.2-12.2c0-6.7,5.4-12.2,12.2-12.2
			C999.9,330,1005.3,335.5,1005.3,342.3z"/>
		<g>
			<path d="M959.7,96.1v57.5h-23.4V96.1L896.7,2.9h25.9l27.1,71.9l27.7-71.9h24L959.7,96.1z"/>
			<path d="M96.5,277.2c0,27.2-2.4,45.7-7.1,55.3c-6.8,14.3-20.8,21.5-41.9,21.5c-20.2,0-33.6-6.9-40.5-20.6
				c-2.8-5.8-4.7-13.4-5.8-22.7C0.4,303.4,0,292.4,0,277.4c0-18.2,0.6-31.4,1.9-39.6c1.7-11.3,5.2-20.2,10.6-26.7
				c7.8-9,19.7-13.6,35.7-13.6c16.3,0,28.1,4.1,35.6,12.3c5.6,6,9.2,14.9,10.8,26.7C95.9,244.7,96.5,258.3,96.5,277.2z M72.3,274.5
				c0-18.2-0.6-30.8-1.9-37.7c-2.8-14.5-10.2-21.7-22.3-21.7c-12,0-19.5,7.6-22.7,22.9c-0.6,2.8-1,7.2-1.3,13.4
				c-0.3,6.1-0.4,14-0.4,23.8c0,9,0.1,16.6,0.3,22.7c0.2,6.1,0.6,10.8,1.1,14.2c1.3,8.2,3.5,14.2,6.7,18.1c3.5,4.3,8.9,6.5,16.3,6.5
				c12.4,0,19.9-7.8,22.5-23.3c0.6-3.2,1-8,1.2-14.4C72.2,292.5,72.3,284.3,72.3,274.5z"/>
			<path d="M149.2,218.4v46.3h44.6v17.5h-44.6v69H126V200.5h70.3v17.9H149.2z"/>
		</g>
	</g>
</g>
<g id="Guides">
</g>
</svg>
