<?xml version="1.0" encoding="utf-8"?>
<!-- Generator: Adobe Illustrator 22.1.0, SVG Export Plug-In . SVG Version: 6.00 Build 0)  -->
<svg version="1.1" xmlns="http://www.w3.org/2000/svg" xmlns:xlink="http://www.w3.org/1999/xlink" x="0px" y="0px"
	 viewBox="0 0 1007.3 446.9" style="enable-background:new 0 0 1007.3 446.9;" xml:space="preserve">
<style type="text/css">
	.st0{fill:#073532;}
	.st1{fill:#00A06E;}
</style>
<g id="Layer_1">
</g>
<g id="Layer_4">
	<path class="st0" d="M651.1,243.4"/>
	<g>
		<path class="st0" d="M467.8,215.8c-2,1.7-4.9,2.5-8.8,2.5h-9.7v-20h9.9c3.8,0,6.6,0.9,8.6,2.8c1.9,1.9,2.9,4.4,2.9,7.5
			C470.7,211.7,469.7,214.1,467.8,215.8 M486.1,247.2 M449.3,243.3v-14.2h11.5c3.3,0.1,5.9,1.1,7.7,3.1c1.8,1.9,2.7,4.6,2.7,8v4v0
			c0,3.9,0.9,7.1,2.8,9.6c1.4,1.8,3.6,3,6.5,3.5c1,0.2,2,0.2,3.2,0.2h7.3V249c-5.8,0-5.7-5.3-5.7-5.3v-3.6c0-4.2-0.9-7.7-2.7-10.6
			c-1.8-2.8-4.8-4.9-8.9-6.1c3.7-1.6,6.4-3.7,8.3-6.3c1.9-2.6,2.8-5.7,2.8-9.2v0c0-6.4-2.3-11.4-6.8-15.1
			c-4.5-3.6-10.8-5.5-18.7-5.5l-31.4,0v8.5v0c0,0,7.1-0.4,7.4,5.7v41.8c0,0,0.4,5.7-7.4,5.7v8.4h29V249
			C456.8,249,449.3,249.5,449.3,243.3z"/>
		<path class="st0" d="M529.4,231.9c0,3.5-0.5,6.6-1.4,9.1c-0.3,0.8-0.7,1.6-1.1,2.3c-1.7,2.9-4.3,4.3-8,4.3c-3.7,0-6.4-1.4-8.1-4.3
			c-1.7-2.9-2.5-6.7-2.5-11.4v-1c0-4.6,0.8-8.4,2.5-11.3c1.7-2.9,4.3-4.4,8-4.4c3.7,0,6.3,1.5,8,4.4c1.7,2.9,2.5,6.7,2.5,11.3V231.9
			z M518.9,204.4c-7.7,0-13.7,2.5-18,7.4c-4.3,5-6.5,11.3-6.5,19.1v0v1v0c0,7.8,2.2,14.2,6.5,19.1c4.3,4.9,10.4,7.4,18.1,7.4
			c7.6,0,13.6-2.5,18-7.4c4.3-4.9,6.5-11.3,6.5-19.1v0v-1v0c0-7.8-2.2-14.1-6.5-19.1C532.6,206.9,526.6,204.4,518.9,204.4"/>
		<path class="st0" d="M803.2,249v8.4h-26.9V249c6.4,0,6.1-4.9,6.1-4.9v-18.3c0-3.9-0.6-6.7-1.9-8.2c-1.3-1.5-3.2-2.3-5.7-2.3
			c-2,0-3.7,0.4-5.2,1.3c-1.5,0.9-2.6,2.1-3.5,3.7c0,0.6,0,1.1,0,1.5c0,0.4,0,0.8,0.1,1.1v21.2c0,0-0.3,4.9,5.7,4.9v8.4h-25.3V249
			c6,0,5.7-4.9,5.7-4.9v-18.3c0-3.8-0.6-6.6-1.9-8.1c-1.3-1.6-3.2-2.4-5.8-2.4c-1.9,0-3.6,0.4-5,1.1c-1.4,0.7-2.6,1.7-3.5,3.1v24.7
			c0,0-0.2,4.9,6.1,4.9v8.4h-26.8V249c0,0,6.8,0.3,6.8-5v-24.2c0,0,0.6-6-7.5-6v-8.5h20.5l0.6,6.9c1.7-2.5,3.8-4.4,6.3-5.8
			c2.5-1.4,5.4-2,8.7-2c3.3,0,6.2,0.7,8.6,2.2c2.4,1.5,4.2,3.7,5.4,6.7c1.6-2.8,3.7-5,6.2-6.5c2.6-1.6,5.6-2.4,9-2.4
			c5.1,0,9.2,1.8,12.1,5.3c3,3.5,4.4,8.9,4.4,16.2v18.2C796.4,244.2,796.2,249,803.2,249z"/>
		<path class="st0" d="M843.7,232.9c0,4.6-0.8,8.2-2.4,10.8c-1.6,2.7-4.1,4-7.5,4c-2.2,0-4-0.4-5.5-1.2c-1.5-0.8-2.7-1.9-3.5-3.4
			v-22.8c0.9-1.6,2-2.8,3.5-3.7c1.5-0.9,3.3-1.3,5.4-1.3c3.4,0,5.9,1.5,7.5,4.6c1.6,3,2.5,7,2.5,11.9V232.9z M837.4,204.4
			c-2.9,0-5.4,0.6-7.5,1.8c-2.1,1.2-4,3-5.5,5.2l-0.7-6.1h-20.4v8.5c0,0,7.5-0.3,7.5,5.7v43.8c0,0,0.3,5.6-6.8,5.6v8.5v0h27.5v0V269
			c-7.4,0-6.8-5.6-6.8-5.6v-10.9c1.5,2,3.3,3.4,5.4,4.4c2.1,1,4.5,1.5,7.3,1.5c6.4,0,11.3-2.3,14.9-7c3.6-4.7,5.3-10.9,5.3-18.6v0
			v-1v0c0-8.2-1.8-14.8-5.3-19.9C848.9,207,843.9,204.4,837.4,204.4"/>
		<path class="st0" d="M931.2,231.9c0,3.5-0.5,6.6-1.4,9.1c-0.3,0.8-0.7,1.6-1.1,2.3c-1.7,2.9-4.3,4.3-8,4.3c-3.7,0-6.4-1.4-8.1-4.3
			c-1.7-2.9-2.5-6.7-2.5-11.4v-1c0-4.6,0.8-8.4,2.5-11.3c1.7-2.9,4.3-4.4,8-4.4c3.7,0,6.3,1.5,8,4.4c1.7,2.9,2.5,6.7,2.5,11.3V231.9
			z M920.6,204.4c-7.7,0-13.7,2.5-18,7.4c-4.3,5-6.5,11.3-6.5,19.1v0v1v0c0,7.8,2.2,14.2,6.5,19.1c4.3,4.9,10.4,7.4,18.1,7.4
			c7.6,0,13.6-2.5,18-7.4c4.3-4.9,6.5-11.3,6.5-19.1v0v-1v0c0-7.8-2.2-14.1-6.5-19.1C934.3,206.9,928.3,204.4,920.6,204.4"/>
		<path class="st0" d="M657.8,249v8.4H631V249c0,0,6.1,0.4,6.1-5.5v-17c0-4-0.7-6.9-2.1-8.6c-1.4-1.7-3.6-2.5-6.4-2.5
			c-2,0-3.7,0.4-5.1,1.1c-1.5,0.7-2.7,1.7-3.7,3v24.1c0,0-0.4,5.5,6.1,5.5v8.4H599V249c0,0,6.8,0.4,6.8-5.6v-46.8
			c0,0,0.3-5.7-7.5-5.7v-8.5v0h21.5v0V212c1.6-2.4,3.6-4.3,6-5.6c2.4-1.3,5-2,7.9-2c5.4,0,9.7,1.8,12.8,5.4
			c3.1,3.6,4.6,9.2,4.6,16.7v16.9C651.1,243.4,650.5,249,657.8,249z"/>
		<path class="st0" d="M691.8,243.2c0,0.1-0.1,0.1-0.1,0.2c-1,1.3-2.2,2.4-3.9,3.3c-1.7,0.9-3.7,1.4-5.8,1.4c-2,0-3.6-0.5-4.7-1.5
			c-1.1-1-1.7-2.4-1.7-4.1c0-0.6,0.1-1.1,0.2-1.6c0.3-1.3,1-2.4,2.1-3.4c1.5-1.4,3.8-2.1,6.8-2.1h7.2V243.2z M705.8,244.2v-21.5
			c0-5.8-2-10.3-6-13.5c-4-3.2-9.2-4.7-15.7-4.7c-3.9,0-7.5,0.6-10.8,1.8c-3.3,1.2-6.3,2.6-8.8,4.4l0,11.5H675c0,0,0.5-7.4,8.2-7.4
			c2.8,0,5,0.7,6.4,2.1c1.4,1.4,2.2,3.3,2.2,5.8v5.1h-7.2c-7.6,0-13.3,1.3-17.2,4c-3.9,2.7-5.9,6.4-5.9,11.3v0
			c0,1.4,0.1,2.7,0.4,3.9c0.4,1.7,1,3.3,1.8,4.6c0.6,1,1.4,2,2.3,2.8c2.4,2.3,5.6,3.6,9.4,4c0.9,0.1,1.8,0.2,2.7,0.2
			c0.5,0,0.9,0,1.4-0.1c2.5-0.2,4.8-0.7,6.8-1.7c2.4-1.2,4.4-2.7,6.1-4.7c0,0-0.6,3.5,1.7,5.4h16.2V249
			C705.3,249,705.8,244.2,705.8,244.2z"/>
		<path class="st0" d="M845.9,144.9l1.2,10.1v0c-1.6,0.5-3.1,0.8-4.7,1.1c-1.5,0.2-3.2,0.4-5,0.4c-4.8,0-8.6-1.3-11.2-4
			c-2.6-2.7-3.9-6.9-3.9-12.6v0v-26.5h-7.6v0v-9.9v0h3.1c2.4,0,4.5-2,4.5-4.4v-8.3v0h14v0v12.7h9.1v0v9.9v0h-9.1v26.5
			c0,2,0.4,3.5,1.2,4.3C837.6,144.1,840,146.8,845.9,144.9z"/>
		<path class="st0" d="M456.6,93.9v-8.5h-7.5h-14h-7.4v8.5c0,0,7.4,0.3,7.4,7.5v30.5c0,7.9,2.6,13.9,7.7,18.2
			c5.1,4.3,11.9,6.4,20.3,6.4c8.4,0,15.2-2.1,20.4-6.4c5.2-4.3,7.8-10.3,7.8-18.2v-30.5c0,0-0.1-7.5,7.5-7.5v-8.5h-29v8.5
			c7.4,0,7.4,7.5,7.4,7.5v29.8c0,4.6-1.2,8.1-3.7,10.4c-2.5,2.3-5.9,3.4-10.3,3.4c-4.3,0-7.7-1.1-10.2-3.4
			c-2.5-2.3-3.7-5.7-3.7-10.4v-29.8C449.1,101.4,448.7,93.9,456.6,93.9"/>
		<path class="st0" d="M552.7,141.5"/>
		<path class="st0" d="M559.4,147v8.4h-26.8V147c6.5,0,6-5.6,6-5.6V123c0-3.5-0.7-6-2.1-7.4c-1.4-1.5-3.5-2.2-6.4-2.2
			c-1.9,0-3.5,0.4-5,1.1c-1.5,0.8-2.7,1.8-3.7,3.2v23.7c0,0-0.5,5.6,5.7,5.6v8.4h-26.4V147c6.9,0,6.7-5.6,6.7-5.6v-23.9
			c0-6.3-7.4-5.7-7.4-5.7v-8.5h20.5l0.6,7.4c1.7-2.7,3.9-4.7,6.4-6.2c2.5-1.5,5.4-2.2,8.5-2.2c5.3,0,9.4,1.7,12.3,5
			c2.9,3.3,4.4,8.5,4.4,15.5v18.5C552.7,141.5,552.1,147,559.4,147z"/>
		<path class="st0" d="M592.5,111.9v-8.5h23.6v8.5c-2.6,0.5-4.2,3.1-3.5,5.7l5.5,19.5l0.9,3.4h0.3l1-3.4l5.4-19.5
			c0.7-2.5-0.9-5.2-3.5-5.7l-0.1,0v-8.5h23.6v8.5c-4.5,0-5.6,3.9-5.6,3.9l-14.2,39.7h-13.4l-14.2-39.7
			C598.2,115.8,597.3,111.9,592.5,111.9z"/>
		<path class="st0" d="M679.2,124.4H662l-0.1-0.2c0.4-3.2,1.3-5.8,2.8-7.8c1.5-2,3.6-3,6.2-3c2.8,0,4.9,0.9,6.3,2.7
			c1.4,1.8,2.1,4.2,2.1,7.1V124.4z M670.8,102.5c-7.1,0-12.8,2.5-17.1,7.4c-4.2,5-6.4,11.4-6.4,19.1v1.9c0,7.4,2.2,13.5,6.7,18.3
			c4.5,4.8,10.5,7.2,18,7.2c4.2,0,8-0.6,11.4-1.7c3.4-1.2,6.2-2.6,8.3-4.3l-3.8-8.7c-2.4,1.3-4.7,2.3-6.7,3
			c-2.1,0.6-4.6,0.9-7.7,0.9c-3.5,0-6.3-1.1-8.3-3.3c-2-2.2-3.2-5-3.4-8.5l0.1-0.3h31V126c0-7.2-1.9-12.9-5.8-17.2
			C683.2,104.6,677.8,102.5,670.8,102.5"/>
		<path class="st0" d="M730.6,102.5c0.7,0,1.5,0.1,2.3,0.2c0.8,0.1,2.2,0.4,2.7,0.6l-2.3,13.5l-5.6-1c0,0-4.5-1.2-7.1,2.5
			c-0.7,1-1,2.3-1,3.5v19.8c0,0-0.4,5.6,6.7,5.6v8.4h-27.5V147c7.1,0,6.7-5.6,6.7-5.6v-23.9c0-6.3-7.4-5.7-7.4-5.7v-8.5h20.5
			l0.6,7.6c1.2-2.7,2.8-4.8,4.7-6.3C725.9,103.2,728.1,102.5,730.6,102.5"/>
		<path class="st0" d="M776.5,130.3c-3.1-2.5-7.9-4.4-14.3-5.6c-4.1-0.8-6.9-1.7-8.3-2.8c-1.4-1-2.1-2.3-2.1-3.9
			c0-1.7,0.7-3.1,2.2-4.2c1.4-1.1,3.4-1.7,5.9-1.7c1.8,0,3.4,0.3,4.8,0.8c0.5,0.2,1,0.4,1.5,0.6c1.3,0.6,2.3,1.9,2.6,3.4l0.7,4.4
			h9.7l-0.1-12.9c-2.1-1.7-4.9-3.1-8.5-4.2c-3.6-1.1-7.4-1.6-11.5-1.6c-6.6,0-11.7,1.6-15.3,4.7c-3.6,3.2-5.4,6.9-5.4,11.3
			c0,4.2,1.6,7.6,4.7,10c3.1,2.4,7.7,4.3,13.9,5.6c4,0.9,6.8,1.9,8.3,3c1.5,1.1,2.3,2.5,2.3,4c0,1.8-0.7,3.2-2.2,4.2
			c-1.5,1-3.7,1.5-6.5,1.5c-1.6,0-3.1-0.2-4.5-0.5c-0.2,0-0.3-0.1-0.5-0.1c-1.7-0.5-3.1-1.8-3.5-3.6l-1-4.7h-10.1l0.1,11.7
			c2.6,2.2,5.6,3.9,8.9,5c3.3,1.2,7,1.8,11,1.8c6.6,0,11.9-1.5,15.9-4.4c4-3,6-6.8,6-11.5C781.2,136.2,779.6,132.8,776.5,130.3"/>
		<path class="st0" d="M956.3,130c0,4.7-0.8,8.5-2.5,11.4c-1.7,2.9-4.3,4.3-8,4.3c-3.7,0-6.4-1.4-8.1-4.3c-1.7-2.9-2.5-6.7-2.5-11.4
			v-1c0-4.6,0.8-8.4,2.5-11.3c1.7-2.9,4.3-4.4,8-4.4c3.7,0,6.3,1.5,8,4.4c1.7,2.9,2.5,6.7,2.5,11.3V130z M945.7,102.5
			c-7.7,0-13.7,2.5-18,7.4c-4.3,5-6.5,11.3-6.5,19.1v0v1v0c0,7.8,2.2,14.2,6.5,19.1c4.3,4.9,10.4,7.4,18.1,7.4
			c7.6,0,13.6-2.5,18-7.4c4.3-4.9,6.5-11.3,6.5-19.1v0v-1v0c0-7.8-2.2-14.1-6.5-19.1C959.4,105,953.4,102.5,945.7,102.5"/>
		<path class="st0" d="M985.7,84.2c-3.3,3.2-5,7.7-5,13.5v5.8l-7.7,0v9.9h7.7v28.1c0,0,0.3,5.6-6.8,5.6v8.4l27.6,0V147
			c-7.3,0-6.8-5.6-6.8-5.6v-28.1l10.3,0v-9.9h-10.3v-5.8c0-2.3,0.6-4.1,1.8-5.4c2.1-2.2,6.4-2.3,9.1-1.3V80.1
			C1005.5,80.1,993.1,77.1,985.7,84.2z"/>
		<path class="st0" d="M455.7,93.9"/>
		<path class="st0" d="M571.1,117.6v23.9c0,5.4-6.8,5.6-6.8,5.6v8.4h27.5V147c0,0-6.7,0.5-6.7-5.6v-38h-21.5v8.5
			C563.6,111.9,571.1,111.1,571.1,117.6z"/>
		<rect x="571.1" y="85.5" class="st0" width="14" height="10.5"/>
		<path class="st0" d="M793.7,117.6v23.9c0,5.4-6.8,5.6-6.8,5.6v8.4h27.5V147c0,0-6.7,0.5-6.7-5.6v-38h-21.5v8.5
			C786.2,111.9,793.7,111.1,793.7,117.6z"/>
		<rect x="793.7" y="85.5" class="st0" width="14" height="10.5"/>
		<path class="st0" d="M879.1,136.8l6.2-18.4c1-2.9-0.9-6-3.9-6.5l-0.1,0v0v-8.5v0h25.5v0v8.5v0c-4.7,0-5.9,3.5-5.9,3.5l-18.1,47.9
			c-1.5,3.8-3.5,6.9-6,9.4c-2.5,2.5-6.3,3.8-11.4,3.8c-1.2,0-2.3-0.1-3.3-0.3c-1-0.2-2.3-0.5-3.7-0.8v0l1.6-10.2
			c8.7,1.9,10.9-5.7,10.9-5.7l1.6-3.9L857,115.4c0,0-1.2-3.6-5.9-3.5v-8.5v0h25.5v0v8.5v0c-3,0.5-4.9,3.6-3.9,6.5L879.1,136.8z"/>
		<path class="st0" d="M581,226.4h-17.2l-0.1-0.2c0.4-3.2,1.3-5.8,2.8-7.8c1.5-2,3.6-3,6.2-3c2.8,0,4.9,0.9,6.3,2.7
			c1.4,1.8,2.1,4.2,2.1,7.1V226.4z M572.6,204.5c-7.1,0-12.8,2.5-17.1,7.4c-4.2,5-6.4,11.4-6.4,19.1v1.9c0,7.4,2.2,13.5,6.7,18.3
			c4.5,4.8,10.5,7.2,18,7.2c4.2,0,8-0.6,11.4-1.7c3.4-1.2,6.2-2.6,8.3-4.3l-3.8-8.7c-2.4,1.3-4.7,2.3-6.7,3
			c-2.1,0.6-4.6,0.9-7.7,0.9c-3.5,0-6.3-1.1-8.3-3.3c-2-2.2-3.2-5-3.4-8.5l0.1-0.3h31V228c0-7.2-1.9-12.9-5.8-17.2
			C585,206.6,579.6,204.5,572.6,204.5"/>
		<path class="st0" d="M1007.3,249v8.4h-26.8V249c6.5,0,6-5.6,6-5.6V225c0-3.5-0.7-6-2.1-7.4c-1.4-1.5-3.5-2.2-6.4-2.2
			c-1.9,0-3.5,0.4-5,1.1c-1.5,0.8-2.7,1.8-3.7,3.2v23.7c0,0-0.5,5.6,5.7,5.6v8.4h-26.4V249c6.9,0,6.7-5.6,6.7-5.6v-23.9
			c0-6.3-7.4-5.7-7.4-5.7v-8.5h20.5l0.6,7.4c1.7-2.7,3.9-4.7,6.4-6.2c2.5-1.5,5.4-2.2,8.5-2.2c5.3,0,9.4,1.7,12.3,5
			c2.9,3.3,4.4,8.5,4.4,15.5v18.5C1000.6,243.4,1000,249,1007.3,249z"/>
		<path class="st0" d="M892.3,246.9l1.2,10.1v0c-1.6,0.5-3.1,0.8-4.7,1.1c-1.5,0.2-3.2,0.4-5,0.4c-4.8,0-8.6-1.3-11.2-4
			c-2.6-2.7-3.9-6.9-3.9-12.6v0v-26.5h-7.6v0v-9.9v0h3.1c2.4,0,4.5-2,4.5-4.4v-8.3v0h14v0v12.7h9.1v0v9.9v0h-9.1v26.5
			c0,2,0.4,3.5,1.2,4.3C884,246.1,886.4,248.8,892.3,246.9z"/>
	</g>
	<g>
		<g>
			<path class="st1" d="M155.5,446.9c13.5,0,24.9-11.2,24.9-24.7l0-187.6H26.6l0,159.7c0,6.6-2.3,13.1-6.9,17.9
				c-4.8,5.1-12.1,8.3-19.7,8.3l0,26.5H155.5z"/>
			<path class="st1" d="M26.6,53.1c0-14.7-11.9-26.5-26.5-26.5V0h180.4v212.4H26.6V53.1z"/>
			<path class="st1" d="M375.2,394.2v-49.1c0-66.5-42.9-110.5-104.4-110.5h-68.2v106.2c0,64.4,40.5,106.2,106.2,106.2h66.4h26.6
				v-26.5C387.1,420.4,375.2,408.9,375.2,394.2"/>
			<path class="st1" d="M367.8,106.6c0,3.4-0.2,6.8-0.5,10.3c-0.6,5.9-1.6,11.8-2.9,17.5c-1.3,5.5-3,11-5,16.3
				c-2,5.1-4.3,10.1-7,14.9c-2.6,4.6-5.6,9.1-9,13.2c-3.3,4.1-6.9,7.9-10.9,11.4c-3.9,3.5-8.2,6.6-12.7,9.3
				c-4.6,2.7-9.5,5.1-14.5,6.9c-5.2,1.9-10.7,3.4-16.2,4.3c-5.9,1-11.8,1.7-17.8,1.7c-0.2,0-0.3,0-0.5,0l-68.2,0V0
				c0,0,68.1,0.1,68.2,0.1c5.9,0,11.9,0.5,17.7,1.5c5.5,0.9,10.9,2.3,16.2,4.2c5,1.8,9.9,4.1,14.5,6.8c4.5,2.7,8.8,5.7,12.8,9.1
				c4,3.4,7.6,7.2,10.9,11.3c3.4,4.1,6.4,8.5,9.1,13.1c2.7,4.7,5.1,9.7,7.1,14.8c2.1,5.3,3.8,10.7,5.1,16.2c1.4,5.7,2.4,11.6,3,17.4
				C367.6,98.7,367.8,102.6,367.8,106.6z"/>
		</g>
		<g>
			<path class="st1" d="M435.1,302.8c0-6.5-7.4-6-7.4-6v-8.4h7.4h14h7.5v8.4c0,0-7.5-0.6-7.5,6v44.7h14.7c0,0,5.7,0.4,5.7-8.8h10.7
				v19.5h-52.6v-8.4c8.1,0,7.4-6,7.4-6V302.8"/>
			<path class="st1" d="M499.7,332.8c0,4.7,0.8,8.5,2.5,11.4c1.7,2.9,4.4,4.3,8.1,4.3c3.6,0,6.3-1.4,7.9-4.3
				c1.7-2.9,2.5-6.7,2.5-11.4v-1c0-4.6-0.8-8.4-2.5-11.3c-1.7-2.9-4.4-4.4-8-4.4c-3.6,0-6.3,1.5-8,4.4c-1.7,2.9-2.5,6.7-2.5,11.3
				V332.8z M485.7,331.8c0-7.7,2.2-14.1,6.5-19c4.3-4.9,10.3-7.4,18-7.4c7.7,0,13.7,2.5,18,7.4c4.3,4.9,6.5,11.3,6.5,19.1v1
				c0,7.8-2.2,14.2-6.5,19.1c-4.3,4.9-10.3,7.4-17.9,7.4c-7.7,0-13.7-2.5-18.1-7.4c-4.3-4.9-6.5-11.3-6.5-19.1V331.8z"/>
			<path class="st1" d="M615.8,333.7c0,4.5,0.8,8.1,2.3,10.7s4,3.9,7.5,3.9c2,0,3.8-0.4,5.3-1.2c1.5-0.8,2.7-2,3.7-3.6v-22
				c-1-1.7-2.2-3-3.7-3.9c-1.5-0.9-3.2-1.4-5.3-1.4c-3.4,0-5.9,1.5-7.5,4.6c-1.6,3-2.4,7-2.4,11.9V333.7z M627,291.8v-8.4h7.5h14
				v60.9c0,0-0.5,5.6,6.7,5.6v8.4h-18.9c0,0-1.7-2.4-1.1-6.3c-1.6,2.4-3.6,4.2-5.8,5.5s-4.8,1.9-7.6,1.9c-6.4,0-11.4-2.3-14.9-7
				c-3.5-4.7-5.3-10.8-5.3-18.5v-1c0-8.2,1.8-14.8,5.3-19.8c3.6-5,8.5-7.5,15-7.5c2.6,0,4.9,0.6,7,1.7c2.1,1.1,3.9,2.7,5.5,4.8
				v-14.1C634.5,291.7,627,291.8,627,291.8"/>
			<path class="st1" d="M672.8,332.8c0,4.7,0.8,8.5,2.5,11.4c1.7,2.9,4.4,4.3,8.1,4.3c3.6,0,6.3-1.4,7.9-4.3
				c1.7-2.9,2.5-6.7,2.5-11.4v-1c0-4.6-0.8-8.4-2.5-11.3c-1.7-2.9-4.4-4.4-8-4.4c-3.6,0-6.3,1.5-8,4.4c-1.7,2.9-2.5,6.7-2.5,11.3
				V332.8z M658.8,331.8c0-7.7,2.2-14.1,6.5-19c4.3-4.9,10.3-7.4,18-7.4c7.7,0,13.7,2.5,18,7.4c4.3,4.9,6.5,11.3,6.5,19.1v1
				c0,7.8-2.2,14.2-6.5,19.1c-4.3,4.9-10.3,7.4-17.9,7.4c-7.7,0-13.7-2.5-18.1-7.4c-4.3-4.9-6.5-11.3-6.5-19.1V331.8z"/>
			<path class="st1" d="M770.2,349.8v8.4h-26.8v-8.4c6.5,0,6-5.6,6-5.6v-18.4c0-3.5-0.7-6-2.1-7.4c-1.4-1.5-3.5-2.2-6.4-2.2
				c-1.9,0-3.5,0.4-5,1.1c-1.5,0.8-2.7,1.8-3.7,3.2v23.7c0,0-0.5,5.6,5.7,5.6v8.4h-26.4v-8.4c6.9,0,6.7-5.6,6.7-5.6v-23.9
				c0-6.3-7.4-5.7-7.4-5.7v-8.5h20.5l0.6,7.4c1.7-2.7,3.9-4.7,6.4-6.2c2.5-1.5,5.4-2.2,8.5-2.2c5.3,0,9.4,1.7,12.3,5
				c2.9,3.3,4.4,8.5,4.4,15.5v18.5C763.4,344.2,762.9,349.8,770.2,349.8z"/>
			<path class="st1" d="M598.1,349.8v8.4h-26.8v-8.4c6.5,0,6-5.6,6-5.6v-18.4c0-3.5-0.7-6-2.1-7.4c-1.4-1.5-3.5-2.2-6.4-2.2
				c-1.9,0-3.5,0.4-5,1.1c-1.5,0.8-2.7,1.8-3.7,3.2v23.7c0,0-0.5,5.6,5.7,5.6v8.4h-26.4v-8.4c6.9,0,6.7-5.6,6.7-5.6v-23.9
				c0-6.3-7.4-5.7-7.4-5.7v-8.5h20.5l0.6,7.4c1.7-2.7,3.9-4.7,6.4-6.2c2.5-1.5,5.4-2.2,8.5-2.2c5.3,0,9.4,1.7,12.3,5
				c2.9,3.3,4.4,8.5,4.4,15.5v18.5C591.4,344.2,590.8,349.8,598.1,349.8z"/>
		</g>
	</g>
</g>
</svg>
