<?xml version="1.0" encoding="utf-8"?>
<!-- Generator: Adobe Illustrator 18.1.0, SVG Export Plug-In . SVG Version: 6.00 Build 0)  -->
<svg version="1.1" id="Layer_1" xmlns="http://www.w3.org/2000/svg" xmlns:xlink="http://www.w3.org/1999/xlink" x="0px" y="0px"
	 viewBox="0 0 1008 330.1" enable-background="new 0 0 1008 330.1" xml:space="preserve">
<g>
	<path fill="#010202" d="M858.8,228.8h-15.3v99.4h15.3V228.8z M785.1,287c0.3-1.9,0.5-3.9,1.2-5.8c0.8-2.4,4.6-12,14.6-12.1
		c1.4,0,4.4,0.3,7.6,2.3c5.8,3.6,6.7,9.2,7.1,15.5L785.1,287z M831.4,295.5c-0.1-2.6,0.3-11.9-3.6-19.9c-7-14.1-21.9-15.4-26.6-15.4
		c-4.3,0-16.1,1-24.5,11c-7.7,9.2-8.3,20.9-8.3,24.6c0,16,8.3,24.4,13.5,28c3.6,2.6,10.8,6.1,21.8,6.2c8.5,0,14.8-2.1,17.8-3.1
		c3.3-1.3,6.2-2.8,7.3-3.5v-13c-3,2.8-4,3.9-5.8,5.2c-6.6,4.9-12.6,5.4-16,5.4c-5.4,0-11.6-1.7-15.5-5.5c-4.9-4.6-6.3-11.7-6.7-13.5
		c-0.4-2.3-0.4-4-0.5-6.4H831.4z M717.1,311.6l-0.1,14.7c3.3,1.3,8.8,3.6,17.4,3.7c9.9,0,15.1-3.1,18.6-6.1
		c6.6-5.8,7.1-12.8,7.1-16.1c0-2.3-0.5-9-6.2-13.7c-3.7-3.1-9.2-4.8-13.7-6.6c-4-1.5-6.1-2.7-7.6-4.1c-1.5-1.3-2.4-3.3-2.4-5.5
		c0-1,0.2-3.2,1.9-5.3c3-3.5,8.8-3.7,9.7-3.7c4.5,0,8.3,1.8,11.7,4.5c1.2,0.8,2.2,1.5,3.2,2.4v-13c-5.2-1.7-9-2.7-14.4-2.7
		c-3.6,0-7,0.5-8.3,0.8c-4.1,0.9-6.8,2.3-8.3,3.2c-5.7,3.7-9.3,10.5-9.3,17.2c0,1.9,0.4,7.6,4.4,11.9c3.9,4.1,11,6.3,12,6.7
		c5.4,1.8,13.5,4.1,13.5,11.3c0,0.9-0.1,2.8-1.5,4.8c-1.4,1.9-4.1,4.6-9.8,4.6c-8.3,0-14.2-5-16-6.7L717.1,311.6z M688.6,317
		c-6.4,2.2-9,2.6-12.6,2.6c-1.6,0.1-5.7-0.1-9.7-1.9c-9-4.1-10.2-13.7-10.6-16.6c-0.5-3.1-0.5-5.7-0.5-7c0-2.2,0-16.4,9.9-22.8
		c3.9-2.4,7.6-2.8,9.3-2.8c8.5,0,12.1,5.9,13.2,8.8c1,2.7,1,5.8,1,6.7V317z M703.7,261.2l-8.2,4.9c-11.4-4.6-15.1-5.8-21.8-5.8
		c-12.8,0-24.9,6.6-30.6,18.1c-3.5,7.1-3.7,14.4-3.7,17c0,8.8,3,15.1,4.5,18.1c2.2,3.7,4.6,6.2,5.8,7.3c8.5,7.4,19.1,7.2,22.6,7.4
		c2.3,0.1,4.5,0.1,6.7,0.1h24.8V261.2z M583.2,247.9c1.9-1,5.1-2.6,10.4-2.6c7.1,0,14.6,3.1,18.1,9.5c0.5,0.9,1.7,3.1,1.7,6.1
		c0,4.9-3.6,8.8-4.4,9.7c-3.4,3.7-8,7.4-8,12.4c0,1.5,0.4,3,1.2,4.4c0.5,0.8,1.6,2.2,3.2,3.9c4.1,3.9,9.5,7.1,9.5,13.4
		c0,3.7-1.4,7.2-4,9.9c-3.9,4.3-9.4,5.5-15,5.5c-6.3,0-10.1-1.4-12.6-2.2L583.2,247.9z M567.4,328.2h28.5c6.5-0.1,9.2-0.5,12.4-1.3
		c11.7-2.8,17.5-10.7,19.5-14.8c1.9-4.1,2.1-8.1,2.1-9.7c0-8.4-3.6-12.8-5.9-15.2c-1.2-1-2.3-2.1-3.5-3.2l-5-4.6
		c5.3-5.7,10.8-11.5,10.8-19.7c0-2.4-0.6-7.5-4.8-12.6c-7.2-9.3-17-9.7-21.1-9.8c-1.8-0.1-3.7-0.1-5.5,0h-27.3V328.2z M489.3,262
		h-10.1v10.3h10.1v56h15.3v-56h11.7V262h-11.7v-13.3c0-1-0.6-7.9,4.9-9.8c1.6-0.7,3.1-0.7,3.6-0.7c1.4,0,2.6,0.4,3.1,0.7l0.1-10.1
		c-1.6,0-10.2-0.6-16.6,2.2c-10.2,4.5-10.2,17.1-10.3,19.6c-0.1,1.6-0.1,3.1-0.1,4.5V262z M459,294.7c-0.1,8.1-1.8,19.2-9.1,24.1
		c-1.4,0.9-4.1,2.4-8.4,2.4c-4,0-7.5-1.3-10.4-3.9c-4.5-3.9-6.5-9.3-7.4-15c-0.1-1.2-0.5-4.3-0.5-7.6c0-12.6,4.3-19.7,8.8-23
		c3.7-2.7,7.5-3,9.1-3c1.7,0,5,0.2,8.5,2.4C459.4,277.6,459,292.9,459,294.7 M474.9,294.8c0-4.5-0.9-8.4-1.3-9.9
		c-3.9-16.3-15.5-21.4-21.7-23.2c-4.6-1.3-8.6-1.4-10.5-1.4c-5.7,0-22.6,1.3-30.4,17.8c-3.6,7.2-3.9,14.3-3.9,17.2
		c0,20.5,13.1,34.7,33.8,34.7c16.3,0,28.9-8.5,32.6-24.6C474,303.9,474.9,299.4,474.9,294.8"/>
	<path fill="#010202" d="M1008,131H994l-20.9,58.5L952.4,131h-16.9l25.2,66.2c1.3,0.5,2.1,0.9,2.6,1.3c1.8,1.3,2.7,3.6,2.7,5.8
		c0,4.2-2.8,6.3-4.1,7.1c-3.9,2.1-11.5,1-11.7,1l-0.1,11.6c5.3,0,10.4,0,15.5-1.9c6.2-2.2,9.3-6.3,12.1-12.3
		c1.9-3.7,3.3-7.7,4.8-11.7L1008,131z M930.3,131h-11.6v-22.7c0-1.5,0.1-4-2.1-4c-0.5,0-1.4,0.3-1.8,0.5c-0.7,0.5-0.8,1.6-0.9,3.2
		c-0.9,5.9-2.6,11.7-6.4,16.3c-5.3,6.4-11,6.6-14.3,6.8v10.2h10.1v56h15.5v-56h11.6V131z M864.9,114.5c0,5,4.1,9,9,9
		c5,0,9.2-4,9.2-9c0-5-4-9.1-9-9.1C869,105.4,864.9,109.5,864.9,114.5 M881.6,131h-15.3v66.3h15.3V131z M808.7,180.7l-0.1,14.7
		c3.3,1.3,8.8,3.6,17.4,3.7c9.9,0,15.1-3.1,18.6-6.1c6.6-5.8,7.1-12.8,7.1-16.1c0-2.3-0.5-9-6.2-13.7c-3.7-3.1-9.2-4.8-13.7-6.6
		c-4-1.5-6.1-2.7-7.6-4.1c-1.5-1.3-2.4-3.3-2.4-5.5c0-1,0.3-3.2,1.9-5.3c3-3.5,8.8-3.7,9.7-3.7c4.5,0,8.3,1.8,11.7,4.5
		c1.2,0.8,2.2,1.5,3.2,2.4v-13c-5.2-1.7-9-2.7-14.4-2.7c-3.6,0-7,0.5-8.3,0.8c-4.1,0.9-6.8,2.3-8.3,3.2c-5.7,3.7-9.3,10.4-9.3,17.1
		c0,1.9,0.4,7.6,4.4,11.9c3.9,4.1,11,6.3,12,6.7c5.4,1.8,13.5,4.1,13.5,11.3c0,0.9-0.1,2.8-1.6,4.8c-1.4,1.9-4.1,4.6-9.8,4.6
		c-8.2,0-14.2-5-16-6.7L808.7,180.7z M757.7,131v66.3H773V141c2.4-1.2,5.3-2.3,11.1-1.9c-0.5,0.8-1.4,1.8-1.4,4
		c0,1.9,0.5,3.2,0.8,3.9c1.4,3.2,4.5,5,8.1,5c5.8,0,9.3-4.3,9.3-9.8c0-3.1-1.3-5.2-1.8-6.1c-3.1-4.6-9-4.8-14.1-5H757.7z
		 M699.3,156.1c0.3-1.9,0.5-3.9,1.2-5.8c0.8-2.4,4.6-12,14.6-12.1c1.4,0,4.4,0.2,7.6,2.3c5.8,3.6,6.7,9.2,7.1,15.5L699.3,156.1z
		 M745.6,164.6c-0.1-2.6,0.3-11.9-3.6-19.9c-7-14.1-21.9-15.3-26.6-15.3c-4.3,0-16.1,1-24.5,11c-7.7,9.2-8.3,20.9-8.3,24.6
		c0,16,8.3,24.4,13.5,28c3.6,2.6,10.8,6.1,21.8,6.2c8.5,0,14.8-2.1,17.8-3.1c3.3-1.3,6.2-2.8,7.3-3.5v-13c-3,2.8-4,3.9-5.8,5.2
		c-6.6,4.9-12.6,5.4-16,5.4c-5.4,0-11.6-1.7-15.5-5.5c-4.9-4.6-6.3-11.7-6.7-13.5c-0.4-2.3-0.4-4-0.5-6.4H745.6z M680.2,131h-13.8
		l-19,52.9c-0.9,2.8-1,3.5-3.1,3.5l-20-56.4h-16.6l24.5,66.3h7.9c4.8-0.1,8.5-0.3,12.6-2.8c5.4-3.5,8-10.1,10.1-15.7L680.2,131z
		 M578.7,114.5c0,5,4.1,9,9,9c5,0,9.2-4,9.2-9c0-5-4-9.1-9-9.1C582.8,105.4,578.7,109.5,578.7,114.5 M595.5,131h-15.4v66.3h15.4V131
		z M503.8,131v66.3h15.3v-54.8c2.6-1.3,5.4-2.8,11.5-2.8c9.9,0,13.8,4.5,15.2,8.9c0.6,2.1,0.9,4.1,1,8.6v40.1h15.2v-40.1
		c-0.5-7.5-1-14.1-7.1-19.2c-7.3-6.3-17-7-35.9-7H503.8z M487.9,106.3h-15.7v51.8c0.1,8,0,12.1-1,16c-1.2,4-3.2,6.6-4.3,7.9
		c-2.1,2.3-5.2,5.2-12,6.3c-2.7,0.5-4.9,0.5-5.9,0.5c-13.5,0-19.1-7.2-21.2-12.5c-1.6-4.1-1.9-9-1.8-18.2v-51.8h-15.7v48.5
		c-0.1,10.7,0.3,16.5,1.8,21.3c1.7,5.7,5.3,11,10.1,14.6c4.1,3.4,13.3,8.4,26.8,8.4c12.3,0,21-4.3,25-6.7c9.4-6.2,12.1-15.2,13-19.4
		c0.9-4.4,1-8.9,0.9-18.2V106.3z"/>
	<path fill="#010202" d="M176.7,277.8c-3-2.9-7.4,1.5-4.5,4.4l21.4,20.9l4.5-4.3C198.1,298.7,179.2,280.3,176.7,277.8 M142.1,303.1
		l-4.5-4.4l21.4-20.9c3-2.9,7.4,1.5,4.5,4.4C161,284.6,142.1,303.1,142.1,303.1 M51.6,155.5c3,2.9-1.5,7.3-4.5,4.4L25.8,139l4.5-4.4
		C30.2,134.6,49.1,153,51.6,155.5 M25.8,189.3l4.5,4.4l21.4-20.9c3-2.9-1.5-7.3-4.5-4.4C44.6,170.9,25.8,189.3,25.8,189.3
		 M159.1,50.4c3,2.9,7.4-1.5,4.5-4.4l-21.4-20.9l-4.5,4.4C137.7,29.5,156.5,47.9,159.1,50.4 M193.6,25.2l4.5,4.4l-21.4,20.9
		c-3,2.9-7.4-1.5-4.5-4.4C174.7,43.6,193.6,25.2,193.6,25.2 M284.1,155.5c-3,2.9,1.5,7.3,4.5,4.4l21.4-20.9l-4.5-4.4
		C305.5,134.6,286.6,153,284.1,155.5 M310,189.3l-4.5,4.3l-21.4-20.9c-3-2.9,1.5-7.3,4.5-4.4C291.1,170.8,310,189.3,310,189.3
		 M105.6,98.9c3,2.9-1.5,7.3-4.5,4.4L25.8,29.6l4.5-4.4C30.2,25.2,103,96.4,105.6,98.9 M305.5,25.2l4.5,4.4l-75.4,73.7
		c-3,2.9-7.4-1.5-4.5-4.4C232.7,96.4,305.5,25.2,305.5,25.2 M101.1,225c3-2.9,7.4,1.5,4.5,4.4L30.2,303l-4.5-4.3
		C25.8,298.7,98.6,227.5,101.1,225 M310,298.7l-4.5,4.4l-75.4-73.7c-3-2.9,1.5-7.3,4.5-4.4C237.2,227.5,310,298.7,310,298.7
		 M105.2,207.9c3,2.9-1.5,7.3-4.5,4.4c0,0-37.8-37-40.8-39.9c-3-2.9,1.5-7.3,4.5-4.4C64.4,168,102.7,205.4,105.2,207.9 M176.7,58.9
		c-3-2.9-7.4,1.5-4.5,4.4c3,2.9,40.8,39.9,40.8,39.9c3,2.9,7.4-1.5,4.5-4.4C214.9,96.4,176.7,58.9,176.7,58.9 M217.5,208.3
		c3,2.9-1.5,7.3-4.5,4.4c0,0-37.8-37-40.8-39.9c-3-2.9,1.5-7.3,4.5-4.4C176.7,168.4,214.9,205.8,217.5,208.3 M275.4,172.7
		c3-2.9-1.5-7.3-4.5-4.4c-3,2.9-40.8,39.9-40.8,39.9c-3,2.9,1.5,7.3,4.5,4.4C237.2,210.1,275.4,172.7,275.4,172.7 M122.7,103.2
		c-3,2.9-7.4-1.5-4.5-4.4c0,0,37.9-37,40.8-39.9c3-2.9,7.4,1.5,4.5,4.4C163.5,63.3,125.2,100.7,122.7,103.2 M163.5,172.7
		c3-2.9-1.5-7.3-4.5-4.4c-3,2.9-40.8,39.9-40.8,39.9c-3,2.9,1.5,7.3,4.5,4.4C125.2,210.1,163.5,172.7,163.5,172.7 M105.6,120
		c3-2.9-1.5-7.3-4.5-4.4c0,0-37.9,37-40.8,39.9c-3,2.9,1.5,7.3,4.5,4.4C64.8,159.9,103.1,122.5,105.6,120 M176.7,269.3
		c-3,2.9-7.4-1.5-4.5-4.4c3-2.9,40.8-39.9,40.8-39.9c3-2.9,7.4,1.5,4.5,4.4C214.9,231.9,176.7,269.3,176.7,269.3 M217.5,120
		c3-2.9-1.5-7.3-4.5-4.4c0,0-37.9,37-40.8,39.9c-3,2.9,1.5,7.3,4.5,4.4C176.7,159.9,214.9,122.5,217.5,120 M275.4,155.5
		c3,2.9-1.5,7.3-4.5,4.4c-3-2.9-40.8-39.9-40.8-39.9c-3-2.9,1.5-7.3,4.5-4.4C237.2,118.1,275.4,155.5,275.4,155.5 M122.7,225
		c-3-2.9-7.4,1.5-4.5,4.4c0,0,37.9,37,40.8,39.9c3,2.9,7.4-1.5,4.5-4.4C163.5,264.9,125.2,227.5,122.7,225 M163.5,155.5
		c3,2.9-1.5,7.3-4.5,4.4c-3-2.9-40.8-39.9-40.8-39.9c-3-2.9,1.5-7.3,4.5-4.4C125.2,118.1,163.5,155.5,163.5,155.5 M0,215.7v6.2h99.8
		c4.2,0,4.2-6.2,0-6.2H0z M335.7,215.7v6.2h-99.8c-4.2,0-4.2-6.2,0-6.2H335.7z M0,106.3v6.2h99.8c4.2,0,4.2-6.2,0-6.2H0z
		 M335.7,106.3v6.2h-99.8c-4.2,0-4.2-6.2,0-6.2H335.7z M124,215.7c-4.2,0-4.2,6.2,0,6.2h87.7c4.2,0,4.2-6.2,0-6.2H124z M211.7,106.3
		c4.2,0,4.2,6.2,0,6.2H124c-4.2,0-4.2-6.2,0-6.2H211.7z M220.7,328.2h6.3v-97.6c0-4.1-6.3-4.1-6.3,0V328.2z M220.7,0h6.3v97.6
		c0,4.1-6.3,4.1-6.3,0V0z M220.7,207c0,4.1,6.3,4.1,6.3,0v-85.8c0-4.1-6.3-4.1-6.3,0V207z M108.7,230.7c0-4.1,6.3-4.1,6.3,0v97.6
		h-6.3V230.7z M108.7,97.6c0,4.1,6.3,4.1,6.3,0V0h-6.3V97.6z M108.7,121.2c0-4.1,6.3-4.1,6.3,0V207c0,4.1-6.3,4.1-6.3,0V121.2z"/>
</g>
</svg>
